<?xml version="1.0" encoding="utf-8"?>
<!-- Generator: Adobe Illustrator 16.0.0, SVG Export Plug-In . SVG Version: 6.00 Build 0)  -->
<!DOCTYPE svg PUBLIC "-//W3C//DTD SVG 1.1//EN" "http://www.w3.org/Graphics/SVG/1.1/DTD/svg11.dtd">
<svg version="1.1" id="Layer_1" xmlns="http://www.w3.org/2000/svg" xmlns:xlink="http://www.w3.org/1999/xlink" x="0px" y="0px"
	 width="293.084px" height="293.11px" viewBox="0 0 293.084 293.11" enable-background="new 0 0 293.084 293.11"
	 xml:space="preserve">
<g>
	<g>
		<path fill="#98836A" d="M1,130c0-8.667,0-17.333,0-26c5.467-6.243,10.41-12.886,13.857-20.448
			c5.003-10.974,10.707-21.527,19.493-29.901c9.627-9.174,19.994-17.508,30.835-25.263c3.726-2.665,8.668-4.39,10.531-8.889
			c2.995-7.233,8.532-9.585,15.684-9.788c1.15-0.032,2.29-0.396,3.438-0.58c24.323-3.908,48.639-7.872,73.419-7.021
			c14.438,0.495,28.066,3.438,39.647,12.774c2.612,2.105,5.454,3.779,8.732,4.669c6.903,1.872,13.776,3.852,20.694,5.667
			c6.178,1.62,6.449,1.745,4.877,8.198c-1.159,4.761-0.443,8.395,3.273,12.095c6.773,6.745,13.83,13.057,22.484,17.118
			c6.58,3.089,9.102,7.475,7.349,14.583c-1.11,4.505,0.112,8.593,2.179,12.893c4.097,8.523,8.286,17.041,11.469,26.002
			c1.078,3.035,1.576,6.442,4.037,8.892c0,3.667,0,7.333,0,11c-3.287,4.434-4.187,9.688-4.033,14.887
			c0.492,16.725-1.85,32.786-9.167,48.017c-5.556,11.564-10.733,23.562-19.366,33.016c-7.369,8.069-12.314,16.386-12.121,27.357
			c0.053,3.045-1.242,4.483-4.072,5.276c-8.807,2.464-17.532,5.223-26.354,7.631c-7.486,2.043-14.238,4.575-14.756,13.958
			c-0.069,1.248-0.988,2.44-1.465,3.678c-0.719,1.866-2.169,2.521-3.986,2.204c-9.83-1.708-20.328-1.854-29.316-5.605
			c-14.047-5.863-27.927-4.575-42.178-3.523c-8.521,0.63-16.808,3.189-25.679,0.631c-14.058-4.054-27.534-9.09-38.924-18.407
			c-15.2-12.434-27.14-27.813-37.431-44.372c-3.118-5.016-7.389-9.495-8.07-16.18c-1.516-14.873-3.47-29.734-9.49-43.695
			c-3.391-7.863-5.362-16.048-4.679-24.756C2.069,134.118,2.729,131.814,1,130z M169.82,272.981
			c0.385-2.242-1.317-3.537-2.707-4.924c-10.994-10.969-21.503-22.343-28.871-36.173c-2.419-4.542-5.729-6.325-10.849-5.934
			c-2.92,0.224-6.196-0.095-8.844-1.245c-6.223-2.704-9.874-0.62-13.865,4.482c-6.44,8.232-6.894,7.922-1.257,16.875
			c5.691,9.038,8.047,18.939,7.676,29.521c-0.144,4.085,1.06,5.941,5.546,4.847c3.045-0.742,6.257-0.914,9.409-1.091
			c11.611-0.647,23.234-2.364,34.801,0.623C167.587,281.701,169.709,279.98,169.82,272.981z M193.094,133.453
			c-0.459,0-0.916,0-1.375,0.001c0,1.829,0.086,3.663-0.014,5.487c-0.537,9.787-0.557,9.793,8.139,13.974
			c2.057,0.989,3.996,2.444,6.512,1.013c10.686-6.081,21.664-11.673,31.297-19.464c1.945-1.572,2.174-3.044,1.028-5.128
			c-7.456-13.554-14.896-27.117-22.263-40.72c-1.203-2.22-2.628-2.628-4.882-1.696c-4.765,1.969-9.557,3.889-14.409,5.629
			c-2.947,1.057-4.1,2.898-4.073,5.999C193.152,110.182,193.094,121.817,193.094,133.453z M199.906,48.396
			c2.017-7.094-4.768-9.933-8.504-14.507c-2.165-2.65-4.565-2.775-7.504-1.325c-10.912,5.387-21.549,11.265-32.053,17.404
			c-2.451,1.433-2.67,2.96-1.424,5.303c2.189,4.115,4.562,8.189,6.201,12.529c2.643,6.993,6.498,12.098,14.547,13.086
			c2.385,0.293,4.992,1.366,6.859,2.873c9.998,8.066,19.934,6.534,30.384,0.884c3.424-1.852,4.493-2.728,2.099-6.425
			C204.785,69.377,199.701,60.154,199.906,48.396z M91.921,138.679c2.851,7.372,5.647,14.659,8.517,21.918
			c0.217,0.55,0.899,0.998,1.465,1.313c6.25,3.481,12.507,6.951,18.791,10.371c2.663,1.45,4.645,1.285,4.228-2.457
			c-0.995-8.936,3.043-15.814,8.914-21.885c2.303-2.381,4.834-4.592,7.499-6.561c4.178-3.088,4.106-6.398,1.155-10.201
			c-8.684-11.192-16.183-23.21-24.139-34.906c-1.971-2.897-2.957-3.01-4.614,0.17c-6.459,12.403-13.087,24.72-19.609,37.091
			C93.286,135.13,92.693,136.859,91.921,138.679z M180.125,179.717c0.008,0.105,0.015,0.211,0.021,0.317
			c1.805-0.212,3.972,0.143,5.352-0.736c5.188-3.308,10.342-6.814,14.504-11.367c3.225-3.528,2.29-9.739-1.271-11.704
			c-14.423-7.96-29.954-12.76-46.021-15.979c-2.115-0.423-4.388-0.722-6.216,0.884c-5.74,5.042-11.749,9.841-15.507,16.73
			c-2.302,4.219-3.591,8.584-2.409,13.432c0.924,3.788,2.811,6.042,7.154,6.215C150.535,178.098,165.328,178.959,180.125,179.717z
			 M189.557,119.128c0-7.312-0.092-14.624,0.051-21.933c0.049-2.457-0.635-4.091-2.863-5.242
			c-5.908-3.055-11.706-6.339-18.039-8.475c-10.674-3.599-17.122,0.305-18.652,11.412c-1.734,12.588-1.462,25.199-0.183,37.815
			c0.204,2.021,0.718,3.621,2.917,4.023c10.508,1.922,20.574,5.365,30.639,8.817c3.34,1.146,4.492-0.126,4.518-3.496
			C188.002,134.405,187.881,126.746,189.557,119.128z M144.979,128.848c1.571-1.843,0.956-3.394,0.788-4.753
			c-1.131-9.156-0.576-18.282,0.379-27.396c0.655-6.265,2.13-12.304,7.885-15.975c3.092-1.973,3.334-4.182,1.828-7.135
			c-2.724-5.337-5.424-10.686-8.075-16.058c-2.758-5.589-15.832-10.574-21.609-8.039c-5.942,2.606-11.734,5.562-17.706,8.094
			c-3.608,1.529-4.092,3.484-2.552,6.978c5.66,12.834,12.444,25.031,20.226,36.674C132.291,110.437,138.608,119.522,144.979,128.848
			z M253.742,201.113c-0.15-1.816-0.555-3.054-0.291-4.126c1.255-5.101-1.639-6.98-5.795-8.616
			c-10.839-4.265-21.531-8.901-32.316-13.305c-14.868-6.071-10.331-6.091-22.249,2.873c-3.897,2.933-3.282,4.542-0.245,7.578
			c16.006,16.006,31.805,32.22,47.68,48.357c7.18,7.3,7.038,7.151,13.921,0.149c2.666-2.712,3.423-5.212,2.537-8.867
			C255.021,217.061,253.894,208.81,253.742,201.113z M160.009,5.983c-5.155,0-10.312,0.082-15.464-0.03
			c-3.064-0.067-4.379,1.271-4.966,4.259c-2.021,10.282-4.303,20.513-6.428,30.775c-0.26,1.256-0.789,2.623,0.069,3.868
			c1.406,2.041,13.497,4.078,15.874,2.689c16.818-9.836,34.039-18.879,51.98-26.521c1.574-0.671,4.138-0.802,4.125-2.938
			c-0.012-1.9-2.33-2.604-3.859-3.546C188.628,6.704,174.51,5.164,160.009,5.983z M133.08,7.114
			c-0.496,0.061-0.993,0.112-1.487,0.186c-14.161,2.104-28.33,4.155-42.479,6.335C79.488,15.118,75.628,22.346,79.759,31
			c1.649,3.454,3.958,6.67,5.111,10.268c2.305,7.196,7.693,10.821,14.001,13.822c2.182,1.038,3.988,1.068,6.129,0.04
			c6.602-3.173,13.284-6.18,19.911-9.302c1.796-0.847,3.649-1.686,4.126-3.986c2.2-10.594,4.435-21.18,6.646-31.771
			C136.123,7.96,135.393,6.829,133.08,7.114z M242.208,136.195c-0.673,0.321-1.327,0.509-1.831,0.894
			c-10.346,7.88-21.826,13.909-33.006,20.443c-3.809,2.227-3.351,8.954,0.56,10.622c14.058,5.998,28.19,11.818,42.279,17.744
			c2.327,0.979,3.725,0.58,4.358-2.064c2.103-8.771,6.544-16.325,12.555-22.932c2.424-2.664,1.41-4.275-0.879-6.065
			c-7.191-5.625-14.337-11.31-21.514-16.953C243.961,137.279,243.104,136.79,242.208,136.195z M156.583,182.097
			c-0.001,0.034-0.003,0.069-0.005,0.104c-6.645-0.292-13.295-0.486-19.931-0.917c-3.247-0.212-5.855,0.593-7.917,3.177
			c-5.074,6.359-10.387,12.54-15.229,19.07c-3.243,4.375-1.431,9.607-1.245,14.49c0.041,1.06,1.25,1.547,2.192,1.811
			c11.349,3.181,22.77,4.19,33.405-1.89c13.21-7.553,23.212-18.682,32.116-30.849c1.98-2.705,1.814-4.016-1.958-4.103
			C170.866,182.826,163.727,182.409,156.583,182.097z M180.43,215.021c0.004,16.159,6.697,30.023,14.836,43.386
			c0.586,0.964,1.111,2.346,2.408,2.287c1.426-0.064,1.574-1.595,1.871-2.657c3.738-13.375,10.795-24.618,21.469-33.543
			c2.393-2.001,2.648-3.781,0.24-6.156c-10.312-10.178-20.518-20.464-30.705-30.768c-2.459-2.487-4.057-2.456-5.297,1.056
			C182.23,197.179,180.568,205.965,180.43,215.021z M52.073,91.648c-0.169,0.615,0.404,1.766,1.992,2.581
			c3.697,1.898,7.368,3.852,11.01,5.854c1.969,1.083,3.692,0.967,5.555-0.339c11.035-7.733,22.116-15.399,33.174-23.099
			c1.613-1.123,2.463-2.283,1.639-4.582c-2.854-7.96-6.997-14.564-15.406-17.762c-2.235-0.85-3.895-1.151-5.997,0.157
			c-8.33,5.189-16.744,10.244-25.13,15.342c-1.603,0.975-2.914,2.083-3.295,4.116C54.575,79.476,53.41,85.01,52.073,91.648z
			 M71.48,176.107c4.301-0.143,7.595-3.84,11.447-6.258c14.121-8.864,14.004-8.914,7.559-24.205c-1.539-3.65-2.781-7.02-7.654-7.146
			c-3.911-0.102-7.575-2.309-11.739-1.043c-15.623,4.75-22.617,17.59-29.228,30.821c-0.915,1.831-0.598,3.251,1.73,3.604
			C52.633,173.254,61.671,174.621,71.48,176.107z M178.614,196.355c-1.814-0.157-2.1,1.238-2.844,2.032
			c-9.581,10.22-19.069,20.611-32.712,25.555c-4.215,1.527-3.54,3.229-1.888,6.603c6.578,13.433,17.188,23.548,27.155,34.228
			c2.598,2.783,4.362,2.386,5.865-1.058c1.932-4.426,3.74-9.033,6.959-12.65c3.303-3.711,3.211-7.202,1.271-11.419
			c-5.158-11.215-6.328-22.98-4.49-35.153C178.332,201.839,179.629,199.126,178.614,196.355z M54.14,142.494
			c-0.237-0.542-0.366-1.021-0.631-1.409c-1.368-2.004-10.524-5.438-12.624-4.611c-10.038,3.957-20.045,7.989-30.07,11.977
			c-2.578,1.025-4.176,2.131-2.777,5.51c6.402,15.471,9.923,31.71,11.727,48.287c0.535,4.912,4.003,4.903,7.021,5.27
			c3.489,0.424,2.138-3.026,2.722-4.783c0.512-1.54,0.425-3.282,0.583-4.937c1.909-19.958,9.466-37.538,22.263-52.917
			C52.983,144.123,53.536,143.304,54.14,142.494z M4.955,124.613c-0.023,0.002-0.047,0.004-0.071,0.005
			c0.25,5.647,0.683,11.294,0.691,16.941c0.007,4.54,1.946,4.967,5.549,3.404c8.69-3.769,17.368-7.576,26.16-11.095
			c3.409-1.364,3.491-3.109,2.21-6.082c-3.289-7.632-6.594-15.275-9.382-23.097c-2.099-5.889-5.764-10.33-10.311-14.371
			c-2.299-2.043-3.438-1.441-5.079,0.757c-6.671,8.938-12.426,18.092-9.8,30.053C5.167,122.239,4.955,123.449,4.955,124.613z
			 M289.699,128.226c-0.113-0.385-0.384-1.693-0.88-2.911c-2.821-6.924-5.8-13.785-8.512-20.751
			c-1.487-3.82-2.879-3.002-5.118-0.591c-8.482,9.134-17.182,18.065-26.691,26.147c-2.432,2.067-2.939,3.718-0.154,5.896
			c7.321,5.727,14.555,11.564,21.809,17.378c1.427,1.143,2.736,1.346,4.551,0.573C285.714,149.281,288.684,139.793,289.699,128.226z
			 M32.954,204.784c0.217,1.945-0.733,4.444,2.307,5.245c10.32,2.715,20.001,7.154,29.837,11.16
			c2.975,1.212,4.174,0.102,5.193-2.504c1.39-3.554,2.657-7.255,4.688-10.439c5.384-8.444,4.446-16.363-0.777-24.433
			c-1.448-2.237-2.746-3.774-5.588-4.191c-8.703-1.276-17.371-2.801-26.028-4.363c-2.722-0.491-3.88,0.573-4.665,3.061
			C35.207,186.924,33.773,195.746,32.954,204.784z M87.062,135.635c1.765,0.488,2.309-1.808,3.209-3.495
			c6.817-12.773,13.398-25.679,20.509-38.285c2.37-4.2,2.433-7.396-0.154-11.388c-1.931-2.979-3.151-3.964-6.447-1.584
			c-10.386,7.498-20.984,14.704-31.573,21.916c-2.085,1.42-2.823,2.998-2.343,5.452c1.372,7.021,2.638,14.062,3.903,21.104
			c0.424,2.357,1.507,3.951,4.037,4.4C80.822,134.22,83.412,134.852,87.062,135.635z M231.733,42.163
			c-8.126,0.357-15.916,0.809-23.713,0.998c-3.835,0.093-5.136,1.767-5.208,5.521c-0.209,10.934,5.145,19.729,10.502,28.548
			c1.454,2.396,3.656,1.792,5.764,0.989c8.432-3.211,16.312-7.341,23.13-13.385c9.241-8.193,9.128-8.001,1.285-17.113
			C240.156,43.845,237.066,40.476,231.733,42.163z M246.08,246.461c0.259-1.449-0.396-2.582-1.364-3.564
			c-5.257-5.336-10.543-10.644-15.777-16.001c-1.808-1.851-3.37-2.124-5.543-0.305c-11.715,9.812-18.68,22.397-21.854,37.167
			c-1.018,4.735,3.388,8.685,8.031,7.346c10.394-2.997,20.744-6.139,31.109-9.23c1.83-0.546,3.349-1.35,3.639-3.573
			C244.837,254.344,245.486,250.406,246.08,246.461z M107.767,270.977c-1.006-13.414-5.502-27.609-21.077-35.813
			c-2.914-1.535-5.023-1.377-7.529,0.981c-6.789,6.388-11.315,14.282-15.797,22.271c-1.445,2.573,0.186,3.569,1.799,4.803
			c10.604,8.106,22.516,13.412,35.456,16.465C107.559,281.32,107.858,281.015,107.767,270.977z M106.583,202.094
			c2.646,0.335,4.142-1.319,5.524-3.002c4.005-4.875,7.817-9.916,11.953-14.676c2.454-2.825,2.47-4.789-0.939-6.622
			c-7.321-3.937-14.61-7.93-21.897-11.93c-2.125-1.166-3.964-0.988-6.017,0.408c-4.812,3.271-9.793,6.293-14.658,9.487
			c-1.51,0.991-3.176,1.988-3.501,4.012c-0.403,2.501,5.705,14.726,8.139,15.558C92.263,197.746,99.443,199.86,106.583,202.094z
			 M220.658,85.623c-2.016,0.26-0.437,2.003,0.221,3.227c6.703,12.463,13.512,24.867,20.152,37.362
			c1.748,3.287,3.348,2.809,5.702,0.697c9.306-8.346,18.065-17.22,26.626-26.325c3.012-3.203,2.664-5.732,0.959-9.312
			c-1.807-3.797-4.318-3.828-7.705-3.124c-10.187,2.119-20.455,2.744-30.748,0.844C231.127,88.116,226.449,86.918,220.658,85.623z
			 M23.367,211.08c-0.102,0.523-0.21,0.723-0.151,0.83c9.073,16.417,20.414,31.11,33.699,44.328c2.056,2.045,2.977,0.812,4.02-1.108
			c4.143-7.624,8.631-15.03,15.02-21.045c2.138-2.013,1.752-3.063-0.84-4.191c-13.734-5.972-27.266-12.45-41.712-16.618
			C30.114,212.327,26.848,211.03,23.367,211.08z M46.413,96.268c-3.312,0.28-6.621,0.671-9.939,0.812
			c-3.927,0.168-5.338,1.343-3.489,5.483c3.387,7.583,6.413,15.333,9.427,23.076c4.533,11.646,15.174,15.421,25.793,9.158
			c2.035-1.2,2.769-2.447,2.289-4.818c-1.155-5.701-2.277-11.425-3.006-17.19c-0.64-5.057-1.798-9.32-7.362-11.184
			C55.471,100.049,51.671,96.27,46.413,96.268z M84.18,48.77c-0.095-0.375-0.123-0.723-0.267-1.013
			c-3.097-6.255-6.165-12.524-9.338-18.74c-1.002-1.963-2.412-1.143-3.727-0.205C59.877,36.636,49.104,44.699,39.311,54.01
			c-2.146,2.041-2.248,3.37,0.347,4.911c4.288,2.547,8.553,5.137,12.747,7.835c1.906,1.227,3.396,0.578,5.043-0.431
			c8.083-4.946,16.196-9.844,24.289-14.773C82.841,50.879,84.207,50.389,84.18,48.77z M107.989,213.446
			c-0.039-7.894-0.038-7.897-8.125-10.018c-4.342-1.139-8.727-2.134-13.018-3.44c-3.128-0.952-4.912-0.228-6.15,2.946
			c-2.354,6.033-4.999,11.957-7.64,17.875c-1.088,2.437-0.777,4.078,1.808,5.204c5.789,2.522,11.533,5.146,17.303,7.712
			c1.079,0.479,2.454,1.063,3.3,0.127C100.862,227.885,109.144,223.66,107.989,213.446z M222.325,81.118
			c12.79,5.329,25.887,6.224,39.247,4.211c9.827-1.479,10.528-2.458,10.381-12.45c-0.031-2.185-0.61-3.762-2.592-4.96
			c-4.557-2.757-9.016-5.678-13.48-8.585c-1.557-1.015-2.877-1.51-4.292,0.282C243.867,69.396,233.77,75.955,222.325,81.118z
			 M30.627,93.92c5.532-0.558,10.167-1.021,14.8-1.492c2.075-0.211,3.095-1.287,3.627-3.407
			c4.351-17.313,3.316-19.561-12.348-27.606c-2.453-1.26-3.887-1.003-5.441,1.11c-3.751,5.103-7.589,10.157-9.894,16.12
			c-0.834,2.158-3.449,4.374-1.09,6.805C23.554,88.82,26.328,93.001,30.627,93.92z M256.961,198.783
			c-0.002,7.695,1.197,15.252,2.688,22.771c0.182,0.916,0.133,2.221,1.369,2.399c1.182,0.17,1.56-1.024,2.076-1.836
			c6.191-9.711,11.613-19.815,15.957-30.502c1.099-2.701,0.289-4.37-1.834-5.969c-3.855-2.905-7.662-5.88-11.412-8.922
			c-2.637-2.139-4.275-1.779-5.558,1.48C257.634,184.845,256.889,191.735,256.961,198.783z M195.244,288.146
			c2.344,0.274,3.64-1.082,4.086-2.97c0.971-4.112,5.672-8.029,1.904-12.445c-5.113-5.99-8.738-12.885-12.955-19.418
			c-1.472-2.278-2.422-2.827-4.24-0.289c-5.897,8.233-9.307,17.543-12.167,27.119c-0.661,2.212,0.002,3.461,2.359,3.905
			C181.244,285.369,188.24,286.774,195.244,288.146z M209.956,40.01c8.612-0.436,15.917-0.991,23.229-1.106
			c4.377-0.069,5.082-2.874,5.655-6.13c0.654-3.717-2.28-3.891-4.58-4.585c-4.616-1.395-9.538-2.11-13.841-4.148
			c-9.72-4.605-17.649-0.035-25.842,3.997c-2.123,1.045-2.146,2.19-0.586,3.773C198.759,36.642,202.953,42.643,209.956,40.01z
			 M285.193,161.604c0-1.833-0.041-3.666,0.009-5.497c0.098-3.599-1.22-4-4.126-2.148c-5.404,3.443-10.018,7.678-14.021,12.667
			c-2.317,2.889-2.535,5.1,0.879,7.35c3.192,2.103,6.105,4.628,9.152,6.951c4.425,3.373,4.815,3.225,5.992-2.482
			C284.223,172.891,285.213,167.312,285.193,161.604z"/>
		<path fill-rule="evenodd" clip-rule="evenodd" fill="#FDFDFD" d="M1,130c1.729,1.814,1.069,4.118,0.912,6.115
			c-0.684,8.708,1.288,16.893,4.679,24.756c6.02,13.961,7.974,28.822,9.49,43.695c0.682,6.685,4.953,11.164,8.07,16.18
			c10.291,16.559,22.231,31.938,37.431,44.372c11.39,9.317,24.867,14.354,38.924,18.407c8.872,2.559,17.159-0.001,25.679-0.631
			c14.25-1.052,28.131-2.34,42.178,3.523c8.988,3.752,19.486,3.897,29.316,5.605c1.817,0.316,3.268-0.338,3.986-2.204
			c0.477-1.237,1.396-2.43,1.465-3.678c0.518-9.383,7.27-11.915,14.756-13.958c8.821-2.408,17.547-5.167,26.354-7.631
			c2.83-0.793,4.125-2.231,4.072-5.276c-0.193-10.972,4.752-19.288,12.121-27.357c8.633-9.453,13.811-21.451,19.366-33.016
			c7.317-15.23,9.659-31.292,9.167-48.017c-0.153-5.198,0.746-10.453,4.033-14.887c0,50.958-0.031,101.917,0.077,152.875
			c0.007,3.147-0.263,4.24-3.946,4.235c-94.756-0.14-189.511-0.14-284.267,0c-3.694,0.006-3.946-1.103-3.94-4.24
			C1.03,235.913,1,182.957,1,130z"/>
		<path fill-rule="evenodd" clip-rule="evenodd" fill="#FDFDFD" d="M293,125c-2.461-2.449-2.959-5.856-4.037-8.892
			c-3.183-8.961-7.372-17.479-11.469-26.002c-2.066-4.3-3.289-8.388-2.179-12.893c1.753-7.108-0.769-11.494-7.349-14.583
			c-8.654-4.062-15.711-10.373-22.484-17.118c-3.717-3.7-4.433-7.334-3.273-12.095c1.572-6.453,1.301-6.578-4.877-8.198
			c-6.918-1.815-13.791-3.795-20.694-5.667c-3.278-0.89-6.12-2.563-8.732-4.669c-11.581-9.337-25.209-12.279-39.647-12.774
			c-24.781-0.851-49.097,3.113-73.419,7.021c-1.148,0.185-2.288,0.548-3.438,0.58c-7.152,0.203-12.689,2.555-15.684,9.788
			c-1.863,4.499-6.805,6.224-10.531,8.889C54.344,36.143,43.978,44.477,34.351,53.65c-8.787,8.374-14.49,18.928-19.493,29.901
			C11.41,91.114,6.467,97.757,1,104C1,70.833,1.05,37.666,0.916,4.5C0.903,1.517,1.518,0.915,4.5,0.918c95,0.1,190,0.1,285,0
			c2.982-0.003,3.594,0.599,3.584,3.582C292.959,44.667,293,84.833,293,125z"/>
		<path fill-rule="evenodd" clip-rule="evenodd" fill="#ACD56F" d="M169.82,272.981c-0.111,6.999-2.233,8.72-8.961,6.982
			c-11.566-2.987-23.19-1.271-34.801-0.623c-3.151,0.177-6.363,0.349-9.409,1.091c-4.486,1.095-5.69-0.762-5.546-4.847
			c0.372-10.582-1.984-20.483-7.676-29.521c-5.637-8.953-5.184-8.643,1.257-16.875c3.991-5.103,7.642-7.187,13.865-4.482
			c2.648,1.15,5.924,1.469,8.844,1.245c5.12-0.392,8.429,1.392,10.849,5.934c7.368,13.83,17.877,25.204,28.871,36.173
			C168.503,269.444,170.205,270.739,169.82,272.981z M139.285,267.666c2.626-0.339,5.316-1.561,5.242-4.949
			c-0.085-3.928-3.168-5.746-6.626-6.087c-2.933-0.289-5.028,1.551-5.403,4.612C132.145,264.114,135.655,267.506,139.285,267.666z"
			/>
		<path fill-rule="evenodd" clip-rule="evenodd" fill="#FDB05A" d="M193.094,133.453c0-11.636,0.059-23.271-0.04-34.905
			c-0.026-3.101,1.126-4.942,4.073-5.999c4.853-1.74,9.645-3.66,14.409-5.629c2.254-0.932,3.679-0.523,4.882,1.696
			c7.367,13.603,14.807,27.166,22.263,40.72c1.146,2.084,0.917,3.556-1.028,5.128c-9.633,7.791-20.611,13.383-31.297,19.464
			c-2.516,1.432-4.455-0.023-6.512-1.013c-8.695-4.181-8.676-4.187-8.139-13.974c0.1-1.824,0.014-3.658,0.014-5.487
			C192.178,133.453,192.635,133.453,193.094,133.453z M203.923,98.777c0.047,0.584,0.021,1.432,0.196,2.236
			c0.773,3.577,2.641,6.606,6.6,6.117c3.976-0.492,5.186-3.897,4.719-7.53c-0.484-3.782-0.92-8.229-6.16-8.131
			C205.094,91.548,203.982,94.85,203.923,98.777z"/>
		<path fill-rule="evenodd" clip-rule="evenodd" fill="#AED56D" d="M199.906,48.396c-0.205,11.759,4.879,20.981,10.605,29.822
			c2.395,3.697,1.325,4.573-2.099,6.425c-10.45,5.65-20.386,7.183-30.384-0.884c-1.867-1.507-4.475-2.58-6.859-2.873
			c-8.049-0.988-11.904-6.093-14.547-13.086c-1.639-4.34-4.012-8.414-6.201-12.529c-1.246-2.343-1.027-3.87,1.424-5.303
			c10.504-6.14,21.141-12.018,32.053-17.404c2.938-1.45,5.339-1.325,7.504,1.325C195.139,38.463,201.923,41.302,199.906,48.396z
			 M196.504,73.377c0.121-4.893-4.562-9.951-9.102-10.038c-3.297-0.063-5.945,0.946-6.117,4.923
			c-0.203,4.721,5.04,10.443,9.569,10.404C194.612,78.634,196.004,76.233,196.504,73.377z"/>
		<path fill-rule="evenodd" clip-rule="evenodd" fill="#ADD46D" d="M91.921,138.679c0.772-1.819,1.365-3.549,2.207-5.146
			c6.522-12.371,13.15-24.688,19.609-37.091c1.657-3.18,2.643-3.067,4.614-0.17c7.956,11.696,15.455,23.714,24.139,34.906
			c2.951,3.803,3.023,7.113-1.155,10.201c-2.664,1.969-5.196,4.18-7.499,6.561c-5.871,6.07-9.909,12.949-8.914,21.885
			c0.417,3.742-1.564,3.907-4.228,2.457c-6.284-3.42-12.541-6.89-18.791-10.371c-0.566-0.315-1.248-0.764-1.465-1.313
			C97.568,153.338,94.772,146.051,91.921,138.679z M125.949,126.216c-0.015-2.588-0.215-4.769-1.449-6.636
			c-1.958-2.963-4.096-6.049-8.266-5.204c-3.674,0.744-6.288,3.186-7.102,6.911c-0.641,2.936-0.616,6.065,0.747,8.819
			c1.719,3.473,3.879,7.081,8.42,6.613c4.407-0.453,6.112-4.155,7.296-7.938C125.89,127.847,125.874,126.813,125.949,126.216z"/>
		<path fill-rule="evenodd" clip-rule="evenodd" fill="#ACD56F" d="M180.125,179.717c-14.797-0.758-29.59-1.619-44.393-2.209
			c-4.343-0.173-6.229-2.427-7.154-6.215c-1.183-4.848,0.107-9.213,2.409-13.432c3.759-6.89,9.767-11.688,15.507-16.73
			c1.828-1.605,4.101-1.307,6.216-0.884c16.067,3.22,31.599,8.02,46.021,15.979c3.561,1.965,4.495,8.176,1.271,11.704
			c-4.162,4.553-9.316,8.06-14.504,11.367c-1.38,0.879-3.547,0.524-5.352,0.736C180.14,179.928,180.133,179.822,180.125,179.717z
			 M181.338,168.888c3.822-0.306,7.619-1.344,8.534-5.503c0.874-3.969-2.487-5.938-5.601-7.204
			c-2.428-0.987-5.126-1.521-7.748-1.759c-3.116-0.283-5.441,1.427-6.793,4.186c-1.335,2.726,0.149,4.77,1.992,6.642
			C174.361,167.93,177.729,168.639,181.338,168.888z"/>
		<path fill-rule="evenodd" clip-rule="evenodd" fill="#FDB05A" d="M189.557,119.128c-1.676,7.618-1.555,15.277-1.613,22.923
			c-0.025,3.37-1.178,4.642-4.518,3.496c-10.064-3.452-20.131-6.896-30.639-8.817c-2.199-0.402-2.713-2.003-2.917-4.023
			c-1.279-12.616-1.552-25.228,0.183-37.815c1.53-11.107,7.979-15.011,18.652-11.412c6.333,2.136,12.131,5.42,18.039,8.475
			c2.229,1.151,2.912,2.785,2.863,5.242C189.465,104.504,189.557,111.816,189.557,119.128z M157.979,101.868
			c-0.046,5.197,3.903,9.659,8.721,9.854c3.608,0.146,6.713-3.1,6.849-7.162c0.192-5.721-4.435-11.602-9.005-11.449
			C161.052,93.228,158.019,97.273,157.979,101.868z"/>
		<path fill-rule="evenodd" clip-rule="evenodd" fill="#ACD56F" d="M144.979,128.848c-6.372-9.325-12.688-18.411-18.836-27.609
			c-7.782-11.643-14.566-23.84-20.226-36.674c-1.541-3.493-1.056-5.448,2.552-6.978c5.972-2.532,11.764-5.487,17.706-8.094
			c5.778-2.535,18.851,2.45,21.609,8.039c2.651,5.372,5.352,10.721,8.075,16.058c1.506,2.953,1.264,5.162-1.828,7.135
			c-5.755,3.671-7.229,9.71-7.885,15.975c-0.955,9.113-1.51,18.239-0.379,27.396C145.936,125.454,146.551,127.005,144.979,128.848z
			 M126.417,65.275c0.045,4.229,4.897,9.255,8.911,9.229c3.244-0.021,6.578-3.615,6.423-6.925c-0.19-4.077-4.753-8.333-9.02-8.415
			C129.054,59.094,126.378,61.685,126.417,65.275z"/>
		<path fill-rule="evenodd" clip-rule="evenodd" fill="#ADD46D" d="M253.742,201.113c0.151,7.696,1.279,15.947,3.241,24.044
			c0.886,3.655,0.129,6.155-2.537,8.867c-6.883,7.002-6.741,7.15-13.921-0.149c-15.875-16.138-31.674-32.352-47.68-48.357
			c-3.037-3.036-3.652-4.646,0.245-7.578c11.918-8.964,7.381-8.944,22.249-2.873c10.785,4.403,21.478,9.04,32.316,13.305
			c4.156,1.636,7.05,3.516,5.795,8.616C253.188,198.06,253.592,199.297,253.742,201.113z M228.296,193.238
			c-5.772-0.046-8.715,2.377-8.894,6.186c-0.369,7.921,8.676,15.64,16.48,14.063c5.533-1.118,8.227-6.334,5.597-11.335
			C238.441,196.372,233.134,193.993,228.296,193.238z"/>
		<path fill-rule="evenodd" clip-rule="evenodd" fill="#2781C0" d="M160.009,5.983c14.501-0.819,28.619,0.721,41.331,8.557
			c1.529,0.942,3.848,1.646,3.859,3.546c0.013,2.137-2.551,2.268-4.125,2.938c-17.941,7.642-35.162,16.685-51.98,26.521
			c-2.377,1.389-14.468-0.648-15.874-2.689c-0.858-1.245-0.33-2.612-0.069-3.868c2.125-10.263,4.407-20.493,6.428-30.775
			c0.587-2.987,1.902-4.326,4.966-4.259C149.697,6.065,154.854,5.983,160.009,5.983z M162.474,24.079
			c-0.496-2.606-2.14-4.466-5.231-4.537c-3.398-0.078-7.531,3.824-7.246,6.857c0.287,3.045,2.156,4.779,5.215,4.906
			C158.553,31.444,162.562,27.554,162.474,24.079z"/>
		<path fill-rule="evenodd" clip-rule="evenodd" fill="#2781C0" d="M133.08,7.114c2.313-0.285,3.043,0.846,2.603,2.956
			c-2.211,10.592-4.446,21.178-6.646,31.771c-0.478,2.301-2.331,3.14-4.126,3.986c-6.627,3.122-13.309,6.129-19.911,9.302
			c-2.141,1.028-3.947,0.998-6.129-0.04c-6.308-3.001-11.696-6.626-14.001-13.822C83.717,37.67,81.408,34.454,79.759,31
			c-4.131-8.654-0.271-15.882,9.355-17.365c14.149-2.18,28.318-4.231,42.479-6.335C132.086,7.227,132.584,7.175,133.08,7.114z
			 M96.703,19.062c-5.353,0.095-9.535,3.479-9.434,7.636c0.124,5.108,7.275,11.223,12.993,11.108c4.658-0.093,8.474-4.012,8.49-8.72
			C108.771,23.464,103.338,18.944,96.703,19.062z"/>
		<path fill-rule="evenodd" clip-rule="evenodd" fill="#FDB05A" d="M242.208,136.195c0.896,0.595,1.753,1.084,2.522,1.688
			c7.177,5.644,14.322,11.328,21.514,16.953c2.289,1.79,3.303,3.401,0.879,6.065c-6.011,6.606-10.452,14.161-12.555,22.932
			c-0.634,2.645-2.031,3.044-4.358,2.064c-14.089-5.926-28.222-11.746-42.279-17.744c-3.91-1.668-4.368-8.396-0.56-10.622
			c11.18-6.534,22.66-12.563,33.006-20.443C240.881,136.704,241.535,136.517,242.208,136.195z M220.528,167.372
			c4.05-0.05,7.999-3.309,8.103-6.387c0.11-3.317-3.084-5.95-7.17-5.908c-4.062,0.042-7.533,2.982-7.277,6.491
			C214.477,165.574,217.154,167.171,220.528,167.372z"/>
		<path fill-rule="evenodd" clip-rule="evenodd" fill="#75B8DA" d="M156.583,182.097c7.144,0.312,14.283,0.729,21.43,0.895
			c3.772,0.087,3.938,1.397,1.958,4.103c-8.904,12.167-18.906,23.296-32.116,30.849c-10.635,6.08-22.056,5.07-33.405,1.89
			c-0.943-0.264-2.152-0.751-2.192-1.811c-0.187-4.883-1.998-10.115,1.245-14.49c4.841-6.53,10.154-12.711,15.229-19.07
			c2.062-2.584,4.67-3.389,7.917-3.177c6.635,0.431,13.286,0.625,19.931,0.917C156.58,182.166,156.582,182.131,156.583,182.097z
			 M144.98,203.56c0.003-4.4-2.37-6.956-6.549-7.053c-6.373-0.148-13.318,4.991-13.233,9.792c0.064,3.615,3.663,6.7,7.863,6.741
			C139.274,213.1,144.978,208.563,144.98,203.56z"/>
		<path fill-rule="evenodd" clip-rule="evenodd" fill="#ADD46D" d="M180.43,215.021c0.139-9.056,1.801-17.842,4.822-26.396
			c1.24-3.512,2.838-3.543,5.297-1.056c10.188,10.304,20.393,20.59,30.705,30.768c2.408,2.375,2.152,4.155-0.24,6.156
			c-10.674,8.925-17.73,20.168-21.469,33.543c-0.297,1.062-0.445,2.593-1.871,2.657c-1.297,0.059-1.822-1.323-2.408-2.287
			C187.127,245.044,180.434,231.18,180.43,215.021z M198.564,231.593c-0.715-2.604-0.956-5.862-4.621-6.018
			c-2.956-0.125-4.537,1.984-4.486,4.803c0.055,3.156,2.031,5.478,5.014,5.852C197.221,236.575,198.35,234.271,198.564,231.593z"/>
		<path fill-rule="evenodd" clip-rule="evenodd" fill="#2781C0" d="M52.073,91.648c1.336-6.639,2.501-12.173,3.543-17.73
			c0.381-2.033,1.692-3.142,3.295-4.116c8.386-5.098,16.8-10.152,25.13-15.342c2.102-1.309,3.761-1.007,5.997-0.157
			c8.409,3.197,12.551,9.802,15.406,17.762c0.824,2.299-0.026,3.459-1.639,4.582c-11.059,7.699-22.14,15.365-33.174,23.099
			c-1.863,1.306-3.586,1.422-5.555,0.339c-3.642-2.003-7.313-3.956-11.01-5.854C52.478,93.414,51.904,92.264,52.073,91.648z
			 M78.034,70.999c-4.431,0.032-8.861,3.967-8.516,7.358c0.339,3.327,2.868,4.226,5.706,4.35c3.905,0.171,8.392-3.229,8.294-6.392
			C83.403,72.622,80.902,71.258,78.034,70.999z"/>
		<path fill-rule="evenodd" clip-rule="evenodd" fill="#2781C0" d="M71.48,176.107c-9.81-1.486-18.848-2.854-27.885-4.226
			c-2.329-0.354-2.645-1.773-1.73-3.604c6.61-13.231,13.604-26.071,29.228-30.821c4.165-1.266,7.829,0.941,11.739,1.043
			c4.873,0.126,6.115,3.495,7.654,7.146c6.445,15.291,6.562,15.341-7.559,24.205C79.076,172.268,75.781,175.965,71.48,176.107z
			 M80.584,146.344c-0.377-2.135-1.522-3.723-3.811-3.887c-2.688-0.192-4.745,1.348-4.962,3.88c-0.208,2.43,1.813,3.905,4.204,3.994
			C78.525,150.423,79.826,148.672,80.584,146.344z"/>
		<path fill-rule="evenodd" clip-rule="evenodd" fill="#ACD46F" d="M178.614,196.355c1.015,2.771-0.282,5.483-0.683,8.137
			c-1.838,12.173-0.668,23.938,4.49,35.153c1.939,4.217,2.031,7.708-1.271,11.419c-3.219,3.617-5.027,8.225-6.959,12.65
			c-1.503,3.443-3.268,3.841-5.865,1.058c-9.967-10.68-20.577-20.795-27.155-34.228c-1.652-3.373-2.328-5.075,1.888-6.603
			c13.643-4.943,23.131-15.335,32.712-25.555C176.515,197.594,176.8,196.198,178.614,196.355z M172.326,241.189
			c-0.105-6.207-4.897-11.024-10.562-11.025c-4.171-0.001-6.761,2.528-6.574,6.422c0.231,4.843,6.301,10.332,11.275,10.24
			C170.452,246.753,172.004,244.375,172.326,241.189z"/>
		<path fill-rule="evenodd" clip-rule="evenodd" fill="#2781C0" d="M54.14,142.494c-0.604,0.81-1.157,1.629-1.786,2.386
			C39.556,160.259,32,177.839,30.09,197.797c-0.158,1.654-0.071,3.396-0.583,4.937c-0.584,1.757,0.767,5.207-2.722,4.783
			c-3.018-0.366-6.487-0.357-7.021-5.27c-1.803-16.577-5.325-32.816-11.727-48.287c-1.398-3.379,0.2-4.484,2.777-5.51
			c10.025-3.987,20.033-8.02,30.07-11.977c2.1-0.827,11.256,2.607,12.624,4.611C53.773,141.473,53.902,141.952,54.14,142.494z
			 M26.891,149.403c-4.226-0.026-8.877,4.754-8.867,9.111c0.009,3.887,2.704,6.557,6.563,6.503c4.559-0.062,8.378-3.974,8.462-8.663
			C33.121,152.387,30.499,149.427,26.891,149.403z"/>
		<path fill-rule="evenodd" clip-rule="evenodd" fill="#2781C0" d="M4.955,124.613c0-1.164,0.211-2.374-0.032-3.484
			c-2.626-11.961,3.129-21.115,9.8-30.053c1.641-2.198,2.78-2.8,5.079-0.757c4.547,4.041,8.212,8.482,10.311,14.371
			c2.788,7.821,6.093,15.465,9.382,23.097c1.281,2.973,1.199,4.718-2.21,6.082c-8.792,3.519-17.47,7.326-26.16,11.095
			c-3.603,1.562-5.542,1.136-5.549-3.404c-0.008-5.647-0.442-11.294-0.691-16.941C4.908,124.617,4.932,124.615,4.955,124.613z
			 M14.091,134.614c2.385-0.363,4.092-1.746,4.244-4.132c0.147-2.306-1.583-3.766-3.752-3.862c-2.459-0.11-4.202,1.433-4.215,3.937
			C10.356,132.729,11.743,134.216,14.091,134.614z"/>
		<path fill-rule="evenodd" clip-rule="evenodd" fill="#FDB05A" d="M289.699,128.226c-1.016,11.567-3.985,21.056-14.996,25.742
			c-1.814,0.772-3.124,0.569-4.551-0.573c-7.254-5.813-14.487-11.651-21.809-17.378c-2.785-2.179-2.277-3.829,0.154-5.896
			c9.51-8.082,18.209-17.014,26.691-26.147c2.239-2.411,3.631-3.229,5.118,0.591c2.712,6.966,5.69,13.827,8.512,20.751
			C289.315,126.532,289.586,127.841,289.699,128.226z M279.061,117.166c-0.139-2.517-0.688-4.977-4.062-5.003
			c-3.406-0.026-4.818,2.267-4.651,5.228c0.16,2.854,1.704,5.25,4.938,5.271C278.749,122.684,278.969,119.956,279.061,117.166z"/>
		<path fill-rule="evenodd" clip-rule="evenodd" fill="#2780BF" d="M32.954,204.784c0.819-9.038,2.253-17.86,4.967-26.465
			c0.785-2.487,1.943-3.552,4.665-3.061c8.657,1.562,17.325,3.087,26.028,4.363c2.842,0.417,4.14,1.954,5.588,4.191
			c5.224,8.069,6.161,15.988,0.777,24.433c-2.03,3.185-3.297,6.886-4.688,10.439c-1.019,2.605-2.218,3.716-5.193,2.504
			c-9.835-4.006-19.517-8.445-29.837-11.16C32.221,209.229,33.171,206.729,32.954,204.784z M56.87,204.056
			c9.841,0.039,15.255-6.38,11.599-13.825c-2.175-4.429-6.323-5.608-10.753-5.943c-6.592-0.498-13.267,4.436-13.501,9.791
			C43.982,199.363,49.899,204.027,56.87,204.056z"/>
		<path fill-rule="evenodd" clip-rule="evenodd" fill="#2780BF" d="M87.062,135.635c-3.65-0.783-6.24-1.415-8.859-1.88
			c-2.53-0.449-3.613-2.043-4.037-4.4c-1.266-7.041-2.532-14.083-3.903-21.104c-0.479-2.454,0.258-4.032,2.343-5.452
			c10.589-7.212,21.188-14.418,31.573-21.916c3.296-2.38,4.516-1.396,6.447,1.584c2.587,3.991,2.524,7.188,0.154,11.388
			c-7.111,12.606-13.691,25.512-20.509,38.285C89.371,133.827,88.827,136.123,87.062,135.635z M89.889,122.394
			c-0.412-3.39-1.877-6.227-5.675-6.176c-3.261,0.044-4.869,2.474-4.97,5.69c-0.116,3.724,2.579,7.089,5.657,6.834
			C88.628,128.435,89.611,125.681,89.889,122.394z"/>
		<path fill-rule="evenodd" clip-rule="evenodd" fill="#ADD46D" d="M231.733,42.163c5.333-1.688,8.423,1.682,11.76,5.559
			c7.843,9.112,7.956,8.92-1.285,17.113c-6.817,6.044-14.698,10.174-23.13,13.385c-2.107,0.803-4.31,1.407-5.764-0.989
			c-5.357-8.819-10.711-17.614-10.502-28.548c0.072-3.755,1.373-5.429,5.208-5.521C215.817,42.972,223.607,42.521,231.733,42.163z
			 M220.865,46.063c-2.09,0.536-4.743,0.807-4.736,4.22c0.008,3.431,2.346,4.662,5.203,4.637c2.768-0.023,5.815-1.382,5.609-4.315
			C226.768,48.134,224.235,46.227,220.865,46.063z"/>
		<path fill-rule="evenodd" clip-rule="evenodd" fill="#FCAF5A" d="M246.08,246.461c-0.594,3.945-1.243,7.883-1.76,11.839
			c-0.29,2.224-1.809,3.027-3.639,3.573c-10.365,3.092-20.716,6.233-31.109,9.23c-4.644,1.339-9.049-2.61-8.031-7.346
			c3.175-14.77,10.14-27.354,21.854-37.167c2.173-1.819,3.735-1.546,5.543,0.305c5.234,5.357,10.521,10.665,15.777,16.001
			C245.684,243.879,246.339,245.012,246.08,246.461z M231.964,242.396c0.099-4.639-2.429-8.019-6.149-8.225
			c-3.686-0.203-7.441,3.597-7.59,7.679c-0.152,4.147,3.499,9.2,6.746,9.337C228.803,251.349,231.854,247.514,231.964,242.396z"/>
		<path fill-rule="evenodd" clip-rule="evenodd" fill="#2780BF" d="M107.767,270.977c0.091,10.038-0.208,10.344-7.148,8.706
			c-12.94-3.053-24.852-8.358-35.456-16.465c-1.613-1.233-3.244-2.229-1.799-4.803c4.482-7.988,9.008-15.883,15.797-22.271
			c2.506-2.358,4.615-2.517,7.529-0.981C102.265,243.367,106.761,257.562,107.767,270.977z M95.844,254.387
			c0.073-4.311-5.588-9.832-10.254-10.001c-3.875-0.142-6.598,2.48-6.68,6.433c-0.11,5.365,3.841,9.473,9.316,9.684
			C92.574,260.67,95.782,258.095,95.844,254.387z"/>
		<path fill-rule="evenodd" clip-rule="evenodd" fill="#75B8DA" d="M106.583,202.094c-7.14-2.233-14.32-4.348-21.397-6.765
			c-2.434-0.832-8.542-13.057-8.139-15.558c0.326-2.023,1.991-3.021,3.501-4.012c4.865-3.194,9.847-6.216,14.658-9.487
			c2.053-1.396,3.892-1.574,6.017-0.408c7.287,4,14.576,7.993,21.897,11.93c3.41,1.833,3.394,3.797,0.939,6.622
			c-4.136,4.76-7.948,9.801-11.953,14.676C110.725,200.774,109.229,202.429,106.583,202.094z M108.682,191.944
			c-0.751-3.065-2.67-5.208-6.058-5.333c-2.997-0.111-5.356,1.5-5.28,4.659c0.082,3.374,2.304,5.513,5.758,5.645
			C106.195,197.032,107.862,195.052,108.682,191.944z"/>
		<path fill-rule="evenodd" clip-rule="evenodd" fill="#FCAF5A" d="M220.658,85.623c5.791,1.295,10.469,2.493,15.207,3.368
			c10.293,1.9,20.562,1.275,30.748-0.844c3.387-0.704,5.898-0.673,7.705,3.124c1.705,3.58,2.053,6.109-0.959,9.312
			c-8.561,9.105-17.32,17.979-26.626,26.325c-2.354,2.111-3.954,2.59-5.702-0.697c-6.641-12.495-13.449-24.899-20.152-37.362
			C220.222,87.626,218.643,85.883,220.658,85.623z M249.043,97.111c-6.643,0.042-12.939,4.32-12.729,8.647
			c0.193,3.96,6.182,9.18,10.443,9.102c5.344-0.098,11.252-5.733,11.223-10.709C257.955,99.684,254.644,97.075,249.043,97.111z"/>
		<path fill-rule="evenodd" clip-rule="evenodd" fill="#2780BF" d="M23.367,211.08c3.481-0.05,6.747,1.247,10.034,2.195
			c14.446,4.168,27.978,10.646,41.712,16.618c2.593,1.128,2.979,2.179,0.84,4.191c-6.389,6.015-10.877,13.421-15.02,21.045
			c-1.042,1.92-1.964,3.153-4.02,1.108c-13.285-13.218-24.625-27.911-33.699-44.328C23.157,211.803,23.266,211.604,23.367,211.08z
			 M55.878,241.951c2.998-0.329,4.905-1.611,4.937-4.694c0.036-3.406-3.438-6.415-7.11-6.187c-2.966,0.185-4.831,1.82-4.477,4.795
			C49.681,239.666,52.346,241.491,55.878,241.951z"/>
		<path fill-rule="evenodd" clip-rule="evenodd" fill="#2780BF" d="M46.413,96.268c5.258,0.002,9.059,3.781,13.712,5.338
			c5.564,1.863,6.722,6.127,7.362,11.184c0.729,5.766,1.852,11.489,3.006,17.19c0.48,2.371-0.254,3.618-2.289,4.818
			c-10.619,6.263-21.26,2.488-25.793-9.158c-3.015-7.743-6.041-15.493-9.427-23.076c-1.849-4.141-0.438-5.315,3.489-5.483
			C39.792,96.938,43.1,96.548,46.413,96.268z M47.953,102.012c-3.208,0.133-5.419,1.71-5.844,5.298
			c-0.583,4.92,4.247,11.937,9.098,12.948c3.452,0.72,6.367-0.252,7.564-3.913C60.626,110.673,54.202,102.06,47.953,102.012z"/>
		<path fill-rule="evenodd" clip-rule="evenodd" fill="#2780BF" d="M84.18,48.77c0.026,1.619-1.339,2.109-2.443,2.782
			c-8.093,4.93-16.206,9.827-24.289,14.773c-1.647,1.009-3.138,1.657-5.043,0.431c-4.193-2.698-8.458-5.288-12.747-7.835
			c-2.595-1.541-2.494-2.87-0.347-4.911c9.793-9.311,20.566-17.374,31.538-25.198c1.315-0.938,2.725-1.758,3.727,0.205
			c3.173,6.216,6.241,12.485,9.338,18.74C84.057,48.047,84.085,48.395,84.18,48.77z M64.896,52.136
			c4.267,0.023,8.676-3.415,8.363-6.934c-0.349-3.918-3.151-5.726-6.825-5.938c-3.98-0.23-8.298,3.77-7.965,7.349
			C58.819,50.37,61.205,52.099,64.896,52.136z"/>
		<path fill-rule="evenodd" clip-rule="evenodd" fill="#ACD46F" d="M107.989,213.446c1.155,10.214-7.127,14.438-12.522,20.406
			c-0.846,0.937-2.222,0.353-3.3-0.127c-5.77-2.566-11.514-5.189-17.303-7.712c-2.585-1.126-2.896-2.768-1.808-5.204
			c2.641-5.918,5.286-11.842,7.64-17.875c1.238-3.174,3.021-3.898,6.15-2.946c4.291,1.307,8.676,2.302,13.018,3.44
			C107.951,205.549,107.951,205.553,107.989,213.446z M96.047,210.141c-3.325,0.312-6.014,2.04-6.179,5.693
			c-0.14,3.105,2.233,4.889,5.273,4.729c3.645-0.192,5.908-2.713,6.194-6.103C101.59,211.442,99.09,210.317,96.047,210.141z"/>
		<path fill-rule="evenodd" clip-rule="evenodd" fill="#FCAF5A" d="M222.325,81.118c11.444-5.163,21.542-11.722,29.264-21.502
			c1.415-1.792,2.735-1.297,4.292-0.282c4.465,2.907,8.924,5.828,13.48,8.585c1.981,1.198,2.561,2.775,2.592,4.96
			c0.147,9.992-0.554,10.971-10.381,12.45C248.212,87.342,235.115,86.447,222.325,81.118z M259.252,70.026
			c-2.307,0.316-4.693,1.028-4.732,3.875c-0.04,2.841,1.963,4.583,4.744,4.621c2.814,0.038,4.713-1.709,4.854-4.551
			C264.271,70.854,261.664,70.552,259.252,70.026z"/>
		<path fill-rule="evenodd" clip-rule="evenodd" fill="#2780BF" d="M30.627,93.92c-4.299-0.919-7.073-5.1-10.345-8.471
			c-2.359-2.431,0.255-4.646,1.09-6.805c2.305-5.963,6.143-11.018,9.894-16.12c1.554-2.113,2.988-2.37,5.441-1.11
			c15.664,8.046,16.699,10.293,12.348,27.606c-0.533,2.12-1.552,3.196-3.627,3.407C40.793,92.898,36.159,93.362,30.627,93.92z
			 M43.236,82.739c-0.512-2.478-2.075-3.753-4.566-3.628c-2.153,0.107-4.169,1.042-4.139,3.445c0.035,2.812,2.19,4.074,4.759,4.02
			C41.527,86.528,42.856,85.026,43.236,82.739z"/>
		<path fill-rule="evenodd" clip-rule="evenodd" fill="#FCAF5A" d="M256.963,198.78c-0.074-7.045,0.671-13.936,3.284-20.575
			c1.282-3.26,2.921-3.619,5.558-1.48c3.75,3.042,7.557,6.017,11.412,8.922c2.123,1.599,2.933,3.268,1.834,5.969
			c-4.344,10.687-9.766,20.791-15.957,30.502c-0.517,0.812-0.895,2.006-2.076,1.836c-1.236-0.179-1.188-1.483-1.369-2.399
			C258.158,214.035,256.959,206.479,256.963,198.78z M270.461,190.752c-0.529-2.727-1.288-5.54-4.733-5.286
			c-2.799,0.206-4.498,2.377-4.413,5.159c0.097,3.152,2.033,5.619,5.195,5.614C269.556,196.234,270.158,193.371,270.461,190.752z"/>
		<path fill-rule="evenodd" clip-rule="evenodd" fill="#75B8DA" d="M195.244,288.146c-7.004-1.372-14-2.777-21.013-4.098
			c-2.357-0.444-3.021-1.693-2.359-3.905c2.86-9.576,6.27-18.886,12.167-27.119c1.818-2.538,2.769-1.989,4.24,0.289
			c4.217,6.533,7.842,13.428,12.955,19.418c3.768,4.416-0.934,8.333-1.904,12.445C198.884,287.064,197.588,288.421,195.244,288.146z
			 M192.637,271.526c0.082-4.603-3.152-9.178-6.217-8.868c-3.818,0.386-5.184,3.199-5.277,6.658
			c-0.107,3.934,2.93,8.172,5.922,8.068C190.984,277.249,192.194,274.376,192.637,271.526z"/>
		<path fill-rule="evenodd" clip-rule="evenodd" fill="#FCAF5A" d="M209.956,40.01c-7.003,2.633-11.197-3.368-15.964-8.199
			c-1.561-1.583-1.537-2.729,0.586-3.773c8.192-4.032,16.122-8.603,25.842-3.997c4.303,2.038,9.225,2.754,13.841,4.148
			c2.3,0.694,5.234,0.868,4.58,4.585c-0.573,3.256-1.278,6.061-5.655,6.13C225.873,39.019,218.568,39.574,209.956,40.01z
			 M221.643,31.243c-0.268-2.399-1.676-3.814-4.201-3.767c-2.342,0.044-3.664,1.519-3.729,3.785
			c-0.071,2.561,1.789,3.324,3.945,3.44C219.951,34.825,221.479,33.881,221.643,31.243z"/>
		<path fill-rule="evenodd" clip-rule="evenodd" fill="#FCAF5A" d="M285.193,161.604c0.02,5.708-0.971,11.286-2.115,16.84
			c-1.177,5.707-1.567,5.855-5.992,2.482c-3.047-2.323-5.96-4.849-9.152-6.951c-3.414-2.25-3.196-4.461-0.879-7.35
			c4.004-4.989,8.617-9.224,14.021-12.667c2.906-1.852,4.224-1.45,4.126,2.148C285.152,157.938,285.193,159.771,285.193,161.604z
			 M274.494,171.907c1.501-0.14,2.811-0.733,2.791-2.572c-0.018-1.702-1.098-2.756-2.764-2.783
			c-1.658-0.028-2.784,0.985-2.905,2.666C271.483,171.065,272.739,171.737,274.494,171.907z"/>
		<path fill-rule="evenodd" clip-rule="evenodd" fill="#74C540" d="M139.285,267.666c-3.63-0.16-7.14-3.552-6.788-6.424
			c0.375-3.062,2.47-4.901,5.403-4.612c3.458,0.341,6.541,2.159,6.626,6.087C144.601,266.105,141.911,267.327,139.285,267.666z"/>
		<path fill-rule="evenodd" clip-rule="evenodd" fill="#FE872D" d="M203.923,98.777c0.06-3.928,1.171-7.229,5.354-7.308
			c5.24-0.099,5.676,4.349,6.16,8.131c0.467,3.633-0.743,7.038-4.719,7.53c-3.959,0.489-5.826-2.54-6.6-6.117
			C203.944,100.209,203.97,99.361,203.923,98.777z"/>
		<path fill-rule="evenodd" clip-rule="evenodd" fill="#74C540" d="M196.504,73.377c-0.5,2.856-1.892,5.257-5.649,5.289
			c-4.529,0.039-9.772-5.684-9.569-10.404c0.172-3.977,2.82-4.986,6.117-4.923C191.942,63.426,196.625,68.484,196.504,73.377z"/>
		<path fill-rule="evenodd" clip-rule="evenodd" fill="#74C540" d="M125.949,126.216c-0.076,0.598-0.059,1.631-0.353,2.566
			c-1.184,3.782-2.889,7.484-7.296,7.938c-4.542,0.468-6.702-3.141-8.42-6.613c-1.363-2.754-1.388-5.884-0.747-8.819
			c0.814-3.726,3.428-6.167,7.102-6.911c4.17-0.845,6.308,2.241,8.266,5.204C125.734,121.447,125.935,123.628,125.949,126.216z"/>
		<path fill-rule="evenodd" clip-rule="evenodd" fill="#74C540" d="M181.338,168.888c-3.608-0.249-6.977-0.958-9.615-3.639
			c-1.843-1.872-3.327-3.916-1.992-6.642c1.352-2.759,3.677-4.469,6.793-4.186c2.622,0.238,5.32,0.771,7.748,1.759
			c3.113,1.266,6.475,3.235,5.601,7.204C188.957,167.544,185.16,168.582,181.338,168.888z"/>
		<path fill-rule="evenodd" clip-rule="evenodd" fill="#FE872D" d="M157.979,101.868c0.04-4.595,3.073-8.641,6.564-8.757
			c4.57-0.152,9.197,5.729,9.005,11.449c-0.136,4.062-3.24,7.309-6.849,7.162C161.882,111.527,157.933,107.065,157.979,101.868z"/>
		<path fill-rule="evenodd" clip-rule="evenodd" fill="#74C540" d="M126.417,65.275c-0.039-3.591,2.638-6.182,6.314-6.111
			c4.267,0.082,8.83,4.338,9.02,8.415c0.155,3.31-3.18,6.903-6.423,6.925C131.314,74.53,126.461,69.505,126.417,65.275z"/>
		<path fill-rule="evenodd" clip-rule="evenodd" fill="#74C540" d="M228.296,193.238c4.838,0.755,10.146,3.134,13.184,8.914
			c2.63,5.001-0.063,10.217-5.597,11.335c-7.805,1.576-16.85-6.143-16.48-14.063C219.581,195.615,222.523,193.192,228.296,193.238z"
			/>
		<path fill-rule="evenodd" clip-rule="evenodd" fill="#07349D" d="M162.474,24.079c0.089,3.475-3.921,7.365-7.263,7.227
			c-3.059-0.127-4.928-1.861-5.215-4.906c-0.285-3.033,3.848-6.936,7.246-6.857C160.334,19.613,161.978,21.473,162.474,24.079z"/>
		<path fill-rule="evenodd" clip-rule="evenodd" fill="#07349D" d="M96.703,19.062c6.635-0.117,12.067,4.402,12.049,10.024
			c-0.016,4.708-3.832,8.627-8.49,8.72c-5.718,0.114-12.869-6-12.993-11.108C87.168,22.541,91.35,19.156,96.703,19.062z"/>
		<path fill-rule="evenodd" clip-rule="evenodd" fill="#FE872D" d="M220.528,167.372c-3.374-0.201-6.052-1.798-6.345-5.804
			c-0.256-3.509,3.215-6.449,7.277-6.491c4.086-0.042,7.28,2.591,7.17,5.908C228.527,164.063,224.578,167.322,220.528,167.372z"/>
		<path fill-rule="evenodd" clip-rule="evenodd" fill="#228DCB" d="M144.98,203.56c-0.002,5.004-5.706,9.54-11.919,9.48
			c-4.2-0.041-7.798-3.126-7.863-6.741c-0.085-4.801,6.86-9.94,13.233-9.792C142.61,196.604,144.983,199.159,144.98,203.56z"/>
		<path fill-rule="evenodd" clip-rule="evenodd" fill="#74C540" d="M198.564,231.593c-0.215,2.679-1.344,4.982-4.094,4.637
			c-2.982-0.374-4.959-2.695-5.014-5.852c-0.051-2.818,1.53-4.928,4.486-4.803C197.608,225.73,197.85,228.988,198.564,231.593z"/>
		<path fill-rule="evenodd" clip-rule="evenodd" fill="#07349D" d="M78.034,70.999c2.868,0.259,5.37,1.623,5.484,5.316
			c0.098,3.163-4.389,6.562-8.294,6.392c-2.838-0.124-5.367-1.022-5.706-4.35C69.172,74.966,73.603,71.031,78.034,70.999z"/>
		<path fill-rule="evenodd" clip-rule="evenodd" fill="#07349D" d="M80.584,146.344c-0.758,2.328-2.059,4.079-4.568,3.987
			c-2.391-0.089-4.412-1.564-4.204-3.994c0.217-2.532,2.274-4.072,4.962-3.88C79.062,142.621,80.207,144.209,80.584,146.344z"/>
		<path fill-rule="evenodd" clip-rule="evenodd" fill="#74C540" d="M172.326,241.189c-0.322,3.186-1.874,5.563-5.861,5.637
			c-4.975,0.092-11.044-5.397-11.275-10.24c-0.187-3.894,2.403-6.423,6.574-6.422C167.429,230.165,172.221,234.982,172.326,241.189z
			"/>
		<path fill-rule="evenodd" clip-rule="evenodd" fill="#07349D" d="M26.891,149.403c3.607,0.023,6.229,2.983,6.159,6.951
			c-0.084,4.689-3.903,8.601-8.462,8.663c-3.86,0.054-6.554-2.616-6.563-6.503C18.014,154.157,22.666,149.377,26.891,149.403z"/>
		<path fill-rule="evenodd" clip-rule="evenodd" fill="#07349D" d="M14.091,134.614c-2.348-0.398-3.735-1.885-3.724-4.058
			c0.014-2.504,1.756-4.047,4.215-3.937c2.17,0.097,3.899,1.557,3.752,3.862C18.183,132.868,16.476,134.251,14.091,134.614z"/>
		<path fill-rule="evenodd" clip-rule="evenodd" fill="#FE872D" d="M279.061,117.166c-0.092,2.79-0.312,5.518-3.775,5.495
			c-3.233-0.021-4.777-2.416-4.938-5.271c-0.167-2.961,1.245-5.254,4.651-5.228C278.373,112.189,278.922,114.649,279.061,117.166z"
			/>
		<path fill-rule="evenodd" clip-rule="evenodd" fill="#07349D" d="M56.87,204.056c-6.971-0.028-12.888-4.692-12.656-9.978
			c0.234-5.355,6.91-10.289,13.501-9.791c4.431,0.335,8.579,1.515,10.753,5.943C72.125,197.676,66.711,204.095,56.87,204.056z"/>
		<path fill-rule="evenodd" clip-rule="evenodd" fill="#07349D" d="M89.889,122.394c-0.278,3.287-1.261,6.041-4.988,6.349
			c-3.078,0.255-5.773-3.11-5.657-6.834c0.101-3.217,1.709-5.646,4.97-5.69C88.012,116.167,89.477,119.004,89.889,122.394z"/>
		<path fill-rule="evenodd" clip-rule="evenodd" fill="#74C540" d="M220.865,46.063c3.37,0.163,5.902,2.07,6.076,4.541
			c0.206,2.934-2.842,4.292-5.609,4.315c-2.857,0.025-5.195-1.206-5.203-4.637C216.122,46.87,218.775,46.6,220.865,46.063z"/>
		<path fill-rule="evenodd" clip-rule="evenodd" fill="#FE872D" d="M231.964,242.396c-0.109,5.117-3.161,8.952-6.993,8.791
			c-3.247-0.137-6.898-5.189-6.746-9.337c0.148-4.082,3.904-7.882,7.59-7.679C229.535,234.378,232.062,237.758,231.964,242.396z"/>
		<path fill-rule="evenodd" clip-rule="evenodd" fill="#07349D" d="M95.844,254.387c-0.062,3.708-3.27,6.283-7.618,6.115
			c-5.475-0.211-9.426-4.318-9.316-9.684c0.082-3.952,2.804-6.574,6.68-6.433C90.256,244.555,95.917,250.076,95.844,254.387z"/>
		<path fill-rule="evenodd" clip-rule="evenodd" fill="#228DCB" d="M108.682,191.944c-0.82,3.107-2.486,5.088-5.58,4.971
			c-3.454-0.132-5.676-2.271-5.758-5.645c-0.076-3.159,2.283-4.771,5.28-4.659C106.012,186.736,107.931,188.879,108.682,191.944z"/>
		<path fill-rule="evenodd" clip-rule="evenodd" fill="#FE872D" d="M249.043,97.111c5.601-0.036,8.912,2.572,8.938,7.04
			c0.029,4.976-5.879,10.611-11.223,10.709c-4.262,0.078-10.25-5.142-10.443-9.102C236.104,101.432,242.4,97.153,249.043,97.111z"/>
		<path fill-rule="evenodd" clip-rule="evenodd" fill="#07349D" d="M55.878,241.951c-3.532-0.46-6.197-2.285-6.65-6.086
			c-0.354-2.975,1.511-4.61,4.477-4.795c3.672-0.229,7.146,2.78,7.11,6.187C60.783,240.34,58.876,241.622,55.878,241.951z"/>
		<path fill-rule="evenodd" clip-rule="evenodd" fill="#07349D" d="M47.953,102.012c6.249,0.048,12.673,8.661,10.818,14.333
			c-1.198,3.661-4.113,4.633-7.564,3.913c-4.852-1.012-9.682-8.028-9.098-12.948C42.534,103.722,44.745,102.145,47.953,102.012z"/>
		<path fill-rule="evenodd" clip-rule="evenodd" fill="#07349D" d="M64.896,52.136c-3.691-0.037-6.077-1.766-6.427-5.523
			c-0.333-3.579,3.985-7.579,7.965-7.349c3.674,0.213,6.477,2.021,6.825,5.938C73.572,48.721,69.163,52.159,64.896,52.136z"/>
		<path fill-rule="evenodd" clip-rule="evenodd" fill="#74C540" d="M96.047,210.141c3.043,0.177,5.543,1.302,5.288,4.319
			c-0.286,3.39-2.549,5.91-6.194,6.103c-3.041,0.16-5.414-1.623-5.273-4.729C90.033,212.181,92.722,210.453,96.047,210.141z"/>
		<path fill-rule="evenodd" clip-rule="evenodd" fill="#FE872D" d="M259.252,70.026c2.412,0.525,5.02,0.828,4.865,3.945
			c-0.141,2.842-2.039,4.589-4.854,4.551c-2.781-0.038-4.784-1.78-4.744-4.621C254.559,71.055,256.945,70.343,259.252,70.026z"/>
		<path fill-rule="evenodd" clip-rule="evenodd" fill="#07349D" d="M43.236,82.739c-0.38,2.287-1.709,3.789-3.945,3.837
			c-2.569,0.055-4.725-1.207-4.759-4.02c-0.03-2.403,1.985-3.338,4.139-3.445C41.162,78.986,42.724,80.262,43.236,82.739z"/>
		<path fill-rule="evenodd" clip-rule="evenodd" fill="#FE872D" d="M270.461,190.752c-0.303,2.619-0.905,5.482-3.951,5.487
			c-3.162,0.005-5.099-2.462-5.195-5.614c-0.085-2.782,1.614-4.953,4.413-5.159C269.173,185.212,269.932,188.025,270.461,190.752z"
			/>
		<path fill-rule="evenodd" clip-rule="evenodd" fill="#228DCB" d="M192.637,271.526c-0.442,2.85-1.652,5.723-5.572,5.858
			c-2.992,0.104-6.029-4.135-5.922-8.068c0.094-3.459,1.459-6.272,5.277-6.658C189.484,262.349,192.719,266.924,192.637,271.526z"/>
		<path fill-rule="evenodd" clip-rule="evenodd" fill="#FE872D" d="M221.643,31.243c-0.163,2.638-1.691,3.582-3.984,3.459
			c-2.156-0.116-4.017-0.88-3.945-3.44c0.064-2.267,1.387-3.741,3.729-3.785C219.967,27.429,221.375,28.844,221.643,31.243z"/>
		<path fill-rule="evenodd" clip-rule="evenodd" fill="#FE872D" d="M274.494,171.907c-1.755-0.17-3.011-0.842-2.878-2.689
			c0.121-1.681,1.247-2.694,2.905-2.666c1.666,0.027,2.746,1.081,2.764,2.783C277.305,171.174,275.995,171.768,274.494,171.907z"/>
	</g>
</g>
</svg>
