<?xml version="1.0" encoding="UTF-8" standalone="no"?>
<svg
   xmlns:dc="http://purl.org/dc/elements/1.1/"
   xmlns:cc="http://creativecommons.org/ns#"
   xmlns:rdf="http://www.w3.org/1999/02/22-rdf-syntax-ns#"
   xmlns:svg="http://www.w3.org/2000/svg"
   xmlns="http://www.w3.org/2000/svg"
   viewBox="0 0 382.33334 83.760002"
   height="83.760002"
   width="382.33334"
   xml:space="preserve"
   id="svg2"
   version="1.1"><metadata
     id="metadata8"><rdf:RDF><cc:Work
         rdf:about=""><dc:format>image/svg+xml</dc:format><dc:type
           rdf:resource="http://purl.org/dc/dcmitype/StillImage" /></cc:Work></rdf:RDF></metadata><defs
     id="defs6" /><g
     transform="matrix(1.3333333,0,0,-1.3333333,0,83.76)"
     id="g10"><g
       transform="scale(0.1)"
       id="g12"><path
         id="path14"
         style="fill:#99d64b;fill-opacity:1;fill-rule:nonzero;stroke:none"
         d="M 119.828,297.305 C 181.547,196.113 299.242,155.371 404.75,219.746 447.758,245.957 479.125,283.789 497.055,326.23 480.531,264.727 440.453,208.398 380.531,171.875 260.199,98.4766 104.633,127.324 34.2813,242.676 -36.0508,358.047 5.43359,516.191 125.805,589.57 c 66.406,40.508 143.3,48.203 210.664,27.657 C 285.16,625.391 230.023,615.82 181.273,586.094 75.7656,521.758 58.1289,398.496 119.828,297.305" /><path
         id="path16"
         style="fill:#6947a7;fill-opacity:1;fill-rule:nonzero;stroke:none"
         d="m 393.422,463.398 c 48.926,-80.214 33.359,-182.011 -38.75,-226.015 -29.395,-17.93 -63.145,-23.653 -96.094,-18.77 45.059,-13.34 93.399,-9.082 134.375,15.879 82.266,50.156 119.16,174.414 63.36,265.899 -55.782,91.464 -183.145,115.488 -265.391,65.332 -45.449,-27.735 -72.285,-75.157 -77.852,-127.461 9.18,36.914 31.094,69.316 64.434,89.648 72.129,43.985 166.992,15.703 215.918,-64.512" /><path
         id="path18"
         style="fill:#6947a7;fill-opacity:1;fill-rule:nonzero;stroke:none"
         d="m 674.066,288.184 h 30.957 c 17.325,0 41.348,2.617 41.348,24.961 0,17.773 -12.793,24.023 -40.019,24.023 h -32.286 z m 0,74.921 h 30.684 c 22.422,0 33.613,8.633 33.613,21.368 0,14.668 -11.191,21.855 -36.543,21.855 h -27.754 z m -33.613,69.161 h 73.633 c 28.555,0 57.91,-11.758 57.91,-42.735 0,-19.218 -13.34,-31.953 -32.832,-37.226 v -0.489 c 23.75,-2.402 40.82,-19.199 40.82,-41.074 0,-36.992 -35.761,-48.515 -71.484,-48.515 h -68.047 v 170.039" /><path
         id="path20"
         style="fill:#6947a7;fill-opacity:1;fill-rule:nonzero;stroke:none"
         d="m 949.672,392.422 c -13.867,13.203 -26.68,16.797 -39.746,16.797 -38.965,0 -64.844,-26.914 -64.844,-60.762 0,-36.269 25.879,-63.164 64.844,-63.164 15.215,0 29.883,6.25 42.422,20.645 l 27.754,-17.754 c -17.11,-21.153 -42.696,-30.274 -70.45,-30.274 -58.164,0 -99.785,35.528 -99.785,88.613 0,54.512 41.621,90.079 99.785,90.079 25.606,0 47.5,-7.461 66.172,-26.914 l -26.152,-17.266" /><path
         id="path22"
         style="fill:#6947a7;fill-opacity:1;fill-rule:nonzero;stroke:none"
         d="m 1202.06,288.887 c -17.88,-22.09 -42.43,-30.977 -70.16,-30.977 -57.62,0 -97.66,37.461 -97.66,89.336 0,51.895 40.04,89.356 97.66,89.356 25.62,0 48.55,-7.696 65.1,-26.661 l -14.4,-10.8 c -11.74,15.839 -31.76,23.047 -50.7,23.047 -49.38,0 -80.04,-32.657 -80.04,-74.942 0,-42.266 30.66,-74.941 80.04,-74.941 18.94,0 42.42,8.183 55.76,26.445 l 14.4,-9.863" /><path
         id="path24"
         style="fill:#6947a7;fill-opacity:1;fill-rule:nonzero;stroke:none"
         d="m 1307.19,414.98 -44.02,-93.183 h 86.7 z m -8.26,17.286 h 18.14 l 79.52,-170.039 h -19.77 l -20.55,45.156 h -100.04 l -21.34,-45.156 h -18.4 l 82.44,170.039" /><path
         id="path26"
         style="fill:#6947a7;fill-opacity:1;fill-rule:nonzero;stroke:none"
         d="m 1430.45,432.266 h 22.7 l 114.98,-148.887 h 0.53 v 148.887 h 17.61 V 262.227 h -22.69 L 1448.6,411.152 h -0.53 V 262.227 h -17.62 v 170.039" /><path
         id="path28"
         style="fill:#6947a7;fill-opacity:1;fill-rule:nonzero;stroke:none"
         d="m 1800.24,288.887 c -17.89,-22.09 -42.42,-30.977 -70.18,-30.977 -57.61,0 -97.65,37.461 -97.65,89.336 0,51.895 40.04,89.356 97.65,89.356 25.63,0 48.56,-7.696 65.1,-26.661 l -14.39,-10.8 c -11.74,15.839 -31.76,23.047 -50.71,23.047 -49.35,0 -80.04,-32.657 -80.04,-74.942 0,-42.266 30.69,-74.941 80.04,-74.941 18.95,0 42.42,8.183 55.76,26.445 l 14.42,-9.863" /><path
         id="path30"
         style="fill:#6947a7;fill-opacity:1;fill-rule:nonzero;stroke:none"
         d="m 1839.18,432.266 h 115.53 v -14.395 h -97.91 v -60.527 h 91.78 V 342.93 h -91.78 v -66.289 h 102.19 v -14.414 h -119.81 v 170.039" /><path
         id="path32"
         style="fill:#6947a7;fill-opacity:1;fill-rule:nonzero;stroke:none"
         d="m 2021.68,357.344 h 37.37 c 37.09,0 44.27,18.476 44.27,30.254 0,11.777 -7.18,30.273 -44.27,30.273 h -37.37 z m -17.59,74.922 h 49.63 c 14.94,0 67.22,0 67.22,-44.668 0,-32.422 -27.48,-41.309 -48.3,-43.711 l 54.98,-81.66 h -20.02 l -53.08,80.703 h -32.84 v -80.703 h -17.59 v 170.039" /><path
         id="path34"
         style="fill:#6947a7;fill-opacity:1;fill-rule:nonzero;stroke:none"
         d="m 1041.98,174.355 h 121.91 v -27.382 h -88.32 v -44.668 h 83.26 V 74.9414 h -83.26 V 4.31641 h -33.59 V 174.355" /><path
         id="path36"
         style="fill:#6947a7;fill-opacity:1;fill-rule:nonzero;stroke:none"
         d="m 1291.7,27.3828 c 39.22,0 65.12,26.875 65.12,63.1641 0,33.8481 -25.9,60.7621 -65.12,60.7621 -38.94,0 -64.84,-26.914 -64.84,-60.7621 0,-36.2891 25.9,-63.1641 64.84,-63.1641 z m -0.25,151.2892 c 58.96,0.976 100.57,-34.57 100.57,-89.1017 0,-53.0664 -41.61,-88.613269 -100.57,-89.5703 -58.18,0 -99.8,35.5273 -99.8,88.6133 0,54.5117 41.62,90.0587 99.8,90.0587" /><path
         id="path38"
         style="fill:#6947a7;fill-opacity:1;fill-rule:nonzero;stroke:none"
         d="M 1581.98,66.7578 C 1581.98,25.6836 1549.18,0 1505.94,0 c -43.22,0 -76.01,25.6836 -76.01,66.7578 V 174.355 h 33.61 V 67.7148 c 0,-16.7968 10.14,-38.9062 42.4,-38.9062 32.29,0 42.44,22.1094 42.44,38.9062 V 174.355 h 33.6 V 66.7578" /><path
         id="path40"
         style="fill:#6947a7;fill-opacity:1;fill-rule:nonzero;stroke:none"
         d="m 1630,174.355 h 44.57 l 91.51,-126.3277 0.53,-0.4882 h -0.53 l 0.53,0.4882 V 174.355 h 33.63 V 4.31641 h -42.7 L 1664.16,134.727 h -0.52 V 4.31641 H 1630 V 174.355" /><path
         id="path42"
         style="fill:#6947a7;fill-opacity:1;fill-rule:nonzero;stroke:none"
         d="m 1907.76,31.6992 c 42.15,0 76.58,16.3281 76.58,57.6367 0,41.3091 -29.9,57.6371 -70.98,57.6371 h -30.68 V 31.6992 Z m -58.71,142.6558 h 74.45 c 49.63,0 96.06,-27.382 96.06,-85.0191 0,-58.125 -54.71,-85.01949 -100.06,-85.01949 h -70.45 V 174.355" /><path
         id="path44"
         style="fill:#6947a7;fill-opacity:1;fill-rule:nonzero;stroke:none"
         d="M 2156.68,69.1602 2127.6,138.32 2097.99,69.1602 Z m -42.67,105.1948 h 29.06 L 2224.44,4.31641 h -38.4 l -17.62,38.90629 h -81.91 L 2069.44,4.31641 h -37.62 l 82.19,170.03859" /><path
         id="path46"
         style="fill:#6947a7;fill-opacity:1;fill-rule:nonzero;stroke:none"
         d="m 2266.39,146.973 h -57.89 v 27.382 h 149.41 v -27.382 h -57.89 V 4.31641 h -33.63 V 146.973" /><path
         id="path48"
         style="fill:#6947a7;fill-opacity:1;fill-rule:nonzero;stroke:none"
         d="m 2386.72,174.355 h 33.62 V 4.31641 h -33.62 V 174.355" /><path
         id="path50"
         style="fill:#6947a7;fill-opacity:1;fill-rule:nonzero;stroke:none"
         d="m 2558.29,27.3828 c 39.2,0 65.09,26.875 65.09,63.1641 0,33.8481 -25.89,60.7621 -65.09,60.7621 -38.97,0 -64.85,-26.914 -64.85,-60.7621 0,-36.2891 25.88,-63.1641 64.85,-63.1641 z m -0.3,151.2892 c 58.99,0.976 100.63,-34.57 100.63,-89.1017 0,-53.0664 -41.64,-88.613269 -100.63,-89.5703 -58.14,0 -99.76,35.5273 -99.76,88.6133 0,54.5117 41.62,90.0587 99.76,90.0587" /><path
         id="path52"
         style="fill:#6947a7;fill-opacity:1;fill-rule:nonzero;stroke:none"
         d="m 2697.29,174.355 h 44.53 l 91.53,-126.3277 0.51,-0.4882 h -0.51 l 0.51,0.4882 V 174.355 h 33.63 V 4.31641 h -42.67 L 2731.43,134.727 h -0.55 V 4.31641 h -33.59 V 174.355" /></g></g></svg>