<?xml version="1.0" encoding="utf-8"?>
<!-- Generator: Adobe Illustrator 15.1.0, SVG Export Plug-In . SVG Version: 6.00 Build 0)  -->
<!DOCTYPE svg PUBLIC "-//W3C//DTD SVG 1.1//EN" "http://www.w3.org/Graphics/SVG/1.1/DTD/svg11.dtd">
<svg version="1.1" id="Layer_1" xmlns="http://www.w3.org/2000/svg" xmlns:xlink="http://www.w3.org/1999/xlink" x="0px" y="0px"
	 width="205px" height="47.573px" viewBox="0 0 205 47.573" enable-background="new 0 0 205 47.573" xml:space="preserve">
<g>
	<rect x="0.575" y="1.597" fill="none" width="204.425" height="42.488"/>
	<linearGradient id="SVGID_1_" gradientUnits="userSpaceOnUse" x1="45.0327" y1="11.4165" x2="67.8167" y2="11.4165">
		<stop  offset="0" style="stop-color:#ED1C24"/>
		<stop  offset="0.1115" style="stop-color:#E41B22"/>
		<stop  offset="0.2974" style="stop-color:#CA161D"/>
		<stop  offset="0.5347" style="stop-color:#A01014"/>
		<stop  offset="0.8111" style="stop-color:#670709"/>
		<stop  offset="1" style="stop-color:#3C0000"/>
	</linearGradient>
	<path fill="url(#SVGID_1_)" d="M64.48,3.347c-2.156-2.155-5.022-3.343-8.07-3.343c-3.048,0-5.915,1.188-8.07,3.343
		c-2.156,2.155-3.343,5.021-3.343,8.07c0,3.048,1.187,5.915,3.342,8.069c2.155,2.156,5.021,3.343,8.07,3.343
		c3.048,0,5.914-1.187,8.07-3.343c2.156-2.155,3.343-5.021,3.343-8.069C67.823,8.368,66.636,5.502,64.48,3.347z M61.096,14.831
		c-1.033,1.033-2.406,1.602-3.867,1.602c-1.461,0-2.834-0.568-3.867-1.602c-1.033-1.032-1.602-2.406-1.602-3.867
		c0-1.46,0.569-2.833,1.602-3.866c1.033-1.033,2.406-1.602,3.867-1.602c1.461,0,2.834,0.569,3.867,1.601
		c0.369,0.369,0.669,0.78,0.911,1.215c0.744,1.762,0.701,3.774-0.121,5.51C61.666,14.18,61.406,14.521,61.096,14.831z M57.229,5.178
		c-1.545,0-2.999,0.602-4.091,1.695c-1.092,1.092-1.694,2.545-1.694,4.09c0,1.546,0.602,2.999,1.695,4.091
		c1.093,1.093,2.546,1.695,4.091,1.695c1.233,0,2.403-0.388,3.382-1.098c-0.014,0.014-0.025,0.029-0.039,0.043
		c-1.271,1.271-2.961,1.971-4.759,1.971s-3.488-0.7-4.759-1.971c-1.271-1.271-1.972-2.962-1.972-4.759
		c0-1.798,0.7-3.488,1.972-4.759c1.271-1.271,2.961-1.971,4.759-1.971c1.798,0,3.488,0.7,4.759,1.971
		c0.068,0.069,0.128,0.143,0.193,0.213C59.757,5.607,58.527,5.178,57.229,5.178z M50.605,16.145
		c1.391,1.391,3.241,2.157,5.208,2.157s3.817-0.766,5.208-2.157c2.872-2.873,2.872-7.545,0-10.417
		c-0.381-0.382-0.798-0.714-1.242-0.999c0.918,0.408,1.765,0.985,2.497,1.717c3.235,3.234,3.235,8.497,0.001,11.732
		c-1.567,1.566-3.65,2.429-5.866,2.429c-2.216,0-4.299-0.863-5.866-2.429c-2.312-2.313-2.971-5.663-1.977-8.566
		c-0.078,0.433-0.12,0.875-0.12,1.324C48.448,12.903,49.214,14.753,50.605,16.145z M63.583,18.589
		c-1.806,1.807-4.175,2.847-6.711,2.959c2.297-0.112,4.44-1.06,6.078-2.697c3.605-3.606,3.605-9.473,0-13.079
		c-1.747-1.747-4.069-2.708-6.539-2.708s-4.792,0.962-6.54,2.708c-3.605,3.605-3.605,9.473,0,13.079
		c1.638,1.638,3.781,2.585,6.078,2.697c-2.536-0.112-4.904-1.152-6.711-2.959c-1.916-1.916-2.971-4.463-2.971-7.172
		c0-2.71,1.055-5.257,2.971-7.172c1.916-1.916,4.463-2.971,7.172-2.971c2.709,0,5.256,1.055,7.172,2.971
		c1.916,1.916,2.971,4.462,2.971,7.172C66.554,14.125,65.499,16.673,63.583,18.589z"/>
	
		<linearGradient id="SVGID_2_" gradientUnits="userSpaceOnUse" x1="310.6792" y1="-615.5366" x2="333.467" y2="-615.5366" gradientTransform="matrix(-0.7071 0.7071 -0.7071 -0.7071 -151.5192 -651.5603)">
		<stop  offset="0" style="stop-color:#ED1C24"/>
		<stop  offset="0.1115" style="stop-color:#E41B22"/>
		<stop  offset="0.2974" style="stop-color:#CA161D"/>
		<stop  offset="0.5347" style="stop-color:#A01014"/>
		<stop  offset="0.8111" style="stop-color:#670709"/>
		<stop  offset="1" style="stop-color:#3C0000"/>
	</linearGradient>
	<path fill="url(#SVGID_2_)" d="M56,22.826c3.048-0.003,5.914-1.192,8.071-3.345c2.156-2.155,3.34-5.021,3.342-8.069
		c0.001-3.049-1.187-5.915-3.343-8.071C61.915,1.185,59.05-0.002,56,0c-3.048-0.002-5.914,1.187-8.07,3.34
		c-2.154,2.157-3.342,5.022-3.346,8.071c0.004,3.049,1.191,5.913,3.342,8.072C50.085,21.636,52.952,22.821,56,22.826z M50.271,12.31
		c0.002-1.461,0.568-2.831,1.604-3.865c1.033-1.035,2.407-1.604,3.866-1.605c1.461,0.004,2.833,0.574,3.867,1.604
		c1.031,1.035,1.601,2.405,1.602,3.864c-0.002,1.462-0.57,2.836-1.604,3.868c-1.03,1.035-2.402,1.604-3.864,1.604
		c-0.522,0-1.024-0.079-1.504-0.217c-1.772-0.719-3.163-2.173-3.807-3.981C50.332,13.172,50.273,12.749,50.271,12.31z
		 M59.832,16.402c1.093-1.094,1.695-2.548,1.696-4.093c-0.001-1.546-0.602-2.997-1.697-4.088c-1.091-1.095-2.546-1.696-4.089-1.696
		c-1.547,0-3,0.598-4.093,1.694c-0.871,0.87-1.422,1.975-1.613,3.167c-0.001-0.019-0.003-0.038-0.002-0.058
		C50.03,9.532,50.73,7.841,52,6.568c1.272-1.271,2.963-1.966,4.76-1.969c1.801-0.003,3.491,0.7,4.764,1.969
		c1.268,1.273,1.967,2.963,1.968,4.761c0,1.798-0.702,3.488-1.97,4.759c-1.272,1.273-2.963,1.97-4.762,1.973
		c-0.094,0-0.188-0.012-0.287-0.014C57.742,17.887,58.917,17.321,59.832,16.402z M56.761,3.963
		c-1.966,0.003-3.815,0.763-5.207,2.158c-1.391,1.391-2.158,3.239-2.16,5.208c0.003,4.061,3.309,7.364,7.368,7.366
		c0.539,0,1.069-0.06,1.585-0.173c-0.938,0.362-1.945,0.554-2.98,0.554c-4.573-0.001-8.295-3.722-8.297-8.297
		c0.001-2.217,0.864-4.3,2.431-5.868c1.568-1.567,3.651-2.431,5.865-2.427c3.272,0,6.105,1.901,7.454,4.659
		c-0.251-0.362-0.532-0.704-0.851-1.022C60.58,4.732,58.729,3.965,56.761,3.963z M45.855,11.412c0.002-2.555,0.94-4.965,2.653-6.84
		c-1.542,1.707-2.389,3.891-2.389,6.207c0.002,5.098,4.147,9.25,9.247,9.248c2.471-0.003,4.793-0.962,6.544-2.709
		c1.742-1.747,2.705-4.07,2.705-6.539c-0.001-5.099-4.148-9.247-9.248-9.25c-2.317,0.001-4.502,0.846-6.207,2.391
		C51.034,2.206,53.445,1.268,56,1.264c2.709,0.006,5.254,1.062,7.174,2.975c1.914,1.918,2.969,4.462,2.97,7.173
		c0,2.709-1.056,5.258-2.969,7.171C61.257,20.5,58.71,21.557,56,21.555c-2.709,0.002-5.257-1.053-7.171-2.971
		C46.911,16.67,45.855,14.123,45.855,11.412z"/>
	<path fill="#414141" d="M19.583,12.77L12.222,1.596H7.7v19.718h4.522v-11.2l7.361,11.2h4.522V1.596H21.76
		c-1.202,0-2.177,0.974-2.177,2.177V12.77z"/>
	<path fill="#414141" d="M38.644,12.77L31.282,1.596H26.76v19.718h4.522v-11.2l7.362,11.2h4.522V1.596h-2.345
		c-1.202,0-2.177,0.974-2.177,2.177V12.77z"/>
	<path fill="#414141" d="M104.371,5.908v15.407h4.549V5.908h4.312V1.597H99.299v2.134c0,1.203,0.975,2.177,2.177,2.177H104.371z"/>
	<path fill="#414141" d="M119.593,21.314h-4.521V1.596h2.344c1.203,0,2.178,0.974,2.178,2.177V21.314z"/>
	<path fill="#414141" d="M0.575,3.773c0-1.203,0.975-2.177,2.178-2.177h2.344v19.718H0.575V3.773z"/>
	<path fill="#414141" d="M160.215,21.314h-4.521l-7.362-11.2v11.2h-4.521V1.596h4.521l7.362,11.173V1.596h2.345
		c1.202,0,2.177,0.974,2.177,2.177V21.314z"/>
	<path fill="#414141" d="M131.635,1.255c-5.704,0-10.306,4.627-10.306,10.305c0,5.706,4.602,10.307,10.306,10.307
		c5.68,0,10.307-4.601,10.307-10.307C141.942,5.882,137.315,1.255,131.635,1.255z M131.635,17.555c-3.154,0-5.783-2.629-5.783-5.995
		c0-3.338,2.629-5.994,5.783-5.994c3.155,0,5.759,2.655,5.759,5.994C137.394,14.926,134.791,17.555,131.635,17.555z"/>
	<path fill="#414141" d="M176.394,5.553c2.152,0,4.042,1.233,5.039,3.097l3.858-2.231c-1.759-3.097-5.091-5.169-8.897-5.169
		c-5.695,0-10.288,4.618-10.288,10.288c0,5.696,4.593,10.289,10.288,10.289c3.807,0,7.139-2.073,8.897-5.145l-3.858-2.257
		c-0.997,1.864-2.887,3.097-5.039,3.097c-3.148,0-5.773-2.624-5.773-5.983C170.621,8.203,173.246,5.553,176.394,5.553z"/>
	<path fill="#414141" d="M197.546,1.59h-4.725l-7.479,19.684h4.803l1.05-2.783h7.952l1.023,2.783H205L197.546,1.59z M192.795,14.213
		l2.388-6.325l2.363,6.325H192.795z"/>
	<circle fill="#414141" cx="164.282" cy="19.264" r="2.177"/>
	<path fill="#414141" d="M90.147,1.597l-7.493,19.717h4.811l1.052-2.786h7.965l1.025,2.786h4.837L94.879,1.597H90.147z
		 M90.12,14.242l2.393-6.336l2.366,6.336H90.12z"/>
	<polygon fill="#414141" points="82.138,1.597 76.881,15.215 71.569,1.597 66.758,1.597 74.514,21.314 79.247,21.314 86.976,1.597 	
		"/>
	<g>
		<polygon fill="#6E6E6E" points="49.703,39.595 50.959,39.595 50.959,44.085 52.285,44.085 52.285,39.595 53.542,39.595 
			53.542,38.338 49.703,38.338 		"/>
		<polygon fill="#6E6E6E" points="24.316,41.596 22.17,38.338 20.853,38.338 20.853,44.085 22.17,44.085 22.17,40.821 
			24.316,44.085 25.634,44.085 25.634,38.338 24.316,38.338 		"/>
		<path fill="#6E6E6E" d="M35.627,38.239c-1.663,0-3.004,1.348-3.004,3.003c0,1.664,1.341,3.004,3.004,3.004
			c1.655,0,3.004-1.34,3.004-3.004C38.631,39.587,37.282,38.239,35.627,38.239z M35.627,42.99c-0.919,0-1.686-0.767-1.686-1.748
			c0-0.973,0.767-1.746,1.686-1.746c0.919,0,1.678,0.773,1.678,1.746C37.306,42.224,36.546,42.99,35.627,42.99z"/>
		<rect x="18.328" y="38.338" fill="#6E6E6E" width="1.318" height="5.747"/>
		<path fill="#6E6E6E" d="M46.194,38.338l-2.184,5.747h1.403l0.307-0.812h2.321l0.299,0.812h1.41l-2.176-5.747H46.194z
			 M46.188,42.024l0.697-1.848l0.69,1.848H46.188z"/>
		<path fill="#6E6E6E" d="M155.28,35.54c1.111,0,2.085-0.605,2.599-1.502l-1.127-0.659c-0.291,0.544-0.843,0.903-1.472,0.903
			c-0.919,0-1.685-0.766-1.685-1.746c0-0.974,0.766-1.747,1.685-1.747c0.629,0,1.181,0.36,1.472,0.903l1.127-0.651
			c-0.514-0.903-1.487-1.509-2.599-1.509c-1.663,0-3.003,1.349-3.003,3.004C152.277,34.198,153.617,35.54,155.28,35.54z"/>
		<polygon fill="#6E6E6E" points="43.269,38.338 41.736,42.308 40.188,38.338 38.786,38.338 41.047,44.085 42.425,44.085 
			44.679,38.338 		"/>
		<path fill="#6E6E6E" d="M171.728,34.566h2.321l0.299,0.812h1.411l-2.177-5.747h-1.379l-2.185,5.747h1.402L171.728,34.566z
			 M172.892,31.472l0.69,1.847h-1.386L172.892,31.472z"/>
		<path fill="#6E6E6E" d="M19.452,34.566h2.322l0.299,0.813h1.41l-2.176-5.748h-1.379l-2.184,5.748h1.402L19.452,34.566z
			 M20.617,31.472l0.689,1.847h-1.387L20.617,31.472z"/>
		<polygon fill="#6E6E6E" points="30.317,41.596 28.172,38.338 26.854,38.338 26.854,44.085 28.172,44.085 28.172,40.821 
			30.317,44.085 31.635,44.085 31.635,38.338 30.317,38.338 		"/>
		<path fill="#6E6E6E" d="M159.872,34.566h2.322l0.299,0.812h1.409l-2.176-5.747h-1.38l-2.183,5.747h1.402L159.872,34.566z
			 M161.037,31.472l0.689,1.847h-1.388L161.037,31.472z"/>
		<path fill="#6E6E6E" d="M29.011,32.506c0-1.579-1.28-2.874-2.866-2.874h-1.993v5.748h1.993
			C27.73,35.38,29.011,34.092,29.011,32.506z M26.076,34.122H25.47v-3.233h0.605c0.896,0,1.617,0.728,1.617,1.617
			C27.692,33.402,26.972,34.122,26.076,34.122z"/>
		<path fill="#6E6E6E" d="M44.433,35.54c1.655,0,3.004-1.342,3.004-3.004c0-1.655-1.35-3.004-3.004-3.004
			c-1.663,0-3.003,1.349-3.003,3.004C41.429,34.198,42.77,35.54,44.433,35.54z M44.433,30.789c0.92,0,1.679,0.774,1.679,1.747
			c0,0.98-0.759,1.748-1.679,1.748c-0.918,0-1.685-0.768-1.685-1.748C42.748,31.563,43.514,30.789,44.433,30.789z"/>
		<polygon fill="#6E6E6E" points="0.575,44.085 1.894,44.085 1.894,41.841 3.908,41.841 3.908,40.592 1.894,40.592 1.894,39.595 
			4.108,39.595 4.108,38.338 0.575,38.338 		"/>
		<path fill="#6E6E6E" d="M65.052,32.506c0-1.579-1.28-2.874-2.866-2.874h-1.992v5.748h1.992
			C63.772,35.38,65.052,34.092,65.052,32.506z M61.512,34.122v-3.233h0.605c0.896,0,1.617,0.728,1.617,1.617
			c0,0.896-0.72,1.616-1.617,1.616H61.512z"/>
		<path fill="#6E6E6E" d="M7.747,38.239c-1.663,0-3.003,1.348-3.003,3.003c0,1.664,1.341,3.004,3.003,3.004
			c1.655,0,3.004-1.34,3.004-3.004C10.751,39.587,9.402,38.239,7.747,38.239z M7.747,42.99c-0.919,0-1.685-0.767-1.685-1.748
			c0-0.973,0.766-1.746,1.685-1.746c0.92,0,1.679,0.773,1.679,1.746C9.426,42.224,8.667,42.99,7.747,42.99z"/>
		<path fill="#6E6E6E" d="M3.004,35.54c1.111,0,2.083-0.605,2.598-1.502l-1.127-0.659c-0.291,0.544-0.843,0.905-1.471,0.905
			c-0.919,0-1.686-0.768-1.686-1.748c0-0.973,0.766-1.747,1.686-1.747c0.628,0,1.18,0.36,1.471,0.904l1.127-0.651
			c-0.515-0.904-1.487-1.51-2.598-1.51C1.341,29.532,0,30.881,0,32.536C0,34.198,1.341,35.54,3.004,35.54z"/>
		<path fill="#6E6E6E" d="M30.917,34.566h2.322l0.299,0.813h1.41l-2.177-5.748h-1.379l-2.184,5.748h1.402L30.917,34.566z
			 M32.081,31.472l0.689,1.847h-1.386L32.081,31.472z"/>
		<polygon fill="#6E6E6E" points="38.578,33.134 40.593,33.134 40.593,31.886 38.578,31.886 38.578,30.889 40.793,30.889 
			40.793,29.632 37.26,29.632 37.26,35.38 38.578,35.38 		"/>
		<polygon fill="#6E6E6E" points="146.194,32.115 148.339,35.379 149.657,35.379 149.657,29.632 148.339,29.632 148.339,32.889 
			146.194,29.632 144.875,29.632 144.875,35.379 146.194,35.379 		"/>
		<path fill="#6E6E6E" d="M50.681,35.502c1.281,0,2.314-1.034,2.314-2.307v-3.563h-1.318v3.563c0,0.599-0.467,1.058-0.997,1.058
			c-0.529,0-0.988-0.459-0.988-1.058v-3.563h-1.317v3.563C48.375,34.468,49.41,35.502,50.681,35.502z"/>
		<polygon fill="#6E6E6E" points="15.76,32.889 13.614,29.632 12.295,29.632 12.295,35.38 13.614,35.38 13.614,32.115 15.76,35.38 
			17.077,35.38 17.077,29.632 15.76,29.632 		"/>
		<path fill="#6E6E6E" d="M15.34,40.093c0-0.965-0.781-1.755-1.747-1.755H11.7v5.747h1.318v-1.616l1.28,1.616h1.64l-1.832-2.321
			C14.819,41.55,15.34,40.883,15.34,40.093z M13.593,40.592h-0.575v-0.997h0.575c0.237,0,0.429,0.184,0.429,0.498
			S13.831,40.592,13.593,40.592z"/>
		<path fill="#6E6E6E" d="M140.883,35.54c1.655,0,3.005-1.342,3.005-3.004c0-1.655-1.35-3.004-3.005-3.004
			c-1.663,0-3.004,1.349-3.004,3.004C137.879,34.198,139.22,35.54,140.883,35.54z M140.883,30.789c0.92,0,1.679,0.773,1.679,1.747
			c0,0.98-0.759,1.746-1.679,1.746c-0.919,0-1.686-0.766-1.686-1.746C139.198,31.562,139.964,30.789,140.883,30.789z"/>
		<rect x="135.573" y="29.632" fill="#6E6E6E" width="1.318" height="5.747"/>
		<polygon fill="#6E6E6E" points="104.365,33.134 106.381,33.134 106.381,31.885 104.365,31.885 104.365,30.889 106.58,30.889 
			106.58,29.632 103.048,29.632 103.048,35.379 104.365,35.379 		"/>
		<path fill="#6E6E6E" d="M8.07,29.632L5.887,35.38H7.29l0.306-0.813h2.322l0.299,0.813h1.41L9.45,29.632H8.07z M8.063,33.318
			l0.697-1.847l0.69,1.847H8.063z"/>
		<path fill="#6E6E6E" d="M110.378,38.239c-1.664,0-3.005,1.348-3.005,3.003c0,1.662,1.341,3.004,3.005,3.004
			c1.654,0,3.003-1.342,3.003-3.004C113.381,39.587,112.033,38.239,110.378,38.239z M110.378,42.989
			c-0.92,0-1.687-0.766-1.687-1.747c0-0.973,0.767-1.746,1.687-1.746c0.919,0,1.678,0.773,1.678,1.746
			C112.056,42.224,111.297,42.989,110.378,42.989z"/>
		<path fill="#6E6E6E" d="M148.692,38.239c-1.663,0-3.004,1.348-3.004,3.003c0,1.662,1.341,3.004,3.004,3.004
			c1.654,0,3.003-1.342,3.003-3.004C151.695,39.587,150.346,38.239,148.692,38.239z M148.692,42.989
			c-0.92,0-1.686-0.766-1.686-1.747c0-0.973,0.766-1.746,1.686-1.746c0.919,0,1.678,0.773,1.678,1.746
			C150.37,42.224,149.611,42.989,148.692,42.989z"/>
		<path fill="#6E6E6E" d="M159.258,38.338l-2.183,5.747h1.401l0.308-0.812h2.322l0.297,0.812h1.411l-2.177-5.747H159.258z
			 M159.251,42.024l0.698-1.848l0.688,1.848H159.251z"/>
		<polygon fill="#6E6E6E" points="156.333,38.338 154.8,42.308 153.251,38.338 151.85,38.338 154.111,44.085 155.49,44.085 
			157.743,38.338 		"/>
		<polygon fill="#6E6E6E" points="162.766,39.595 164.022,39.595 164.022,44.085 165.348,44.085 165.348,39.595 166.605,39.595 
			166.605,38.338 162.766,38.338 		"/>
		<polygon fill="#6E6E6E" points="134.76,29.632 130.92,29.632 130.92,30.889 132.178,30.889 132.178,35.379 133.503,35.379 
			133.503,30.889 134.76,30.889 		"/>
		<rect x="167.418" y="38.338" fill="#6E6E6E" width="1.318" height="5.747"/>
		<rect x="131.468" y="38.338" fill="#6E6E6E" width="1.319" height="5.747"/>
		<path fill="#6E6E6E" d="M127.414,29.632l-2.184,5.747h1.402l0.307-0.812h2.322l0.299,0.812h1.409l-2.176-5.747H127.414z
			 M127.407,33.318l0.697-1.847l0.689,1.847H127.407z"/>
		<polygon fill="#6E6E6E" points="143.458,41.595 141.313,38.338 139.995,38.338 139.995,44.085 141.313,44.085 141.313,40.82 
			143.458,44.085 144.777,44.085 144.777,38.338 143.458,38.338 		"/>
		<polygon fill="#6E6E6E" points="137.458,41.595 135.312,38.338 133.994,38.338 133.994,44.085 135.312,44.085 135.312,40.82 
			137.458,44.085 138.776,44.085 138.776,38.338 137.458,38.338 		"/>
		<polygon fill="#6E6E6E" points="198.886,32.889 196.741,29.632 195.424,29.632 195.424,35.379 196.741,35.379 196.741,32.115 
			198.886,35.379 200.205,35.379 200.205,29.632 198.886,29.632 		"/>
		<polygon fill="#6E6E6E" points="192.885,32.889 190.739,29.632 189.421,29.632 189.421,35.379 190.739,35.379 190.739,32.115 
			192.885,35.379 194.203,35.379 194.203,29.632 192.885,29.632 		"/>
		<polygon fill="#6E6E6E" points="204.957,30.889 204.957,29.632 201.424,29.632 201.424,35.379 204.957,35.379 204.957,34.122 
			202.743,34.122 202.743,33.134 204.758,33.134 204.758,31.885 202.743,31.885 202.743,30.889 		"/>
		<polygon fill="#6E6E6E" points="184.795,35.379 188.329,35.379 188.329,34.122 186.114,34.122 186.114,33.134 188.128,33.134 
			188.128,31.885 186.114,31.885 186.114,30.889 188.329,30.889 188.329,29.632 184.795,29.632 		"/>
		<polygon fill="#6E6E6E" points="168.036,32.889 165.89,29.632 164.572,29.632 164.572,35.379 165.89,35.379 165.89,32.115 
			168.036,35.379 169.353,35.379 169.353,29.632 168.036,29.632 		"/>
		<path fill="#6E6E6E" d="M181.287,32.506c0-1.579-1.279-2.874-2.866-2.874h-1.992v5.747h1.992
			C180.007,35.379,181.287,34.092,181.287,32.506z M177.747,34.122v-3.233h0.604c0.897,0,1.618,0.728,1.618,1.617
			c0,0.896-0.721,1.616-1.618,1.616H177.747z"/>
		<rect x="182.272" y="29.632" fill="#6E6E6E" width="1.316" height="5.747"/>
		<path fill="#6E6E6E" d="M172.728,38.239c-1.663,0-3.003,1.348-3.003,3.003c0,1.662,1.34,3.004,3.003,3.004
			c1.655,0,3.005-1.342,3.005-3.004C175.733,39.587,174.383,38.239,172.728,38.239z M172.728,42.989
			c-0.918,0-1.686-0.766-1.686-1.747c0-0.973,0.768-1.746,1.686-1.746c0.92,0,1.679,0.773,1.679,1.746
			C174.407,42.224,173.648,42.989,172.728,42.989z"/>
		<polygon fill="#6E6E6E" points="180.106,41.595 177.96,38.338 176.642,38.338 176.642,44.085 177.96,44.085 177.96,40.82 
			180.106,44.085 181.425,44.085 181.425,38.338 180.106,38.338 		"/>
		<polygon fill="#6E6E6E" points="117.636,32.889 115.491,29.632 114.173,29.632 114.173,35.379 115.491,35.379 115.491,32.115 
			117.636,35.379 118.955,35.379 118.955,29.632 117.636,29.632 		"/>
		<path fill="#6E6E6E" d="M80.903,29.532c-1.663,0-3.004,1.349-3.004,3.004c0,1.662,1.341,3.004,3.004,3.004
			c1.655,0,3.003-1.342,3.003-3.004C83.907,30.881,82.558,29.532,80.903,29.532z M80.903,34.284c-0.92,0-1.687-0.768-1.687-1.748
			c0-0.973,0.767-1.747,1.687-1.747c0.919,0,1.678,0.774,1.678,1.747C82.581,33.517,81.823,34.284,80.903,34.284z"/>
		<rect x="75.593" y="29.632" fill="#6E6E6E" width="1.318" height="5.748"/>
		<rect x="96.103" y="26.216" fill="#6E6E6E" width="0.519" height="21.357"/>
		<polygon fill="#6E6E6E" points="88.359,32.889 86.213,29.632 84.895,29.632 84.895,35.38 86.213,35.38 86.213,32.115 
			88.359,35.38 89.677,35.38 89.677,29.632 88.359,29.632 		"/>
		<polygon fill="#6E6E6E" points="70.941,30.889 72.198,30.889 72.198,35.38 73.523,35.38 73.523,30.889 74.78,30.889 74.78,29.632 
			70.941,29.632 		"/>
		<rect x="54.354" y="38.338" fill="#6E6E6E" width="1.318" height="5.747"/>
		<path fill="#6E6E6E" d="M59.664,38.239c-1.663,0-3.003,1.348-3.003,3.003c0,1.664,1.34,3.004,3.003,3.004
			c1.655,0,3.004-1.34,3.004-3.004C62.668,39.587,61.319,38.239,59.664,38.239z M59.664,42.99c-0.919,0-1.686-0.767-1.686-1.748
			c0-0.973,0.767-1.746,1.686-1.746c0.92,0,1.679,0.773,1.679,1.746C61.343,42.224,60.584,42.99,59.664,42.99z"/>
		<path fill="#6E6E6E" d="M67.434,29.632L65.25,35.38h1.402l0.307-0.813h2.322l0.298,0.813h1.41l-2.176-5.748H67.434z
			 M67.425,33.318l0.698-1.847l0.689,1.847H67.425z"/>
		<polygon fill="#6E6E6E" points="67.081,41.596 64.936,38.338 63.617,38.338 63.617,44.085 64.936,44.085 64.936,40.821 
			67.081,44.085 68.399,44.085 68.399,38.338 67.081,38.338 		"/>
		<path fill="#6E6E6E" d="M110.219,35.54c1.655,0,3.005-1.342,3.005-3.004c0-1.655-1.35-3.004-3.005-3.004
			c-1.662,0-3.003,1.349-3.003,3.004C107.216,34.198,108.557,35.54,110.219,35.54z M110.219,30.789c0.92,0,1.68,0.773,1.68,1.747
			c0,0.98-0.76,1.746-1.68,1.746c-0.919,0-1.686-0.766-1.686-1.746C108.534,31.562,109.3,30.789,110.219,30.789z"/>
		<path fill="#6E6E6E" d="M123.777,40.093c0-0.965-0.781-1.755-1.747-1.755h-1.893v5.747h1.318v-1.616l1.279,1.616h1.64
			l-1.832-2.321C123.256,41.55,123.777,40.882,123.777,40.093z M122.03,40.591h-0.574v-0.996h0.574c0.238,0,0.43,0.184,0.43,0.498
			S122.268,40.591,122.03,40.591z"/>
		<path fill="#6E6E6E" d="M122.167,29.632h-1.993v5.747h1.993c1.586,0,2.866-1.287,2.866-2.873
			C125.033,30.927,123.752,29.632,122.167,29.632z M122.097,34.122h-0.604v-3.233h0.604c0.896,0,1.616,0.728,1.616,1.617
			C123.713,33.402,122.994,34.122,122.097,34.122z"/>
		<polygon fill="#6E6E6E" points="127.777,38.338 126.458,38.338 126.458,44.085 129.992,44.085 129.992,42.829 127.777,42.829 		
			"/>
		<path fill="#6E6E6E" d="M104.941,38.338h-1.893v5.747h1.317V41.84h0.576c0.965,0,1.746-0.781,1.746-1.747
			C106.687,39.128,105.906,38.338,104.941,38.338z M104.941,40.591h-0.576v-0.996h0.576c0.237,0,0.429,0.184,0.429,0.498
			S105.178,40.591,104.941,40.591z"/>
		<path fill="#6E6E6E" d="M117.624,41.901c0,0.597-0.468,1.058-0.997,1.058s-0.988-0.461-0.988-1.058v-3.563h-1.317v3.563
			c0,1.272,1.033,2.307,2.306,2.307c1.279,0,2.314-1.034,2.314-2.307v-3.563h-1.317V41.901z"/>
		<polygon fill="#6E6E6E" points="55.511,32.115 57.656,35.38 58.974,35.38 58.974,29.632 57.656,29.632 57.656,32.889 
			55.511,29.632 54.192,29.632 54.192,35.38 55.511,35.38 		"/>
	</g>
	<g>
		<path fill="#6E6E6E" d="M129.591,38.338v1.505c0.568,0,0.86-0.263,0.86-0.723v-0.782H129.591z"/>
	</g>
</g>
</svg>
