<?xml version="1.0" encoding="utf-8"?>
<!-- Generator: Adobe Illustrator 14.0.0, SVG Export Plug-In . SVG Version: 6.00 Build 43363)  -->
<!DOCTYPE svg PUBLIC "-//W3C//DTD SVG 1.1//EN" "http://www.w3.org/Graphics/SVG/1.1/DTD/svg11.dtd">
<svg version="1.1" id="Artwork" xmlns="http://www.w3.org/2000/svg" xmlns:xlink="http://www.w3.org/1999/xlink" x="0px" y="0px"
	 width="222px" height="85.764px" viewBox="-187.338 196.08 222 85.764" enable-background="new -187.338 196.08 222 85.764"
	 xml:space="preserve">
<g>
	<path fill="none" d="M-71.773,232.64c-0.431-0.194-0.936-0.293-2.018-0.293h-2.836v6.078h3.413c1.849,0,3.026-1.247,3.026-3.145
		C-70.187,234.056-70.718,233.097-71.773,232.64z"/>
	<path fill="none" d="M-129.552,265.074c-0.397,0.237-0.855,0.384-1.35,0.384c-0.013,0-0.024-0.004-0.036-0.004
		c0.128,0.282,0.202,0.593,0.202,0.923c0,0.44-0.13,0.849-0.348,1.196c0.048-0.003,0.093-0.014,0.142-0.014
		c1.468,0,2.654,1.189,2.654,2.656c0,0.117-0.02,0.226-0.035,0.338c0.426-0.453,1.027-0.74,1.697-0.74
		c0.158,0,0.312,0.016,0.461,0.046c-0.059-0.291-0.09-0.593-0.09-0.901c0-0.517,0.09-1.01,0.251-1.473
		C-127.588,267.413-128.937,266.446-129.552,265.074z"/>
	<path fill="none" d="M-111.368,271.714c-0.022-0.041-0.046-0.078-0.065-0.121c-0.018,0.073-0.044,0.144-0.066,0.214
		C-111.456,271.776-111.414,271.743-111.368,271.714z"/>
	<path fill="none" d="M-150.93,240.641c0.004-0.001,0.01-0.001,0.015-0.002c-0.007-0.006-0.014-0.013-0.021-0.017
		C-150.934,240.63-150.932,240.636-150.93,240.641z"/>
	<path fill="none" d="M-120.404,262.849c-0.191,0.055-0.389,0.094-0.597,0.094c-0.274,0-0.534-0.058-0.775-0.149
		c0.029,0.199,0.049,0.4,0.049,0.608c0,0.361-0.051,0.707-0.138,1.04c0.046-0.001,0.091-0.006,0.138-0.006
		c0.582,0,1.136,0.112,1.647,0.312c-0.265-0.358-0.427-0.798-0.427-1.276C-120.507,263.255-120.464,263.048-120.404,262.849z"/>
	<path fill="none" d="M-104.109,259.812c-0.158,0.245-0.34,0.474-0.544,0.681c0.727,0.347,1.235,1.083,1.235,1.945
		c0,1.184-0.966,2.153-2.157,2.153c-1.189,0-2.151-0.97-2.151-2.153c0-0.23,0.046-0.449,0.112-0.658
		c-0.038,0.001-0.074,0.005-0.112,0.005c-0.296,0-0.584-0.029-0.863-0.086c-0.012,1.93-1.429,3.518-3.28,3.804
		c0.208,0.381,0.337,0.812,0.337,1.276c0,0.719-0.289,1.369-0.755,1.846c0.408,0.397,0.7,0.907,0.843,1.478
		c0.282-0.624,0.908-1.06,1.636-1.06c0.084,0,0.165,0.014,0.247,0.024c-0.565-0.505-0.927-1.233-0.927-2.047
		c0-1.531,1.237-2.76,2.762-2.76c1.102,0,2.041,0.642,2.484,1.571c0.578-0.438,1.286-0.703,2.06-0.73
		c-0.15-0.419-0.236-0.869-0.236-1.341c0-0.911,0.309-1.747,0.821-2.417C-103.336,261.137-103.914,260.557-104.109,259.812z"/>
	<path fill="none" d="M-137.776,214.285c-0.242,0.49-0.672,0.866-1.201,1.038c0.348,0.143,0.662,0.352,0.923,0.612
		c0.025-0.582,0.199-1.121,0.492-1.581C-137.633,214.329-137.708,214.314-137.776,214.285z"/>
	<path fill="none" d="M-144.499,257.497c0.009-0.047,0.03-0.093,0.043-0.141c-0.036,0.025-0.073,0.047-0.11,0.071
		C-144.542,257.45-144.521,257.473-144.499,257.497z"/>
	<path fill="none" d="M-115.269,264.349c-0.664-0.696-1.073-1.636-1.073-2.675c0-1.212,0.557-2.294,1.428-3.005
		c-0.151-0.08-0.291-0.177-0.42-0.282c-0.01,0.062-0.015,0.125-0.033,0.184c-0.244,0.859-1.144,1.356-2.011,1.119
		c-0.257-0.074-0.476-0.212-0.659-0.383c-0.101,0.434-0.436,0.778-0.866,0.896c0.049,0.18,0.082,0.366,0.082,0.56
		c0,0.225-0.044,0.438-0.107,0.641c0.186-0.051,0.376-0.088,0.578-0.088c1.189,0,2.155,0.964,2.155,2.155
		c0,1.187-0.966,2.159-2.155,2.159c-0.123,0-0.242-0.017-0.359-0.039c0.922,0.828,1.506,2.027,1.506,3.364
		c0,0.155-0.009,0.304-0.023,0.454c0.222-0.419,0.531-0.781,0.91-1.062c-0.328-0.439-0.529-0.98-0.529-1.571
		C-116.848,265.69-116.198,264.763-115.269,264.349z"/>
	<path fill="none" d="M-19.267,232.615h-0.049c0,0-0.385,1.539-0.671,2.4l-1.898,5.383h5.14l-1.871-5.383
		C-18.912,234.154-19.267,232.615-19.267,232.615z"/>
	<path fill="none" d="M-118.25,199.78c-0.014,0.092-0.031,0.183-0.055,0.271c0.127,0.019,0.252,0.043,0.375,0.073
		C-118.052,200.025-118.163,199.912-118.25,199.78z"/>
	<path fill="none" d="M-109.032,215.795c-0.084,1.003-0.55,1.895-1.254,2.537c0.067-0.007,0.133-0.021,0.202-0.021
		c0.212,0,0.413,0.041,0.606,0.098c0.08-0.764,0.393-1.449,0.877-1.989C-108.781,216.24-108.924,216.027-109.032,215.795z"/>
	<path fill="none" d="M8.373,211.862c0-1.224-0.53-2.187-1.583-2.64c-0.434-0.193-0.936-0.29-2.021-0.29H1.934v6.079h3.414
		C7.195,215.011,8.373,213.761,8.373,211.862z"/>
	<path fill="none" d="M-55.851,211.6c-0.287-0.863-0.649-2.4-0.649-2.4h-0.046c0,0-0.385,1.537-0.671,2.4l-1.898,5.381h5.14
		L-55.851,211.6z"/>
	<path fill="none" d="M-107.021,212.741c1.161,0.034,2.093,0.988,2.093,2.151c0,0.171-0.025,0.336-0.062,0.494
		c0.404,0.116,0.778,0.293,1.107,0.534c-0.048-0.199-0.081-0.406-0.081-0.622c0-0.444,0.121-0.859,0.315-1.229
		c-0.968-0.345-1.71-1.138-1.991-2.135C-106.016,212.315-106.492,212.589-107.021,212.741z"/>
	<path fill="none" d="M-2.764,232.64c-0.435-0.194-0.938-0.293-2.019-0.293h-2.838v6.078h3.414c1.847,0,3.03-1.247,3.03-3.145
		C-1.178,234.056-1.712,233.097-2.764,232.64z"/>
	<path fill="none" d="M-107.574,206.52c-0.355-0.383-0.577-0.891-0.577-1.453c0-0.267,0.055-0.518,0.144-0.753
		c-0.261,0.571-0.718,1.028-1.288,1.289c0.084,0.209,0.133,0.436,0.133,0.676c0,0.178-0.036,0.349-0.084,0.513
		c0.409-0.19,0.86-0.306,1.34-0.306C-107.793,206.486-107.685,206.51-107.574,206.52z"/>
	<path fill="none" d="M-111.964,210.369c0,0.464-0.13,0.894-0.34,1.273c1.503,0.23,2.72,1.316,3.134,2.749
		c0.17-0.703,0.685-1.271,1.359-1.519c-0.032,0.002-0.062,0.01-0.094,0.01c-1.765,0-3.194-1.429-3.194-3.198
		c0-0.604,0.177-1.161,0.468-1.644c-0.105,0.021-0.213,0.033-0.323,0.033c-0.532,0-1.004-0.237-1.332-0.604
		c-0.212,0.311-0.517,0.55-0.872,0.688C-112.441,208.633-111.964,209.443-111.964,210.369z"/>
	<path fill="#EC008C" d="M-145.901,211.361c0.388-0.371,0.913-0.603,1.493-0.603c0.178,0,0.347,0.026,0.512,0.067
		c0.769-0.547,1.272-1.442,1.272-2.459c0-0.404-0.083-0.791-0.229-1.144c-0.211,0.095-0.443,0.15-0.69,0.15
		c-0.924,0-1.677-0.749-1.677-1.681c0-0.099,0.012-0.196,0.029-0.291c-0.147-0.022-0.295-0.045-0.448-0.045
		c-1.663,0-3.013,1.35-3.013,3.01C-148.652,209.943-147.439,211.225-145.901,211.361z"/>
	<path fill="#EC008C" d="M-143.162,269.114c-0.384,0.355-0.893,0.576-1.456,0.576c-1.193,0-2.155-0.966-2.155-2.155
		c0-0.363,0.099-0.699,0.257-1.001c-0.167,0.007-0.333,0.011-0.503,0.041c-1.869,0.352-3.107,2.147-2.762,4.02
		c0.345,1.869,2.143,3.109,4.014,2.766c1.87-0.343,3.108-2.146,2.765-4.018c-0.009-0.041-0.027-0.08-0.037-0.124
		C-143.078,269.183-143.125,269.154-143.162,269.114z"/>
	<path fill="#EC008C" d="M-108.812,272.734c0-0.157,0.025-0.308,0.062-0.454c-0.298,0.217-0.661,0.353-1.059,0.353
		c-0.671,0-1.25-0.373-1.559-0.919c-0.045,0.029-0.087,0.062-0.131,0.095c-0.183,0.581-0.525,1.083-0.983,1.464
		c-0.053,0.208-0.09,0.419-0.09,0.645c0,0.688,0.269,1.307,0.699,1.775c0.018-0.001,0.034-0.005,0.052-0.005
		c0.5,0,0.927,0.301,1.114,0.73c0.24,0.072,0.487,0.124,0.75,0.124c1.235,0,2.261-0.854,2.542-2
		C-108.216,274.33-108.812,273.602-108.812,272.734z"/>
	<path fill="#EC008C" d="M-121.776,262.794c0.241,0.092,0.501,0.149,0.775,0.149c0.208,0,0.405-0.039,0.597-0.094
		c0.213-0.702,0.767-1.247,1.475-1.445c0.063-0.203,0.107-0.415,0.107-0.641c0-0.194-0.033-0.381-0.082-0.56
		c-0.101,0.027-0.206,0.046-0.315,0.046c-0.667,0-1.215-0.548-1.215-1.214c0-0.124,0.024-0.241,0.059-0.353
		c-0.199-0.061-0.406-0.102-0.625-0.102c-1.051,0-1.928,0.743-2.133,1.734C-122.418,260.941-121.924,261.809-121.776,262.794z"/>
	<path fill="#EC008C" d="M-115.335,258.387c0.129,0.105,0.269,0.202,0.42,0.282c0.668-0.546,1.521-0.872,2.448-0.872
		c0.152,0,0.301,0.011,0.448,0.027c-0.009-0.114-0.017-0.229-0.017-0.345c0-0.74,0.187-1.438,0.517-2.047
		c-0.293-0.63-0.839-1.137-1.558-1.339c-1.317-0.381-2.691,0.383-3.067,1.698c-0.083,0.294-0.102,0.586-0.08,0.872
		C-115.58,256.978-115.217,257.678-115.335,258.387z"/>
	<path fill="#EC008C" d="M-118.904,260.203c0.43-0.118,0.765-0.462,0.866-0.896c-0.351-0.326-0.549-0.796-0.518-1.287
		c-0.191-0.127-0.419-0.199-0.664-0.199c-0.543,0-1.003,0.364-1.156,0.86C-119.657,258.9-119.099,259.473-118.904,260.203z"/>
	<path fill="#EC008C" d="M-119.219,260.248c0.11,0,0.214-0.017,0.316-0.045c-0.194-0.729-0.753-1.303-1.472-1.521
		c-0.035,0.112-0.059,0.229-0.059,0.354C-120.434,259.702-119.886,260.248-119.219,260.248z"/>
	<path fill="#EC008C" d="M-116.343,261.675c0,1.038,0.41,1.979,1.073,2.675c0.331-0.148,0.694-0.234,1.08-0.234
		c1.006,0,1.869,0.563,2.32,1.387c1.852-0.287,3.268-1.874,3.28-3.805c-1.74-0.354-3.094-1.755-3.383-3.514
		c-0.615,0.64-1.55,0.934-2.467,0.676c-0.168-0.047-0.327-0.113-0.475-0.189C-115.785,259.381-116.343,260.463-116.343,261.675z"/>
	<path fill="#EC008C" d="M-111.973,258.183c-0.02-0.119-0.036-0.238-0.045-0.358c-0.147-0.017-0.296-0.027-0.448-0.027
		c-0.928,0-1.78,0.326-2.448,0.872c0.149,0.076,0.307,0.143,0.475,0.189C-113.523,259.117-112.588,258.824-111.973,258.183z"/>
	<path fill="#EC008C" d="M-126.625,274.473c-1.001,0-1.85-0.631-2.181-1.521c-0.547,0.611-0.89,1.407-0.89,2.294
		c0,0.204,0.026,0.402,0.06,0.597c0.805,0.12,1.419,0.81,1.417,1.646c-0.001,0.179-0.037,0.347-0.09,0.506
		c0.575,0.435,1.281,0.698,2.055,0.698c1.909,0,3.45-1.547,3.45-3.45c0-0.828-0.304-1.576-0.792-2.171
		c-0.265-0.122-0.514-0.267-0.748-0.433C-124.574,273.691-125.508,274.473-126.625,274.473z"/>
	<path fill="#EC008C" d="M-131.084,267.571c0.217-0.348,0.348-0.755,0.348-1.196c0-0.328-0.074-0.641-0.202-0.924
		c-0.586-0.008-1.122-0.212-1.559-0.54c-0.532,0.397-1.185,0.64-1.899,0.64c-0.234,0-0.459-0.028-0.678-0.073
		c-0.119,0.274-0.187,0.579-0.187,0.896c0,1.23,0.977,2.226,2.194,2.259C-132.61,268.021-131.897,267.614-131.084,267.571z"/>
	<path fill="#EC008C" d="M-128.288,270.216c0-1.467-1.187-2.657-2.654-2.657c-0.048,0-0.094,0.012-0.142,0.015
		c-0.399,0.641-1.105,1.07-1.916,1.07c-0.023,0-0.044-0.008-0.067-0.009c-0.329,0.44-0.531,0.985-0.531,1.578
		c0,0.07,0.015,0.135,0.02,0.204c1.009,0.228,1.761,1.125,1.761,2.202c0,0.032-0.008,0.062-0.009,0.093
		c0.278,0.099,0.572,0.162,0.883,0.162c0.807,0,1.519-0.366,2.004-0.934c0.046-0.534,0.269-1.017,0.615-1.386
		C-128.308,270.441-128.288,270.331-128.288,270.216z"/>
	<path fill="#EC008C" d="M-131.084,267.571c-0.813,0.043-1.526,0.45-1.983,1.064c0.022,0.001,0.044,0.008,0.067,0.008
		C-132.189,268.642-131.483,268.214-131.084,267.571z"/>
	<path fill="#EC008C" d="M-126.254,271.804c0.43,0,0.836,0.088,1.215,0.23c-0.557-0.599-0.957-1.344-1.125-2.174
		c-0.149-0.032-0.302-0.047-0.46-0.047c-0.67,0-1.272,0.286-1.698,0.74c-0.068,0.525-0.287,1.002-0.615,1.386
		c-0.007,0.069-0.021,0.133-0.021,0.205c0,0.286,0.059,0.556,0.153,0.81C-128.175,272.253-127.271,271.804-126.254,271.804z"/>
	<path fill="#EC008C" d="M-126.625,274.473c1.117,0,2.05-0.782,2.281-1.827c-0.253-0.183-0.485-0.385-0.696-0.611
		c-0.379-0.143-0.786-0.23-1.215-0.23c-1.017,0-1.921,0.448-2.552,1.15C-128.475,273.843-127.625,274.473-126.625,274.473z"/>
	<path fill="#EC008C" d="M-128.938,271.94c0.329-0.384,0.547-0.86,0.615-1.387C-128.67,270.924-128.891,271.405-128.938,271.94z"/>
	<path fill="#EC008C" d="M-138.456,258.927c0.665,0,1.266,0.251,1.736,0.65c-0.132-1.065-1.027-1.89-2.125-1.89
		c-0.329,0-0.637,0.077-0.917,0.213c0,0.027,0.009,0.053,0.009,0.084c0,0.894-0.499,1.667-1.229,2.082
		c0.015,0.147,0.045,0.29,0.089,0.429C-140.47,259.569-139.542,258.927-138.456,258.927z"/>
	<path fill="#EC008C" d="M-136.727,260.178c0.099-0.104,0.207-0.196,0.319-0.289c-0.096-0.112-0.199-0.217-0.312-0.312
		c0.011,0.088,0.026,0.175,0.026,0.265C-136.694,259.958-136.71,260.068-136.727,260.178z"/>
	<path fill="#EC008C" d="M-137.459,261.48c-0.375,0.319-0.854,0.521-1.386,0.521c-0.963,0-1.771-0.638-2.049-1.508
		c-0.156,0.34-0.249,0.714-0.249,1.112c0,0.538,0.161,1.036,0.43,1.456c0.022,0,0.042-0.007,0.064-0.007
		c1.057,0,1.996,0.471,2.647,1.201c0.302-0.052,0.584-0.157,0.844-0.302c-0.272-0.472-0.439-1.011-0.439-1.598
		C-137.596,262.051-137.54,261.759-137.459,261.48z"/>
	<path fill="#EC008C" d="M-138.845,262.001c0.531,0,1.01-0.201,1.386-0.521c0.141-0.494,0.391-0.937,0.732-1.302
		c0.017-0.11,0.034-0.221,0.034-0.337c0-0.09-0.016-0.177-0.027-0.265c-0.469-0.399-1.071-0.65-1.736-0.65
		c-1.086,0-2.014,0.643-2.438,1.566C-140.616,261.363-139.808,262.001-138.845,262.001z"/>
	<path fill="#2E008B" d="M-144.095,267.42c-0.061-0.266-0.102-0.534-0.102-0.816c0-0.392,0.078-0.765,0.197-1.118
		c-0.197-0.061-0.401-0.101-0.619-0.101c-0.828,0-1.536,0.47-1.898,1.151C-145.601,266.503-144.744,266.835-144.095,267.42z"/>
	<path fill="#2E008B" d="M-144.618,269.69c0.563,0,1.072-0.221,1.456-0.576c-0.456-0.459-0.779-1.043-0.933-1.694
		c-0.649-0.584-1.506-0.917-2.421-0.886c-0.158,0.3-0.257,0.638-0.257,1.001C-146.773,268.724-145.81,269.69-144.618,269.69z"/>
	<path fill="#2E008B" d="M-140.713,263.061c-1.539,0.028-2.823,1.036-3.287,2.424c0.887,0.268,1.539,1.079,1.539,2.052
		c0,0.591-0.24,1.125-0.626,1.517c0.015,0.057,0.036,0.109,0.048,0.167c0.619,0.568,1.433,0.924,2.335,0.938
		c0.363-0.677,1.071-1.143,1.894-1.143c0.234,0,0.454,0.046,0.665,0.115c0.65-0.643,1.054-1.538,1.054-2.526
		c0-0.903-0.35-1.72-0.909-2.347c-0.148,0.025-0.299,0.044-0.455,0.044C-139.407,264.302-140.235,263.804-140.713,263.061z"/>
	<path fill="#2E008B" d="M-143.162,269.114c0.038,0.04,0.084,0.069,0.124,0.104c-0.013-0.058-0.033-0.112-0.048-0.168
		C-143.11,269.075-143.138,269.094-143.162,269.114z"/>
	<path fill="#2E008B" d="M-140.648,263.054c-0.022,0-0.042,0.006-0.064,0.007c0.478,0.744,1.307,1.24,2.257,1.24
		c0.156,0,0.307-0.021,0.455-0.047C-138.652,263.522-139.591,263.054-140.648,263.054z"/>
	<path fill="#2E008B" d="M-144.095,267.42c0.474,0.426,0.827,0.981,1.008,1.633c0.386-0.391,0.626-0.923,0.626-1.518
		c0-0.974-0.652-1.783-1.539-2.05c-0.119,0.354-0.197,0.724-0.197,1.118C-144.196,266.885-144.156,267.154-144.095,267.42z"/>
	<path fill="#2E008B" d="M-144.095,267.42c0.154,0.651,0.477,1.235,0.933,1.694c0.024-0.021,0.052-0.042,0.075-0.064
		C-143.268,268.402-143.621,267.845-144.095,267.42z"/>
	<path fill="#EC008C" d="M-154.656,258.851c0.156-0.204,0.253-0.456,0.253-0.735c0-0.668-0.545-1.211-1.212-1.211
		c-0.672,0-1.218,0.543-1.218,1.211c0,0.239,0.071,0.459,0.19,0.646c0.263-0.051,0.532-0.078,0.81-0.078
		C-155.424,258.683-155.031,258.742-154.656,258.851z"/>
	<path fill="#2E008B" d="M-151.587,262.919c0-1.933-1.297-3.559-3.068-4.067c-0.222,0.289-0.567,0.476-0.959,0.476
		c-0.434,0-0.813-0.226-1.028-0.566c-1.955,0.378-3.431,2.094-3.431,4.158c0,0.754,0.197,1.46,0.54,2.07
		c0.362-0.681,1.068-1.149,1.89-1.149c1.189,0,2.153,0.968,2.153,2.161c0,0.429-0.129,0.827-0.347,1.163c0.001,0,0.002,0,0.004,0
		C-153.489,267.165-151.587,265.265-151.587,262.919z"/>
	<path fill="#2E008B" d="M-155.615,259.328c0.392,0,0.737-0.188,0.959-0.477c-0.375-0.108-0.769-0.168-1.178-0.168
		c-0.278,0-0.547,0.027-0.81,0.078C-156.429,259.102-156.049,259.328-155.615,259.328z"/>
	<path fill="#EC008C" d="M-154.138,244.143c0.003-0.678,0.207-1.307,0.541-1.842c-0.024-0.021-0.049-0.04-0.072-0.062
		c-1.237,0.021-2.296,0.747-2.807,1.793c0.115,0.303,0.183,0.63,0.181,0.974c-0.003,0.482-0.143,0.926-0.367,1.317
		c0.39,1.318,1.589,2.288,3.031,2.296c0.91,0.007,1.726-0.373,2.312-0.978C-152.94,247.301-154.149,245.859-154.138,244.143z"/>
	<path fill="#2E008B" d="M-148.315,245.73c0.289,0.001,0.563,0.063,0.817,0.163c0.286-0.509,0.463-1.085,0.467-1.711
		c0.005-1.382-0.78-2.565-1.926-3.162c-0.206,0.067-0.422,0.113-0.651,0.109c-0.5-0.003-0.952-0.19-1.307-0.492
		c-0.004,0-0.01,0.002-0.015,0.002c0.031,0.129,0.053,0.262,0.053,0.402c-0.005,0.76-0.523,1.393-1.221,1.585
		c1.004,0.542,1.689,1.592,1.68,2.814c-0.006,0.856-0.352,1.627-0.902,2.199c0.23,0.048,0.47,0.074,0.714,0.075
		c0.015,0,0.027-0.004,0.042-0.004C-150.424,246.594-149.475,245.726-148.315,245.73z"/>
	<path fill="#2E008B" d="M-152.098,242.631c-0.142,0.04-0.29,0.066-0.444,0.065c-0.404-0.003-0.769-0.155-1.055-0.395
		c-0.333,0.538-0.537,1.164-0.541,1.844c-0.011,1.715,1.198,3.156,2.818,3.497c0.551-0.57,0.896-1.343,0.902-2.199
		C-150.409,244.22-151.094,243.172-152.098,242.631z"/>
	<path fill="#EC008C" d="M-129.483,201.685c1.249,0,2.263,1.012,2.263,2.257c0,0.018-0.004,0.036-0.005,0.055
		c1.895-0.309,3.341-1.951,3.341-3.932c0-2.2-1.782-3.985-3.982-3.985c-2.202,0-3.988,1.785-3.988,3.985
		c0,0.863,0.278,1.661,0.745,2.313C-130.699,201.954-130.124,201.685-129.483,201.685z"/>
	<path fill="#2E008B" d="M-133.001,212.084c0.411,0.567,1.076,0.938,1.833,0.938c0.334,0,0.648-0.076,0.933-0.205
		c0.199-0.859,0.669-1.615,1.314-2.172c-0.064-1.192-1.04-2.147-2.247-2.147c-0.829,0-1.544,0.453-1.939,1.117
		c0.184,0.43,0.287,0.902,0.287,1.4C-132.82,211.389-132.894,211.744-133.001,212.084z"/>
	<path fill="#EC008C" d="M-120.757,218.498c-0.02,0.088-0.033,0.179-0.033,0.272c0,0.672,0.545,1.216,1.216,1.216
		c0.672,0,1.216-0.544,1.216-1.216c0-0.578-0.404-1.062-0.946-1.185C-119.637,218.066-120.157,218.403-120.757,218.498z"/>
	<path fill="#EC008C" d="M-130.297,214.342c-0.623,0.284-1.06,0.912-1.06,1.642c0,0.992,0.81,1.803,1.802,1.803
		c0.485,0,0.923-0.195,1.248-0.507C-129.36,216.664-130.112,215.595-130.297,214.342z"/>
	<path fill="#EC008C" d="M-113.746,218.688c0.232-0.085,0.479-0.14,0.74-0.14c0.505,0,0.963,0.183,1.33,0.476
		c0.352-0.388,0.839-0.641,1.39-0.692c0.704-0.641,1.17-1.534,1.254-2.537c-0.127-0.276-0.203-0.58-0.203-0.902
		c0-0.173,0.026-0.34,0.064-0.501c-0.414-1.433-1.631-2.519-3.134-2.749c-0.453,0.818-1.314,1.38-2.316,1.38
		c-0.384,0-0.747-0.085-1.076-0.231c-0.666,0.696-1.077,1.637-1.077,2.679c0,0.869,0.29,1.67,0.774,2.317
		c0.15-0.033,0.304-0.054,0.463-0.054C-114.789,217.735-114.132,218.112-113.746,218.688z"/>
	<path fill="#EC008C" d="M-112.898,211.594c0.203,0,0.4,0.02,0.594,0.049c0.209-0.38,0.34-0.81,0.34-1.273
		c0-0.926-0.477-1.736-1.195-2.211c-0.209,0.081-0.435,0.129-0.674,0.129c-0.496,0-0.946-0.198-1.28-0.519
		c-1.231,0.23-2.161,1.305-2.161,2.6c0,1.081,0.649,2.01,1.579,2.423C-114.991,212.054-113.999,211.594-112.898,211.594z"/>
	<path fill="#EC008C" d="M-112.305,211.644c-0.194-0.029-0.391-0.051-0.594-0.051c-1.101,0-2.092,0.461-2.798,1.198
		c0.329,0.146,0.692,0.23,1.076,0.23C-113.619,213.022-112.757,212.462-112.305,211.644z"/>
	<path fill="#EC008C" d="M-110.956,204.482c0.752,0,1.394,0.463,1.66,1.121c0.57-0.261,1.027-0.718,1.288-1.289
		c0.019-0.051,0.04-0.102,0.063-0.152c0.112-0.291,0.18-0.607,0.18-0.939c0-1.445-1.169-2.62-2.62-2.62
		c-1.447,0-2.617,1.175-2.617,2.62c0,0.712,0.284,1.354,0.741,1.827C-111.933,204.7-111.473,204.482-110.956,204.482z"/>
	<path fill="#EC008C" d="M-102.167,214.228c-0.135,0.016-0.268,0.039-0.407,0.039c-0.379,0-0.737-0.077-1.074-0.196
		c-0.195,0.368-0.315,0.784-0.315,1.229c0,0.214,0.033,0.421,0.081,0.62c0.568,0.414,1.001,0.991,1.242,1.666
		c0.393,0.229,0.843,0.372,1.33,0.372c1.19,0,2.187-0.787,2.527-1.862c-0.106,0.011-0.209,0.033-0.318,0.033
		C-100.449,216.129-101.601,215.352-102.167,214.228z"/>
	<path fill="#EC008C" d="M-100.029,212.986c0.819,0.454,1.38,1.316,1.38,2.312c0,0.28-0.055,0.544-0.136,0.797
		c1.754-0.161,3.128-1.614,3.128-3.414c0-1.903-1.541-3.441-3.447-3.441c-0.274,0-0.538,0.04-0.792,0.1
		c0.323,0.498,0.515,1.091,0.515,1.731C-99.379,211.795-99.626,212.452-100.029,212.986z"/>
	<path fill="#EC008C" d="M-100.029,212.986c-0.505,0.672-1.264,1.129-2.138,1.24c0.566,1.124,1.718,1.902,3.064,1.902
		c0.109,0,0.211-0.022,0.318-0.033c0.081-0.253,0.136-0.517,0.136-0.797C-98.649,214.302-99.21,213.44-100.029,212.986z"/>
	<path fill="#EC008C" d="M-118.304,200.051c-0.295,1.145-1.327,1.992-2.563,1.992c-0.432,0-0.834-0.113-1.195-0.297
		c-0.393,0.603-0.624,1.319-0.624,2.089c0,1.318,0.664,2.479,1.675,3.167c0.34-0.562,0.949-0.942,1.652-0.942
		c0.867,0,1.591,0.576,1.839,1.362c0.81-0.303,1.489-0.868,1.934-1.599c0.062-0.184,0.149-0.353,0.263-0.506
		c0.124-0.293,0.207-0.606,0.254-0.933c-0.088,0.012-0.176,0.026-0.268,0.026c-1.066,0-1.938-0.865-1.938-1.938
		c0-0.667,0.336-1.251,0.845-1.6c-0.197-0.161-0.411-0.303-0.638-0.422c-0.326-0.018-0.621-0.137-0.861-0.328
		C-118.052,200.094-118.177,200.068-118.304,200.051z"/>
	<path fill="#2E008B" d="M-49.487,234.586c0-1.468,1.293-2.378,3.05-2.378c1.439,0,2.473,0.6,3.125,0.984
		c0.413,0.24,0.793,0.288,1.078-0.219l0.34-0.598c0.212-0.432,0.166-0.793-0.242-1.083c-0.646-0.506-2.235-1.293-4.253-1.293
		c-3.098,0-5.5,1.848-5.5,4.704c0,5.287,8.169,4.446,8.169,8.197c0,1.464-1.177,2.423-2.979,2.423c-1.801,0-3.096-0.938-3.699-1.371
		c-0.459-0.289-0.793-0.238-1.083,0.146l-0.41,0.575c-0.356,0.481-0.212,0.819,0.099,1.108c0.767,0.625,2.641,1.752,5.092,1.752
		c3.389,0,5.384-2.165,5.384-4.83C-41.317,237.252-49.487,238.236-49.487,234.586z"/>
	<path fill="#2E008B" d="M-28.808,245.179h-7.113v-5.453h5.311c0.503,0,0.794-0.265,0.794-0.793v-0.481
		c0-0.526-0.292-0.794-0.794-0.794h-5.311v-5.311h6.705c0.527,0,0.788-0.286,0.788-0.788v-0.483c0-0.526-0.261-0.791-0.788-0.791
		h-8.268c-0.526,0-0.79,0.265-0.79,0.791v15.376c0,0.526,0.264,0.797,0.79,0.797h8.677c0.526,0,0.792-0.271,0.792-0.797v-0.483
		C-28.016,245.443-28.282,245.179-28.808,245.179z"/>
	<path fill="#2E008B" d="M-54.056,246.452v-0.483c0-0.526-0.266-0.789-0.795-0.789h-7.111v-5.451h5.313
		c0.501,0,0.79-0.267,0.79-0.795v-0.479c0-0.526-0.289-0.794-0.79-0.794h-5.313v-5.311h6.705c0.525,0,0.788-0.287,0.788-0.79v-0.482
		c0-0.527-0.263-0.791-0.788-0.791h-8.261c-0.532,0-0.797,0.264-0.797,0.791v15.375c0,0.527,0.265,0.797,0.797,0.797h8.667
		C-54.32,247.249-54.056,246.979-54.056,246.452z"/>
	<path fill="#2E008B" d="M-65.575,220.368c-0.313-0.407-0.696-0.407-1.104-0.096c-0.75,0.577-2.376,1.655-4.612,1.655
		c-3.917,0-6.296-3.097-6.296-6.699c0-3.582,2.33-6.466,6.271-6.466c2.042,0,3.531,0.865,4.249,1.349
		c0.457,0.287,0.819,0.239,1.106-0.19l0.313-0.481c0.262-0.434,0.239-0.817-0.144-1.108c-0.844-0.623-2.716-1.748-5.624-1.748
		c-5.067,0-8.621,3.744-8.621,8.667c0,4.975,3.432,8.866,8.671,8.866c3.1,0,5.167-1.44,6.029-2.161
		c0.387-0.34,0.408-0.725,0.122-1.105L-65.575,220.368z"/>
	<path fill="#2E008B" d="M-56.106,261.47v-0.052l4.615-7.255c0.24-0.407,0.072-0.72-0.406-0.72h-0.606
		c-0.308,0-0.526,0.122-0.693,0.411l-4.304,6.919h-2.858v-6.724c0-0.389-0.213-0.604-0.574-0.604h-0.506
		c-0.385,0-0.577,0.212-0.577,0.604v15.686c0,0.383,0.189,0.601,0.577,0.601h0.506c0.357,0,0.574-0.215,0.574-0.601v-7.47h2.858
		l4.589,7.658c0.168,0.292,0.387,0.412,0.697,0.412h0.668c0.459,0,0.647-0.314,0.384-0.697L-56.106,261.47z"/>
	<path fill="#2E008B" d="M-67.786,235.184c0-2.16-1.057-3.72-2.663-4.441c-0.7-0.313-1.519-0.458-3.173-0.458h-4.564
		c-0.531,0-0.794,0.265-0.794,0.791v15.376c0,0.526,0.263,0.797,0.794,0.797h0.768c0.527,0,0.791-0.271,0.791-0.797v-5.959h3.629
		l3.318,6.198c0.188,0.384,0.477,0.558,0.934,0.558h0.96c0.599,0,0.844-0.384,0.528-0.943l-3.051-5.643
		c-0.293-0.525-0.507-0.77-0.507-0.77v-0.048C-68.937,239.218-67.786,237.346-67.786,235.184z M-73.215,238.426h-3.411v-6.078h2.837
		c1.082,0,1.586,0.098,2.017,0.292c1.058,0.458,1.586,1.417,1.586,2.642C-70.187,237.177-71.365,238.426-73.215,238.426z"/>
	<path fill="#2E008B" d="M-66.68,253.447h-0.48c-0.386,0-0.601,0.212-0.601,0.603v10.328c0,2.956-1.899,4.687-4.806,4.687
		c-2.908,0-4.781-1.73-4.781-4.641V254.05c0-0.39-0.218-0.603-0.601-0.603h-0.482c-0.383,0-0.6,0.212-0.6,0.603v10.402
		c0,3.747,2.644,6.174,6.487,6.174c3.82,0,6.437-2.427,6.437-6.174V254.05C-66.104,253.659-66.297,253.447-66.68,253.447z"/>
	<path fill="#2E008B" d="M-12.384,223.83h8.676c0.528,0,0.792-0.265,0.792-0.797v-0.478c0-0.529-0.263-0.795-0.792-0.795h-7.111
		v-5.455h5.312c0.501,0,0.791-0.262,0.791-0.791v-0.483c0-0.524-0.29-0.788-0.791-0.788h-5.312v-5.311h6.703
		c0.526,0,0.789-0.285,0.789-0.792v-0.481c0-0.527-0.263-0.79-0.789-0.79h-8.268c-0.525,0-0.791,0.263-0.791,0.79v15.374
		C-13.175,223.565-12.911,223.83-12.384,223.83z"/>
	<path fill="#2E008B" d="M-1.299,240.663c-0.288-0.525-0.503-0.77-0.503-0.77v-0.048c1.869-0.626,3.027-2.498,3.027-4.659
		c0-2.16-1.06-3.722-2.666-4.443c-0.699-0.312-1.518-0.457-3.174-0.457h-4.562c-0.528,0-0.792,0.264-0.792,0.791v15.376
		c0,0.526,0.264,0.796,0.792,0.796h0.772c0.527,0,0.787-0.27,0.787-0.796v-5.96h3.63l3.313,6.2c0.192,0.384,0.481,0.556,0.935,0.556
		h0.964c0.599,0,0.839-0.384,0.526-0.943L-1.299,240.663z M-4.208,238.426h-3.414v-6.078h2.838c1.082,0,1.584,0.098,2.019,0.292
		c1.052,0.458,1.586,1.417,1.586,2.642C-1.178,237.177-2.361,238.426-4.208,238.426z"/>
	<path fill="#2E008B" d="M-22.116,224.116c3.1,0,5.165-1.439,6.03-2.161c0.384-0.34,0.406-0.724,0.12-1.105l-0.36-0.481
		c-0.314-0.407-0.696-0.407-1.104-0.096c-0.749,0.577-2.38,1.655-4.614,1.655c-3.916,0-6.293-3.097-6.293-6.699
		c0-3.582,2.331-6.466,6.27-6.466c2.042,0,3.535,0.865,4.252,1.349c0.455,0.287,0.815,0.239,1.104-0.19l0.313-0.481
		c0.264-0.434,0.242-0.817-0.144-1.108c-0.842-0.623-2.716-1.748-5.625-1.748c-5.063,0-8.624,3.744-8.624,8.667
		C-30.79,220.224-27.354,224.116-22.116,224.116z"/>
	<path fill="#2E008B" d="M-46.409,223.83h0.771c0.526,0,0.792-0.265,0.792-0.797v-10.209c0-0.96-0.145-2.474-0.145-2.474h0.045
		c0,0,0.795,1.539,1.398,2.474l7.254,10.476c0.214,0.384,0.502,0.53,0.935,0.53h0.917c0.522,0,0.791-0.265,0.791-0.797v-15.374
		c0-0.527-0.268-0.79-0.791-0.79h-0.773c-0.501,0-0.791,0.263-0.791,0.79v10.235c0,0.937,0.143,2.451,0.143,2.451h-0.05
		c0,0-0.791-1.538-1.391-2.451l-7.23-10.497c-0.242-0.385-0.509-0.528-0.959-0.528h-0.915c-0.525,0-0.792,0.263-0.792,0.79v15.374
		C-47.202,223.565-46.935,223.83-46.409,223.83z"/>
	<path fill="#2E008B" d="M-62.912,223.83h0.814c0.435,0,0.748-0.216,0.866-0.647l1.493-4.232h6.387l1.512,4.232
		c0.146,0.431,0.437,0.647,0.894,0.647h0.814c0.576,0,0.838-0.361,0.645-0.915l-5.569-15.398c-0.146-0.458-0.461-0.647-0.893-0.647
		h-1.153c-0.456,0-0.742,0.189-0.887,0.647l-5.575,15.398C-63.752,223.468-63.514,223.83-62.912,223.83z M-57.217,211.6
		c0.286-0.863,0.67-2.4,0.67-2.4h0.045c0,0,0.362,1.537,0.648,2.4l1.875,5.381h-5.14L-57.217,211.6z"/>
	<path fill="#2E008B" d="M33.895,230.285h-0.79c-0.508,0-0.798,0.265-0.798,0.791v6.677h-8.815v-6.677
		c0-0.526-0.264-0.791-0.792-0.791h-0.769c-0.529,0-0.791,0.265-0.791,0.791v15.376c0,0.526,0.262,0.797,0.791,0.797H22.7
		c0.528,0,0.792-0.271,0.792-0.797v-6.656h8.815v6.656c0,0.527,0.29,0.797,0.798,0.797h0.79c0.506,0,0.768-0.27,0.768-0.797v-15.376
		C34.662,230.55,34.4,230.285,33.895,230.285z"/>
	<path fill="#2E008B" d="M8.878,223.277c0.189,0.381,0.48,0.553,0.935,0.553h0.963c0.597,0,0.838-0.386,0.525-0.938l-3.051-5.646
		c-0.294-0.528-0.508-0.769-0.508-0.769v-0.048c1.875-0.626,3.029-2.5,3.029-4.662c0-2.163-1.057-3.723-2.667-4.443
		c-0.696-0.31-1.514-0.455-3.168-0.455H0.369c-0.525,0-0.789,0.263-0.789,0.79v15.374c0,0.532,0.264,0.797,0.789,0.797h0.776
		c0.525,0,0.787-0.265,0.787-0.797v-5.956H5.56L8.878,223.277z M1.934,215.011v-6.078h2.835c1.085,0,1.587,0.098,2.021,0.29
		c1.053,0.453,1.583,1.416,1.583,2.641c0,1.897-1.179,3.147-3.027,3.147H1.934z"/>
	<path fill="#2E008B" d="M17.983,243.785c-0.31-0.41-0.696-0.41-1.101-0.099c-0.747,0.581-2.379,1.66-4.615,1.66
		c-3.914,0-6.295-3.1-6.295-6.698c0-3.583,2.334-6.466,6.271-6.466c2.042,0,3.534,0.866,4.252,1.344
		c0.458,0.291,0.819,0.241,1.104-0.191l0.312-0.479c0.266-0.433,0.243-0.814-0.146-1.105c-0.842-0.626-2.71-1.751-5.618-1.751
		c-5.071,0-8.624,3.748-8.624,8.671c0,4.971,3.434,8.864,8.67,8.864c3.099,0,5.168-1.44,6.03-2.166
		c0.385-0.336,0.412-0.721,0.123-1.102L17.983,243.785z"/>
	<path fill="#2E008B" d="M-17.83,230.931c-0.141-0.455-0.456-0.646-0.887-0.646h-1.153c-0.46,0-0.747,0.191-0.89,0.646l-5.57,15.399
		c-0.196,0.554,0.042,0.918,0.648,0.918h0.81c0.433,0,0.747-0.223,0.867-0.653l1.491-4.229h6.39l1.511,4.229
		c0.143,0.431,0.438,0.653,0.888,0.653h0.822c0.575,0,0.838-0.362,0.648-0.918L-17.83,230.931z M-21.888,240.398l1.9-5.384
		c0.284-0.862,0.67-2.4,0.67-2.4h0.048c0,0,0.355,1.538,0.649,2.4l1.869,5.384H-21.888z"/>
	<path fill="#2E008B" d="M-130.236,212.817c-0.068,0.299-0.109,0.607-0.109,0.927c0,0.203,0.02,0.401,0.048,0.598
		c0.227-0.104,0.478-0.167,0.742-0.167c0.994,0,1.803,0.812,1.803,1.808c0,0.509-0.214,0.967-0.555,1.296
		c0.603,0.352,1.303,0.557,2.052,0.557c1.183,0,2.244-0.502,2.99-1.301c-0.005-0.063-0.018-0.123-0.018-0.186
		c0-0.79,0.423-1.474,1.051-1.854c0.044-0.243,0.071-0.494,0.071-0.751c0-2.26-1.828-4.095-4.094-4.095
		c-1.02,0-1.95,0.377-2.667,0.994c0.002,0.043,0.013,0.081,0.013,0.122C-128.909,211.682-129.454,212.465-130.236,212.817z"/>
	<path fill="#2E008B" d="M-130.236,212.817c0.782-0.354,1.327-1.136,1.327-2.051c0-0.043-0.011-0.081-0.013-0.121
		C-129.567,211.203-130.037,211.957-130.236,212.817z"/>
	<path fill="#2E008B" d="M-127.751,215.983c0-0.996-0.809-1.808-1.804-1.808c-0.264,0-0.515,0.062-0.742,0.166
		c0.185,1.254,0.937,2.322,1.99,2.938C-127.966,216.949-127.751,216.491-127.751,215.983z"/>
	<path fill="#2E008B" d="M-149.051,222.652c0-0.199,0.024-0.392,0.058-0.58c-0.658-0.274-1.379-0.427-2.137-0.427
		c-2.662,0-4.883,1.867-5.432,4.361c0.299,0.434,0.477,0.959,0.477,1.527c0,0.483-0.139,0.932-0.361,1.323
		c0.703,2.266,2.817,3.915,5.317,3.915c3.074,0,5.565-2.497,5.565-5.565c0-0.478-0.067-0.938-0.181-1.38
		c-0.037,0.001-0.072,0.011-0.11,0.011C-147.62,225.838-149.051,224.418-149.051,222.652z"/>
	<path fill="#2E008B" d="M-135.783,203.298c1.904,0,3.449-1.539,3.449-3.441c0-1.909-1.545-3.455-3.449-3.455
		c-1.904,0-3.449,1.546-3.449,3.455C-139.231,201.759-137.687,203.298-135.783,203.298z"/>
	<path fill="#EC008C" d="M-164.162,211.661c0,1.105,0.901,2.009,2.01,2.009c1.111,0,2.011-0.903,2.011-2.009
		c0-1.112-0.899-2.011-2.011-2.011C-163.26,209.65-164.162,210.551-164.162,211.661z"/>
	<path fill="#EC008C" d="M-142.52,218.437c1.056,0.14,1.872,1.036,1.872,2.131c0,0.025-0.007,0.047-0.007,0.07
		c0.198,0.045,0.403,0.073,0.614,0.073c1.46,0,2.646-1.119,2.779-2.54c-0.496-0.563-0.806-1.295-0.806-2.103
		c0-0.046,0.012-0.089,0.014-0.134c-0.261-0.261-0.575-0.47-0.923-0.612c-0.199,0.063-0.408,0.107-0.628,0.107
		c-0.36,0-0.695-0.101-0.988-0.264c-0.424,0.085-0.807,0.273-1.137,0.527c0.107,0.271,0.169,0.566,0.168,0.877
		C-141.568,217.34-141.947,218.011-142.52,218.437z"/>
	<path fill="#C8C9C7" d="M-156.562,226.007c-0.486-0.703-1.295-1.164-2.212-1.164c-1.492,0-2.697,1.201-2.697,2.691
		c0,1.481,1.205,2.69,2.697,2.69c1,0,1.864-0.556,2.328-1.367c-0.163-0.521-0.25-1.075-0.25-1.649
		C-156.696,226.794-156.647,226.392-156.562,226.007z"/>
	<path fill="#2E008B" d="M-156.562,226.007c-0.085,0.388-0.134,0.788-0.134,1.201c0,0.574,0.087,1.128,0.25,1.649
		c0.223-0.392,0.362-0.84,0.362-1.322C-156.085,226.966-156.263,226.439-156.562,226.007z"/>
	<path fill="#C8C9C7" d="M-156.562,226.007c-0.085,0.388-0.134,0.788-0.134,1.201c0,0.574,0.087,1.128,0.25,1.649
		c0.223-0.392,0.362-0.84,0.362-1.322C-156.085,226.966-156.263,226.439-156.562,226.007z"/>
	<path fill="#2E008B" d="M-138.977,215.323c0.528-0.172,0.959-0.548,1.201-1.038c-1.16-0.498-1.985-1.603-2.117-2.914
		c-0.995,0.142-1.759,0.983-1.759,2.02c0,0.767,0.429,1.428,1.058,1.777c0.179-0.037,0.363-0.056,0.553-0.056
		C-139.664,215.111-139.306,215.187-138.977,215.323z"/>
	<path fill="#2E008B" d="M-138.977,215.323c-0.329-0.135-0.688-0.212-1.064-0.212c-0.189,0-0.374,0.02-0.553,0.056
		c0.294,0.163,0.628,0.266,0.989,0.266C-139.384,215.43-139.176,215.386-138.977,215.323z"/>
	<path fill="#2E008B" d="M-118.995,215.804c0.071,0.009,0.14,0.023,0.212,0.023c1.188,0,2.153-0.969,2.153-2.157
		c0-1.183-0.966-2.152-2.153-2.152c-1.189,0-2.154,0.97-2.154,2.152c0,0.183,0.029,0.357,0.072,0.526
		C-119.958,214.296-119.219,214.942-118.995,215.804z"/>
	<path fill="#2E008B" d="M-142.747,218.584c-0.35,0.201-0.75,0.323-1.182,0.32c-0.069,0-0.135-0.015-0.203-0.022
		c-0.261,0.209-0.474,0.472-0.617,0.778c1.218,0.451,2.09,1.612,2.09,2.992c0,0.019-0.005,0.036-0.005,0.055
		c1.102-0.07,1.972-0.959,2.009-2.067C-141.684,220.407-142.493,219.606-142.747,218.584z"/>
	<path fill="#EC008C" d="M-142.52,218.437c-0.073,0.054-0.149,0.101-0.227,0.146c0.254,1.022,1.063,1.823,2.091,2.055
		c0-0.023,0.007-0.045,0.007-0.07C-140.648,219.473-141.464,218.577-142.52,218.437z"/>
	<path fill="#2E008B" d="M-142.52,218.437c-0.073,0.054-0.149,0.101-0.227,0.146c0.254,1.022,1.063,1.823,2.091,2.055
		c0-0.023,0.007-0.045,0.007-0.07C-140.648,219.473-141.464,218.577-142.52,218.437z"/>
	<path fill="#2E008B" d="M-115.027,203.834c0,0.188-0.017,0.37-0.043,0.55c0.943-0.131,1.673-0.932,1.673-1.91
		c0-1.076-0.871-1.938-1.941-1.938c-0.405,0-0.78,0.126-1.092,0.339C-115.574,201.576-115.027,202.641-115.027,203.834z"/>
	<path fill="#2E008B" d="M-117.275,202.473c0,1.071,0.87,1.938,1.937,1.938c0.092,0,0.18-0.015,0.268-0.027
		c0.026-0.18,0.043-0.362,0.043-0.55c0-1.192-0.547-2.258-1.403-2.96C-116.939,201.221-117.275,201.804-117.275,202.473z"/>
	<path fill="#2E008B" d="M-121.011,207.001c-0.178,0.294-0.285,0.636-0.285,1.002c0,0.33,0.09,0.638,0.238,0.911
		c0.208-0.369,0.599-0.622,1.053-0.622c0.673,0,1.215,0.544,1.215,1.214c0,0.126-0.024,0.244-0.059,0.357
		c0.821-0.227,1.427-0.973,1.427-1.86c0-0.205-0.04-0.398-0.099-0.584c-0.417,0.156-0.866,0.245-1.335,0.245
		C-119.655,207.666-120.397,207.421-121.011,207.001z"/>
	<path fill="#2E008B" d="M-119.359,206.059c-0.704,0-1.312,0.381-1.652,0.942c0.614,0.419,1.355,0.664,2.155,0.664
		c0.47,0,0.919-0.088,1.335-0.244C-117.768,206.635-118.493,206.059-119.359,206.059z"/>
	<path fill="#2E008B" d="M-115.694,206.422c0,0.529,0.224,1.007,0.579,1.347c0.161-0.029,0.325-0.05,0.494-0.05
		c0.54,0,1.041,0.162,1.46,0.439c0.355-0.139,0.66-0.378,0.872-0.688c-0.285-0.317-0.464-0.732-0.464-1.19
		c0-0.395,0.129-0.756,0.343-1.051c-0.342-0.406-0.849-0.67-1.425-0.67c-0.611,0-1.151,0.301-1.49,0.759
		c-0.075,0.177-0.165,0.344-0.263,0.506C-115.651,206.012-115.694,206.211-115.694,206.422z"/>
	<path fill="#2E008B" d="M-113.16,208.158c-0.419-0.275-0.92-0.438-1.46-0.438c-0.169,0-0.333,0.02-0.494,0.05
		c0.334,0.319,0.785,0.52,1.281,0.52C-113.595,208.289-113.369,208.239-113.16,208.158z"/>
	<path fill="#2E008B" d="M-115.324,205.317c-0.113,0.153-0.201,0.322-0.263,0.506C-115.488,205.662-115.398,205.493-115.324,205.317
		z"/>
	<path fill="#2E008B" d="M-121.103,218.534c0.119,0,0.232-0.016,0.346-0.034c0.124-0.54,0.604-0.944,1.182-0.944
		c0.092,0,0.183,0.012,0.27,0.031c0.243-0.353,0.387-0.776,0.387-1.235c0-0.189-0.032-0.371-0.077-0.545
		c-0.91-0.091-1.65-0.742-1.87-1.607c-0.079-0.01-0.156-0.024-0.238-0.024c-0.415,0-0.799,0.121-1.129,0.322
		c-0.145,0.78-0.512,1.481-1.033,2.039C-123.169,217.651-122.246,218.534-121.103,218.534z"/>
	<path fill="#2E008B" d="M-120.757,218.498c0.6-0.096,1.12-0.432,1.453-0.912c-0.087-0.02-0.177-0.032-0.271-0.032
		C-120.152,217.553-120.634,217.959-120.757,218.498z"/>
	<path fill="#2E008B" d="M-123.283,216.349c0,0.062,0.013,0.123,0.018,0.185c0.521-0.559,0.888-1.259,1.033-2.04
		C-122.86,214.877-123.283,215.561-123.283,216.349z"/>
	<path fill="#2E008B" d="M-118.995,215.804c-0.225-0.862-0.963-1.509-1.87-1.607C-120.645,215.061-119.905,215.715-118.995,215.804z
		"/>
	<path fill="#EC008C" d="M-118.25,199.78c0.087,0.132,0.198,0.245,0.32,0.344c0.303,0.076,0.592,0.186,0.861,0.328
		c0.027,0.001,0.053,0.008,0.079,0.008c0.834,0,1.506-0.669,1.506-1.508c0-0.829-0.672-1.503-1.506-1.503
		c-0.645,0-1.192,0.406-1.408,0.973c0.116,0.3,0.187,0.623,0.187,0.966C-118.21,199.522-118.23,199.651-118.25,199.78z"/>
	<path fill="#EC008C" d="M-117.068,200.45c-0.269-0.143-0.558-0.252-0.861-0.326C-117.689,200.314-117.394,200.434-117.068,200.45z"
		/>
	<path fill="#2E008B" d="M-129.646,206.196c-0.484,0.293-0.811,0.822-0.811,1.435c0,0.927,0.75,1.676,1.676,1.676
		c0.93,0,1.685-0.749,1.685-1.676c0-0.836-0.608-1.52-1.404-1.653c-0.298,0.146-0.629,0.236-0.983,0.236
		C-129.539,206.214-129.59,206.2-129.646,206.196z"/>
	<path fill="#2E008B" d="M-142.852,207.223c0.583-0.263,0.993-0.845,0.993-1.529c0-0.93-0.755-1.679-1.682-1.679
		c-0.825,0-1.51,0.599-1.648,1.387C-144.128,205.562-143.248,206.261-142.852,207.223z"/>
	<path fill="#2E008B" d="M-143.542,207.372c0.246,0,0.479-0.056,0.69-0.15c-0.396-0.96-1.276-1.66-2.338-1.82
		c-0.017,0.095-0.029,0.191-0.029,0.292C-145.219,206.627-144.466,207.372-143.542,207.372z"/>
	<path fill="#C8C9C7" d="M-177.854,205.602c0.672,0,1.217-0.546,1.217-1.208c0-0.674-0.545-1.219-1.217-1.219
		c-0.669,0-1.215,0.545-1.215,1.219C-179.068,205.054-178.522,205.602-177.854,205.602z"/>
	<path fill="#2E008B" d="M-121.058,208.915c-0.1,0.176-0.161,0.377-0.161,0.593c0,0.67,0.543,1.213,1.214,1.213
		c0.547,0,1.002-0.36,1.156-0.856c-0.164,0.046-0.333,0.077-0.511,0.077C-120.098,209.941-120.731,209.522-121.058,208.915z"/>
	<path fill="#2E008B" d="M-120.004,208.292c-0.454,0-0.846,0.253-1.053,0.623c0.327,0.607,0.959,1.026,1.699,1.026
		c0.178,0,0.347-0.031,0.511-0.077c0.035-0.114,0.059-0.232,0.059-0.358C-118.789,208.838-119.332,208.292-120.004,208.292z"/>
	<path fill="#EC008C" d="M-156.557,200.519c0.671,0,1.216-0.541,1.216-1.215c0-0.663-0.545-1.209-1.216-1.209
		c-0.669,0-1.213,0.546-1.213,1.209C-157.77,199.98-157.227,200.519-156.557,200.519z"/>
	<path fill="#C8C9C7" d="M-137.561,213.388c0,0.322-0.082,0.625-0.215,0.896c0.069,0.029,0.143,0.044,0.214,0.071
		c0.567-0.891,1.557-1.48,2.691-1.48c0.469,0,0.913,0.106,1.314,0.288c0.246-0.321,0.431-0.685,0.556-1.08
		c-0.268-0.371-0.429-0.823-0.429-1.316c0-0.421,0.123-0.812,0.324-1.15c-0.151-0.354-0.367-0.668-0.618-0.95
		c-0.344,0.233-0.758,0.37-1.206,0.37c-0.966,0-1.776-0.639-2.05-1.514c-1.672,0.287-2.948,1.735-2.948,3.492
		c0,0.121,0.024,0.237,0.035,0.354c0.095-0.014,0.19-0.028,0.288-0.028C-138.475,211.342-137.561,212.254-137.561,213.388z"/>
	<path fill="#2E008B" d="M-133.001,212.084c0.107-0.34,0.181-0.694,0.181-1.068c0-0.498-0.103-0.97-0.287-1.4
		c-0.2,0.34-0.324,0.73-0.324,1.152C-133.431,211.26-133.269,211.713-133.001,212.084z"/>
	<path fill="#C8C9C7" d="M-133.001,212.084c0.107-0.34,0.181-0.694,0.181-1.068c0-0.498-0.103-0.97-0.287-1.4
		c-0.2,0.34-0.324,0.73-0.324,1.152C-133.431,211.26-133.269,211.713-133.001,212.084z"/>
	<path fill="#2E008B" d="M-137.776,214.285c0.133-0.271,0.215-0.574,0.215-0.896c0-1.135-0.914-2.047-2.045-2.047
		c-0.098,0-0.192,0.016-0.288,0.029C-139.761,212.681-138.937,213.786-137.776,214.285z"/>
	<path fill="#C8C9C7" d="M-137.776,214.285c0.133-0.271,0.215-0.574,0.215-0.896c0-1.135-0.914-2.047-2.045-2.047
		c-0.098,0-0.192,0.016-0.288,0.029C-139.761,212.681-138.937,213.786-137.776,214.285z"/>
	<path fill="#EC008C" d="M-155.724,213.314c0,1.966,1.592,3.557,3.554,3.557s3.557-1.591,3.557-3.557
		c0-1.963-1.594-3.551-3.557-3.551c-0.306,0-0.597,0.051-0.879,0.122c-0.387,0.333-0.849,0.578-1.364,0.694
		C-155.207,211.231-155.724,212.208-155.724,213.314z"/>
	<path fill="#C8C9C7" d="M-145.901,211.361c-0.408,0.394-0.664,0.94-0.664,1.552c0,0.812,0.454,1.508,1.116,1.876
		c0.416-0.362,0.955-0.588,1.552-0.584c0.361,0,0.699,0.091,1.003,0.239c0.392-0.39,0.637-0.93,0.637-1.531
		c0-1.014-0.7-1.855-1.638-2.087c-0.492,0.352-1.091,0.563-1.742,0.563C-145.729,211.388-145.813,211.371-145.901,211.361z"/>
	<path fill="#EC008C" d="M-145.901,211.361c0.088,0.009,0.173,0.027,0.263,0.027c0.652,0,1.25-0.212,1.742-0.562
		c-0.166-0.041-0.334-0.069-0.512-0.069C-144.989,210.759-145.515,210.99-145.901,211.361z"/>
	<path fill="#C8C9C7" d="M-145.901,211.361c0.088,0.009,0.173,0.027,0.263,0.027c0.652,0,1.25-0.212,1.742-0.562
		c-0.166-0.041-0.334-0.069-0.512-0.069C-144.989,210.759-145.515,210.99-145.901,211.361z"/>
	<path fill="#C8C9C7" d="M-140.704,270.157c-0.163,0.302-0.264,0.642-0.264,1.008c0,1.194,0.967,2.156,2.159,2.156
		c1.188,0,2.151-0.962,2.151-2.156c0-0.955-0.626-1.754-1.486-2.035c-0.644,0.638-1.527,1.032-2.503,1.032
		C-140.667,270.162-140.686,270.157-140.704,270.157z"/>
	<path fill="#2E008B" d="M-140.704,270.157c0.019,0,0.037,0.005,0.056,0.005c0.976,0,1.86-0.395,2.502-1.032
		c-0.211-0.07-0.431-0.114-0.665-0.114C-139.633,269.015-140.34,269.48-140.704,270.157z"/>
	<path fill="#C8C9C7" d="M-140.704,270.157c0.019,0,0.037,0.005,0.056,0.005c0.976,0,1.86-0.395,2.502-1.032
		c-0.211-0.07-0.431-0.114-0.665-0.114C-139.633,269.015-140.34,269.48-140.704,270.157z"/>
	<path fill="#00B6ED" d="M-133.725,208.666c0.57-0.387,0.946-1.04,0.946-1.785c0-1.192-0.965-2.151-2.152-2.151
		c-1.191,0-2.158,0.959-2.158,2.151c0,0.226,0.043,0.438,0.108,0.641c0.197-0.034,0.397-0.062,0.604-0.062
		C-135.316,207.462-134.376,207.933-133.725,208.666z"/>
	<path fill="#C8C9C7" d="M-134.931,209.036c0.447,0,0.862-0.137,1.206-0.37c-0.651-0.734-1.591-1.206-2.653-1.206
		c-0.207,0-0.406,0.028-0.603,0.062C-136.707,208.398-135.898,209.036-134.931,209.036z"/>
	<path fill="#00B6ED" d="M-134.931,209.036c0.447,0,0.862-0.137,1.206-0.37c-0.651-0.734-1.591-1.206-2.653-1.206
		c-0.207,0-0.406,0.028-0.603,0.062C-136.707,208.398-135.898,209.036-134.931,209.036z"/>
	<path fill="#EC008C" d="M-161.216,220.067c0-1.193-0.965-2.156-2.156-2.156c-1.188,0-2.153,0.963-2.153,2.156
		c0,1.186,0.965,2.149,2.153,2.149C-162.181,222.216-161.216,221.252-161.216,220.067z"/>
	<path fill="#EC008C" d="M-105.915,207.206c0.511,0.411,0.889,0.971,1.072,1.618c0.579-0.582,1.38-0.943,2.27-0.943
		c0.577,0,1.11,0.166,1.577,0.432c0.099-0.278,0.163-0.573,0.163-0.886c0-1.466-1.193-2.654-2.657-2.654
		c-0.134,0-0.263,0.021-0.392,0.039c0.01,0.085,0.025,0.169,0.025,0.257C-103.857,206.221-104.771,207.157-105.915,207.206z"/>
	<path fill="#EC008C" d="M-174.945,215.661c1.146,0,2.083-0.927,2.083-2.078c0-1.153-0.937-2.079-2.083-2.079
		c-1.153,0-2.084,0.926-2.084,2.079C-177.029,214.732-176.098,215.661-174.945,215.661z"/>
	<path fill="#2E008B" d="M-144.955,220.568c0-0.326,0.077-0.632,0.207-0.91c-0.346-0.128-0.715-0.207-1.106-0.207
		c-0.008,0-0.015,0.002-0.023,0.002c-0.12,1.079-1.029,1.918-2.142,1.916c-0.243-0.002-0.474-0.053-0.691-0.13
		c-0.129,0.262-0.228,0.536-0.282,0.83c1.597,0.666,2.812,2.055,3.248,3.756c1.696-0.059,3.052-1.418,3.081-3.12
		c-0.047,0.002-0.091,0.013-0.137,0.013C-143.991,222.72-144.955,221.758-144.955,220.568z"/>
	<path fill="#2E008B" d="M-148.993,222.072c-0.035,0.188-0.058,0.381-0.058,0.58c0,1.767,1.432,3.187,3.196,3.187
		c0.038,0,0.073-0.01,0.11-0.011C-146.181,224.126-147.395,222.736-148.993,222.072z"/>
	<path fill="#2E008B" d="M-144.749,219.66c-0.128,0.276-0.207,0.582-0.207,0.908c0,1.189,0.964,2.152,2.154,2.152
		c0.046,0,0.09-0.011,0.137-0.015c0-0.019,0.005-0.036,0.005-0.055C-142.659,221.272-143.531,220.111-144.749,219.66z"/>
	<path fill="#C8C9C7" d="M-155.122,210.664c0.245,0,0.48-0.032,0.709-0.084c0.394-0.324,0.854-0.565,1.364-0.694
		c0.683-0.586,1.125-1.443,1.125-2.415c0-1.053-0.516-1.98-1.304-2.562c-0.094-0.049-0.182-0.107-0.265-0.173
		c-0.479-0.284-1.031-0.46-1.629-0.46c-1.766,0-3.191,1.431-3.191,3.195C-158.313,209.236-156.888,210.664-155.122,210.664z"/>
	<path fill="#EC008C" d="M-153.05,209.885c-0.51,0.129-0.969,0.37-1.364,0.694C-153.898,210.464-153.437,210.219-153.05,209.885z"/>
	<path fill="#C8C9C7" d="M-153.05,209.885c-0.51,0.129-0.969,0.37-1.364,0.694C-153.898,210.464-153.437,210.219-153.05,209.885z"/>
	<path fill="#EC008C" d="M-165.833,211.125c1.553,0,2.814-1.261,2.814-2.807c0-1.562-1.261-2.815-2.814-2.815
		c-1.553,0-2.81,1.256-2.81,2.815C-168.643,209.866-167.386,211.125-165.833,211.125z"/>
	<path fill="#C8C9C7" d="M-174.383,222.362c0,1.321,1.07,2.398,2.395,2.398c1.321,0,2.395-1.077,2.395-2.398
		c0-1.329-1.073-2.393-2.395-2.393C-173.312,219.969-174.383,221.034-174.383,222.362z"/>
	<path fill="#00B6ED" d="M-136.377,214.573c-0.417,0-0.812-0.085-1.185-0.219c-0.293,0.46-0.468,0.999-0.492,1.581
		c0.506,0.508,0.819,1.204,0.819,1.976c0,0.089-0.019,0.173-0.027,0.261c0.585,0.667,1.434,1.097,2.391,1.097
		c1.765,0,3.196-1.435,3.196-3.199c0-1.298-0.774-2.404-1.882-2.905C-134.207,214.014-135.221,214.573-136.377,214.573z"/>
	<path fill="#EC008C" d="M-138.054,215.935c-0.002,0.044-0.014,0.087-0.014,0.132c0,0.81,0.311,1.54,0.806,2.104
		c0.008-0.087,0.026-0.172,0.026-0.262C-137.236,217.14-137.548,216.443-138.054,215.935z"/>
	<path fill="#00B6ED" d="M-138.054,215.935c-0.002,0.044-0.014,0.087-0.014,0.132c0,0.81,0.311,1.54,0.806,2.104
		c0.008-0.087,0.026-0.172,0.026-0.262C-137.236,217.14-137.548,216.443-138.054,215.935z"/>
	<path fill="#C8C9C7" d="M-137.562,214.356c0.372,0.132,0.767,0.217,1.185,0.217c1.156,0,2.171-0.559,2.82-1.409
		c-0.401-0.182-0.844-0.289-1.314-0.289C-136.006,212.875-136.995,213.466-137.562,214.356z"/>
	<path fill="#00B6ED" d="M-137.562,214.356c0.372,0.132,0.767,0.217,1.185,0.217c1.156,0,2.171-0.559,2.82-1.409
		c-0.401-0.182-0.844-0.289-1.314-0.289C-136.006,212.875-136.995,213.466-137.562,214.356z"/>
	<path fill="#2E008B" d="M-131.11,202.381c-0.392,0.405-0.635,0.954-0.635,1.562c0,1.193,0.926,2.169,2.099,2.254
		c0.253-0.153,0.547-0.246,0.865-0.246c0.096,0,0.188,0.013,0.28,0.027c0.739-0.36,1.253-1.109,1.274-1.98
		c-0.209,0.035-0.423,0.058-0.641,0.058C-129.205,204.054-130.386,203.389-131.11,202.381z"/>
	<path fill="#2E008B" d="M-129.483,201.685c-0.641,0-1.216,0.268-1.627,0.693c0.724,1.011,1.904,1.675,3.242,1.675
		c0.219,0,0.433-0.023,0.642-0.057c0-0.019,0.005-0.036,0.005-0.055C-127.22,202.697-128.234,201.685-129.483,201.685z"/>
	<path fill="#2E008B" d="M-129.646,206.196c0.055,0.004,0.106,0.017,0.163,0.017c0.354,0,0.685-0.09,0.983-0.236
		c-0.092-0.015-0.185-0.028-0.28-0.028C-129.098,205.948-129.392,206.043-129.646,206.196z"/>
	<path fill="#2E008B" d="M-154.124,240.577c0-0.002,0-0.002,0-0.002c0.008-1.189-0.951-2.16-2.14-2.167
		c-1.191-0.005-2.16,0.952-2.168,2.14c-0.006,1.2,0.955,2.156,2.146,2.164c1.015,0.015,1.865-0.69,2.096-1.633
		c0-0.021-0.005-0.039-0.005-0.056C-154.195,240.867-154.166,240.719-154.124,240.577z"/>
	<path fill="#C8C9C7" d="M-156.477,244.033c-0.385-1.013-1.353-1.731-2.499-1.743c-1.489-0.003-2.705,1.193-2.71,2.688
		c-0.011,1.482,1.19,2.696,2.676,2.702c1.01,0.01,1.88-0.543,2.348-1.356c-0.087-0.295-0.146-0.599-0.146-0.92
		C-156.805,244.911-156.681,244.449-156.477,244.033z"/>
	<path fill="#EC008C" d="M-156.477,244.033c-0.204,0.416-0.328,0.878-0.331,1.372c-0.001,0.322,0.058,0.626,0.146,0.919
		c0.224-0.388,0.363-0.835,0.367-1.317C-156.294,244.663-156.362,244.336-156.477,244.033z"/>
	<path fill="#C8C9C7" d="M-156.477,244.033c-0.204,0.416-0.328,0.878-0.331,1.372c-0.001,0.322,0.058,0.626,0.146,0.919
		c0.224-0.388,0.363-0.835,0.367-1.317C-156.294,244.663-156.362,244.336-156.477,244.033z"/>
	<path fill="#C8C9C7" d="M-145.45,214.789c-0.492,0.428-0.81,1.05-0.812,1.754c-0.008,1.229,0.93,2.222,2.131,2.339
		c0.368-0.292,0.825-0.473,1.331-0.473c0.005,0,0.009,0.001,0.014,0.001c-0.029-0.162-0.05-0.329-0.05-0.499
		c0-0.906,0.439-1.705,1.106-2.217c-0.217-0.55-0.635-0.995-1.163-1.25c-0.389,0.385-0.923,0.623-1.514,0.623
		C-144.789,215.068-145.141,214.962-145.45,214.789z"/>
	<path fill="#EC008C" d="M-142.838,217.909c0,0.172,0.021,0.338,0.05,0.5c0.092,0.001,0.18,0.015,0.269,0.028
		c0.573-0.426,0.952-1.1,0.957-1.866c0-0.311-0.061-0.605-0.168-0.877C-142.399,216.206-142.838,217.004-142.838,217.909z"/>
	<path fill="#C8C9C7" d="M-142.838,217.909c0,0.172,0.021,0.338,0.05,0.5c0.092,0.001,0.18,0.015,0.269,0.028
		c0.573-0.426,0.952-1.1,0.957-1.866c0-0.311-0.061-0.605-0.168-0.877C-142.399,216.206-142.838,217.004-142.838,217.909z"/>
	<path fill="#2E008B" d="M-142.747,218.584c-0.015-0.058-0.03-0.115-0.042-0.174c-0.004,0-0.009-0.001-0.013-0.001
		c-0.505,0-0.963,0.181-1.331,0.473c0.068,0.007,0.134,0.021,0.203,0.022C-143.497,218.907-143.096,218.786-142.747,218.584z"/>
	<path fill="#C8C9C7" d="M-142.747,218.584c-0.015-0.058-0.03-0.115-0.042-0.174c-0.004,0-0.009-0.001-0.013-0.001
		c-0.505,0-0.963,0.181-1.331,0.473c0.068,0.007,0.134,0.021,0.203,0.022C-143.497,218.907-143.096,218.786-142.747,218.584z"/>
	<path fill="#EC008C" d="M-142.52,218.437c-0.089-0.013-0.176-0.027-0.269-0.027c0.011,0.059,0.027,0.116,0.042,0.174
		C-142.669,218.538-142.593,218.491-142.52,218.437z"/>
	<path fill="#2E008B" d="M-142.52,218.437c-0.089-0.013-0.176-0.027-0.269-0.027c0.011,0.059,0.027,0.116,0.042,0.174
		C-142.669,218.538-142.593,218.491-142.52,218.437z"/>
	<path fill="#C8C9C7" d="M-142.52,218.437c-0.089-0.013-0.176-0.027-0.269-0.027c0.011,0.059,0.027,0.116,0.042,0.174
		C-142.669,218.538-142.593,218.491-142.52,218.437z"/>
	<path fill="#C8C9C7" d="M-145.45,214.789c0.31,0.172,0.662,0.278,1.042,0.278c0.59,0,1.125-0.238,1.514-0.625
		c-0.304-0.147-0.642-0.237-1.003-0.238C-144.495,214.201-145.034,214.427-145.45,214.789z"/>
	<path fill="#C8C9C7" d="M-145.45,214.789c0.31,0.172,0.662,0.278,1.042,0.278c0.59,0,1.125-0.238,1.514-0.625
		c-0.304-0.147-0.642-0.237-1.003-0.238C-144.495,214.201-145.034,214.427-145.45,214.789z"/>
	<path fill="#2E008B" d="M-179.284,230.668c-1.192-0.006-2.165,0.957-2.171,2.144c-0.004,1.196,0.954,2.164,2.145,2.167
		c1.188,0.007,2.16-0.952,2.163-2.139C-177.137,231.648-178.1,230.684-179.284,230.668z"/>
	<path fill="#EC008C" d="M-184.106,224.401c0-0.891-0.716-1.615-1.605-1.621c-0.897-0.002-1.621,0.714-1.626,1.605
		c-0.003,0.896,0.713,1.618,1.608,1.622C-184.838,226.009-184.117,225.295-184.106,224.401z"/>
	<path fill="#00B6ED" d="M-184.954,253.338c-0.889,0-1.62,0.72-1.62,1.608c-0.007,0.891,0.711,1.616,1.601,1.623
		c0.895,0.008,1.62-0.715,1.625-1.604C-183.346,254.069-184.066,253.344-184.954,253.338z"/>
	<path fill="#00B6ED" d="M-164.892,248.001c1.188,0.014,2.158-0.948,2.167-2.138c0.004-1.188-0.951-2.164-2.143-2.167
		c-1.193,0-2.159,0.951-2.168,2.139C-167.042,247.026-166.081,248-164.892,248.001z"/>
	<path fill="#00B6ED" d="M-129.636,275.844c-0.077-0.013-0.154-0.024-0.235-0.025c-0.92,0-1.667,0.734-1.672,1.654
		c-0.006,0.915,0.736,1.666,1.652,1.67c0.738,0.007,1.361-0.477,1.581-1.146C-128.995,277.482-129.481,276.724-129.636,275.844z"/>
	<path fill="#EC008C" d="M-129.636,275.844c0.155,0.88,0.641,1.638,1.326,2.153c0.053-0.16,0.089-0.329,0.09-0.506
		C-128.217,276.657-128.832,275.964-129.636,275.844z"/>
	<path fill="#00B6ED" d="M-129.636,275.844c0.155,0.88,0.641,1.638,1.326,2.153c0.053-0.16,0.089-0.329,0.09-0.506
		C-128.217,276.657-128.832,275.964-129.636,275.844z"/>
	<path fill="#C8C9C7" d="M-150.936,240.623c0.007,0.007,0.014,0.013,0.021,0.017c0.117-0.011,0.23-0.035,0.35-0.035
		c0.583,0.007,1.125,0.164,1.607,0.416c0.81-0.268,1.402-1.021,1.406-1.918c0.003-0.662-0.309-1.243-0.79-1.618
		c-0.484,0.734-1.318,1.22-2.266,1.215c-0.335,0-0.652-0.071-0.947-0.185c-0.053,0.18-0.089,0.364-0.09,0.56
		c0,0.227,0.043,0.442,0.111,0.646C-151.243,239.945-151.03,240.26-150.936,240.623z"/>
	<path fill="#2E008B" d="M-150.916,240.64c0.354,0.301,0.806,0.489,1.307,0.493c0.229,0.002,0.445-0.043,0.651-0.11
		c-0.483-0.252-1.024-0.411-1.607-0.416C-150.686,240.607-150.799,240.63-150.916,240.64z"/>
	<path fill="#C8C9C7" d="M-150.916,240.64c0.354,0.301,0.806,0.489,1.307,0.493c0.229,0.002,0.445-0.043,0.651-0.11
		c-0.483-0.252-1.024-0.411-1.607-0.416C-150.686,240.607-150.799,240.63-150.916,240.64z"/>
	<path fill="#2E008B" d="M-162.146,237.436c1.191,0.017,2.16-0.945,2.165-2.136c0.006-1.186-0.952-2.16-2.141-2.166
		c-1.189-0.008-2.16,0.953-2.167,2.139C-164.296,236.468-163.333,237.436-162.146,237.436z"/>
	<path fill="#C8C9C7" d="M-145.878,219.455c0.008-0.075,0.022-0.149,0.023-0.227c0.007-1.192-0.951-2.159-2.14-2.167
		c-1.191-0.011-2.16,0.956-2.166,2.143c-0.004,0.943,0.604,1.744,1.45,2.038C-148.193,220.191-147.125,219.463-145.878,219.455z"/>
	<path fill="#2E008B" d="M-145.878,219.455c-1.248,0.009-2.315,0.736-2.833,1.787c0.217,0.076,0.448,0.127,0.691,0.128
		C-146.907,221.374-145.998,220.535-145.878,219.455z"/>
	<path fill="#C8C9C7" d="M-145.878,219.455c-1.248,0.009-2.315,0.736-2.833,1.787c0.217,0.076,0.448,0.127,0.691,0.128
		C-146.907,221.374-145.998,220.535-145.878,219.455z"/>
	<path fill="#2E008B" d="M-161.315,218.452c-0.01,1.641,1.312,2.974,2.951,2.983c1.639,0.012,2.976-1.31,2.982-2.953
		c0.012-1.64-1.311-2.972-2.949-2.979C-159.975,215.491-161.306,216.816-161.315,218.452z"/>
	<path fill="#C8C9C7" d="M-153.563,242.236c0.574-0.885,1.529-1.483,2.633-1.595c-0.001-0.008-0.004-0.013-0.005-0.019
		c-0.275-0.239-0.481-0.549-0.599-0.901c-0.276-0.213-0.618-0.344-0.994-0.348c-0.76,0-1.395,0.506-1.596,1.203
		c-0.001,0.174-0.028,0.339-0.067,0.502c0.013,0.459,0.209,0.868,0.521,1.161c0.026-0.001,0.05-0.008,0.077-0.008
		C-153.583,242.232-153.573,242.236-153.563,242.236z"/>
	<path fill="#EC008C" d="M-153.563,242.236c-0.01,0-0.02-0.004-0.03-0.004c-0.027,0-0.051,0.007-0.077,0.008
		c0.023,0.021,0.048,0.041,0.072,0.062C-153.585,242.28-153.576,242.258-153.563,242.236z"/>
	<path fill="#C8C9C7" d="M-153.563,242.236c-0.01,0-0.02-0.004-0.03-0.004c-0.027,0-0.051,0.007-0.077,0.008
		c0.023,0.021,0.048,0.041,0.072,0.062C-153.585,242.28-153.576,242.258-153.563,242.236z"/>
	<path fill="#2E008B" d="M-153.563,242.236c0.533,0.01,1.026,0.156,1.465,0.393c0.697-0.191,1.216-0.824,1.221-1.586
		c0-0.139-0.021-0.271-0.053-0.401C-152.034,240.754-152.989,241.351-153.563,242.236z"/>
	<path fill="#C8C9C7" d="M-153.563,242.236c0.533,0.01,1.026,0.156,1.465,0.393c0.697-0.191,1.216-0.824,1.221-1.586
		c0-0.139-0.021-0.271-0.053-0.401C-152.034,240.754-152.989,241.351-153.563,242.236z"/>
	<path fill="#2E008B" d="M-153.598,242.302c0.287,0.241,0.651,0.391,1.055,0.393c0.154,0,0.302-0.025,0.444-0.065
		c-0.439-0.236-0.932-0.383-1.465-0.393C-153.576,242.258-153.585,242.28-153.598,242.302z"/>
	<path fill="#C8C9C7" d="M-153.598,242.302c0.287,0.241,0.651,0.391,1.055,0.393c0.154,0,0.302-0.025,0.444-0.065
		c-0.439-0.236-0.932-0.383-1.465-0.393C-153.576,242.258-153.585,242.28-153.598,242.302z"/>
	<path fill="#2E008B" d="M-154.197,241.023c0,0.017,0.004,0.035,0.005,0.056c0.039-0.163,0.066-0.328,0.067-0.502
		C-154.166,240.719-154.195,240.867-154.197,241.023z"/>
	<path fill="#C8C9C7" d="M-154.197,241.023c0,0.017,0.004,0.035,0.005,0.056c0.039-0.163,0.066-0.328,0.067-0.502
		C-154.166,240.719-154.195,240.867-154.197,241.023z"/>
	<path fill="#C8C9C7" d="M-150.936,240.623c-0.095-0.363-0.307-0.678-0.599-0.901C-151.417,240.074-151.21,240.385-150.936,240.623z
		"/>
	<path fill="#C8C9C7" d="M-150.936,240.623c-0.095-0.363-0.307-0.678-0.599-0.901C-151.417,240.074-151.21,240.385-150.936,240.623z
		"/>
	<path fill="#C8C9C7" d="M-149.59,237.046c0.475,0.003,0.904,0.17,1.249,0.439c0.278-0.421,0.443-0.923,0.446-1.467
		c0.009-1.49-1.189-2.703-2.683-2.708c-1.112-0.01-2.071,0.656-2.487,1.615c0.002,0.057,0.016,0.11,0.015,0.167
		c-0.002,0.396-0.085,0.771-0.217,1.118c0.081,1.059,0.761,1.944,1.711,2.307C-151.306,237.662-150.521,237.038-149.59,237.046z"/>
	<path fill="#C8C9C7" d="M-148.342,237.485c-0.345-0.27-0.773-0.437-1.249-0.439c-0.932-0.008-1.717,0.616-1.965,1.471
		c0.295,0.113,0.611,0.184,0.947,0.185C-149.659,238.705-148.826,238.22-148.342,237.485z"/>
	<path fill="#C8C9C7" d="M-148.342,237.485c-0.345-0.27-0.773-0.437-1.249-0.439c-0.932-0.008-1.717,0.616-1.965,1.471
		c0.295,0.113,0.611,0.184,0.947,0.185C-149.659,238.705-148.826,238.22-148.342,237.485z"/>
	<path fill="#2E008B" d="M-153.064,234.926c-0.078-1.683-1.456-3.034-3.161-3.044c-1.767-0.01-3.202,1.408-3.213,3.174
		c-0.01,1.765,1.412,3.209,3.18,3.216c1.367,0.008,2.531-0.85,2.993-2.061c-0.007-0.073-0.022-0.148-0.021-0.226
		C-153.287,235.608-153.207,235.249-153.064,234.926z"/>
	<path fill="#C8C9C7" d="M-153.064,234.926c-0.142,0.326-0.222,0.683-0.223,1.06c0,0.077,0.015,0.15,0.021,0.226
		c0.132-0.348,0.215-0.723,0.217-1.118C-153.049,235.036-153.062,234.982-153.064,234.926z"/>
	<path fill="#2E008B" d="M-153.064,234.926c-0.142,0.326-0.222,0.683-0.223,1.06c0,0.077,0.015,0.15,0.021,0.226
		c0.132-0.348,0.215-0.723,0.217-1.118C-153.049,235.036-153.062,234.982-153.064,234.926z"/>
	<path fill="#C8C9C7" d="M-148.343,250.249c1.249,0.014,2.269-0.993,2.275-2.249c0.003-0.954-0.592-1.774-1.431-2.106
		c-0.606,1.076-1.746,1.808-3.065,1.82c-0.011,0.088-0.028,0.174-0.029,0.265C-150.599,249.226-149.593,250.247-148.343,250.249z"/>
	<path fill="#2E008B" d="M-147.499,245.895c-0.253-0.101-0.528-0.163-0.817-0.164c-1.16-0.005-2.108,0.863-2.249,1.983
		C-149.244,247.704-148.104,246.971-147.499,245.895z"/>
	<path fill="#C8C9C7" d="M-147.499,245.895c-0.253-0.101-0.528-0.163-0.817-0.164c-1.16-0.005-2.108,0.863-2.249,1.983
		C-149.244,247.704-148.104,246.971-147.499,245.895z"/>
	<path fill="#2E008B" d="M-122.062,201.745c0.684-1.046,1.863-1.739,3.207-1.739c0.188,0,0.371,0.017,0.552,0.044
		c0.023-0.088,0.041-0.179,0.055-0.271c-0.157-0.237-0.25-0.521-0.25-0.829c0-0.187,0.039-0.363,0.102-0.529
		c-0.386-0.991-1.344-1.692-2.471-1.692c-1.465,0-2.657,1.186-2.657,2.657C-123.523,200.421-122.925,201.306-122.062,201.745z"/>
	<path fill="#2E008B" d="M-118.304,200.051c-0.18-0.026-0.364-0.044-0.552-0.044c-1.343,0-2.523,0.694-3.207,1.739
		c0.36,0.184,0.763,0.297,1.195,0.297C-119.631,202.042-118.6,201.193-118.304,200.051z"/>
	<path fill="#2E008B" d="M-118.25,199.78c0.02-0.128,0.04-0.258,0.04-0.393c0-0.343-0.07-0.666-0.187-0.966
		c-0.063,0.166-0.102,0.342-0.102,0.53C-118.499,199.26-118.406,199.543-118.25,199.78z"/>
	<path fill="#2E008B" d="M-107.906,212.883c0.032,0,0.062-0.01,0.094-0.01c0.229-0.083,0.473-0.137,0.731-0.137
		c0.021,0,0.04,0.005,0.06,0.005c0.528-0.152,1.005-0.426,1.382-0.807c-0.078-0.277-0.132-0.562-0.132-0.863
		c0-0.623,0.186-1.2,0.494-1.69c-0.531-0.486-0.869-1.177-0.869-1.955c0-0.076,0.016-0.149,0.022-0.224
		c-0.573-0.033-1.084-0.286-1.45-0.682c-0.111-0.013-0.219-0.034-0.332-0.034c-0.48,0-0.932,0.113-1.34,0.304
		c-0.192,0.637-0.721,1.129-1.386,1.251c-0.29,0.481-0.468,1.039-0.468,1.643C-111.101,211.454-109.671,212.883-107.906,212.883z"/>
	<path fill="#2E008B" d="M-106.124,207.202c-0.007,0.074-0.022,0.147-0.022,0.224c0,0.778,0.339,1.469,0.869,1.955
		c0.126-0.201,0.268-0.39,0.434-0.558c-0.183-0.646-0.561-1.207-1.072-1.618c-0.03,0.001-0.059,0.009-0.089,0.009
		C-106.045,207.214-106.084,207.205-106.124,207.202z"/>
	<path fill="#2E008B" d="M-103.49,210.083c-0.446,0-0.86-0.12-1.229-0.314c-0.023,0.845-0.366,1.606-0.918,2.166
		c0.28,0.997,1.023,1.79,1.991,2.137c0.253-0.481,0.645-0.871,1.127-1.122c-0.007-0.091-0.027-0.176-0.027-0.268
		c0-1.629,1.133-2.982,2.652-3.341c-0.278-0.427-0.657-0.776-1.102-1.029C-101.363,209.343-102.337,210.083-103.49,210.083z"/>
	<path fill="#2E008B" d="M-102.167,214.228c-0.196-0.391-0.317-0.821-0.353-1.277c-0.482,0.249-0.874,0.639-1.127,1.12
		c0.337,0.119,0.695,0.198,1.074,0.198C-102.435,214.267-102.302,214.244-102.167,214.228z"/>
	<path fill="#2E008B" d="M-102.547,212.681c0,0.091,0.02,0.177,0.027,0.268c0.364-0.188,0.771-0.306,1.208-0.306
		c0.467,0,0.901,0.13,1.283,0.342c0.402-0.534,0.65-1.192,0.65-1.915c0-0.64-0.192-1.232-0.516-1.73
		C-101.415,209.698-102.547,211.052-102.547,212.681z"/>
	<path fill="#2E008B" d="M-100.029,212.986c-0.382-0.213-0.815-0.343-1.283-0.343c-0.437,0-0.845,0.117-1.208,0.306
		c0.036,0.458,0.156,0.889,0.353,1.277C-101.293,214.116-100.534,213.658-100.029,212.986z"/>
	<path fill="#2E008B" d="M-104.843,208.824c0.077,0.275,0.132,0.56,0.132,0.86c0,0.028-0.007,0.057-0.009,0.084
		c0.37,0.194,0.783,0.314,1.229,0.314c1.153,0,2.127-0.74,2.494-1.771c-0.467-0.267-1-0.432-1.578-0.432
		C-103.463,207.88-104.265,208.242-104.843,208.824z"/>
	<path fill="#2E008B" d="M-105.771,211.072c0,0.302,0.055,0.587,0.133,0.863c0.553-0.56,0.896-1.322,0.918-2.165
		c-0.203-0.107-0.391-0.235-0.558-0.388C-105.584,209.871-105.771,210.449-105.771,211.072z"/>
	<path fill="#2E008B" d="M-104.719,209.768c0-0.027,0.008-0.056,0.008-0.084c0-0.301-0.055-0.585-0.132-0.86
		c-0.167,0.168-0.308,0.357-0.434,0.557C-105.11,209.534-104.922,209.662-104.719,209.768z"/>
	<path fill="#BCBEC0" d="M-108.151,205.067c0,0.562,0.222,1.07,0.577,1.453c0.537,0.056,1.04,0.232,1.465,0.524
		c0.168-1.156,1.071-2.063,2.227-2.235c-0.128-1.063-1.023-1.886-2.122-1.886c-0.86,0-1.599,0.508-1.941,1.238
		c-0.02,0.053-0.041,0.102-0.063,0.152C-108.097,204.55-108.151,204.801-108.151,205.067z"/>
	<path fill="#EC008C" d="M-107.945,204.162c-0.023,0.05-0.043,0.101-0.063,0.152C-107.985,204.264-107.965,204.215-107.945,204.162z
		"/>
	<path fill="#BCBEC0" d="M-107.945,204.162c-0.023,0.05-0.043,0.101-0.063,0.152C-107.985,204.264-107.965,204.215-107.945,204.162z
		"/>
	<path fill="#EC008C" d="M-106.109,207.045c0.07,0.048,0.129,0.107,0.194,0.16c1.145-0.048,2.058-0.983,2.058-2.138
		c0-0.088-0.015-0.171-0.026-0.256C-105.038,204.983-105.941,205.889-106.109,207.045z"/>
	<path fill="#BCBEC0" d="M-106.109,207.045c0.07,0.048,0.129,0.107,0.194,0.16c1.145-0.048,2.058-0.983,2.058-2.138
		c0-0.088-0.015-0.171-0.026-0.256C-105.038,204.983-105.941,205.889-106.109,207.045z"/>
	<path fill="#2E008B" d="M-106.124,207.202c0.004-0.052,0.008-0.105,0.015-0.157c-0.425-0.29-0.928-0.468-1.465-0.524
		C-107.208,206.916-106.697,207.169-106.124,207.202z"/>
	<path fill="#BCBEC0" d="M-106.124,207.202c0.004-0.052,0.008-0.105,0.015-0.157c-0.425-0.29-0.928-0.468-1.465-0.524
		C-107.208,206.916-106.697,207.169-106.124,207.202z"/>
	<path fill="#2E008B" d="M-106.004,207.214c0.03,0,0.059-0.007,0.089-0.009c-0.065-0.053-0.124-0.112-0.194-0.16
		c-0.007,0.052-0.011,0.105-0.015,0.157C-106.084,207.205-106.045,207.214-106.004,207.214z"/>
	<path fill="#BCBEC0" d="M-106.004,207.214c0.03,0,0.059-0.007,0.089-0.009c-0.065-0.053-0.124-0.112-0.194-0.16
		c-0.007,0.052-0.011,0.105-0.015,0.157C-106.084,207.205-106.045,207.214-106.004,207.214z"/>
	<path fill="#2E008B" d="M-112.288,207.469c0.328,0.367,0.8,0.604,1.332,0.604c0.11,0,0.218-0.013,0.324-0.033
		c0.327-0.543,0.806-0.98,1.386-1.249c0.049-0.164,0.084-0.335,0.084-0.513c0-0.24-0.049-0.468-0.133-0.676
		c-0.332,0.152-0.699,0.242-1.089,0.242c-0.737,0-1.4-0.306-1.875-0.796c-0.053,0.057-0.102,0.115-0.147,0.18
		c0.273,0.323,0.443,0.736,0.443,1.192C-111.964,206.81-112.084,207.17-112.288,207.469z"/>
	<path fill="#2E008B" d="M-110.385,205.847c0.39,0,0.756-0.091,1.089-0.242c-0.266-0.66-0.908-1.123-1.66-1.123
		c-0.517,0-0.978,0.22-1.305,0.568C-111.786,205.54-111.122,205.847-110.385,205.847z"/>
	<path fill="#2E008B" d="M-112.288,207.469c0.204-0.298,0.323-0.659,0.323-1.048c0-0.457-0.171-0.87-0.444-1.193
		c-0.213,0.295-0.343,0.656-0.343,1.051C-112.751,206.737-112.573,207.152-112.288,207.469z"/>
	<path fill="#2E008B" d="M-109.247,206.792c-0.58,0.269-1.059,0.706-1.386,1.249C-109.969,207.92-109.438,207.427-109.247,206.792z"
		/>
	<path fill="#C8C9C7" d="M-124.423,204.482c-1.284,0-2.331,1.048-2.331,2.335c0,1.289,1.046,2.335,2.331,2.335
		c1.29,0,2.337-1.046,2.337-2.335C-122.086,205.53-123.133,204.482-124.423,204.482z"/>
	<path fill="#00B6ED" d="M-144.163,202.295c1.288,0,2.33-1.05,2.33-2.332c0-1.292-1.041-2.332-2.33-2.332
		c-1.289,0-2.332,1.04-2.332,2.332C-146.495,201.245-145.452,202.295-144.163,202.295z"/>
	<path fill="#2E008B" d="M-152.412,205.121c0.968,0,1.753-0.784,1.753-1.747c0-0.974-0.784-1.754-1.753-1.754
		c-0.963,0-1.749,0.78-1.749,1.754c0,0.554,0.264,1.042,0.668,1.364c0.091,0.055,0.18,0.11,0.265,0.173
		C-152.984,205.039-152.708,205.121-152.412,205.121z"/>
	<path fill="#C8C9C7" d="M-153.493,204.736c0.083,0.066,0.171,0.124,0.265,0.174C-153.314,204.846-153.402,204.791-153.493,204.736z
		"/>
	<path fill="#2E008B" d="M-153.493,204.736c0.083,0.066,0.171,0.124,0.265,0.174C-153.314,204.846-153.402,204.791-153.493,204.736z
		"/>
	<path fill="#C8C9C7" d="M-97.203,265.008c-1.189,0-2.155-0.968-2.155-2.157c0-1.187,0.965-2.154,2.155-2.154
		c0.121,0,0.239,0.016,0.355,0.035c-0.696-0.592-1.598-0.952-2.586-0.952c-0.167,0-0.331,0.015-0.493,0.033
		c-0.243,0.933-1.083,1.621-2.094,1.621c-0.201,0-0.393-0.036-0.577-0.088c-0.513,0.669-0.821,1.505-0.821,2.416
		c0,0.471,0.086,0.924,0.236,1.343c0.042-0.003,0.083-0.013,0.125-0.013c1.664,0,3.052,1.122,3.486,2.648
		c0.046,0.002,0.091,0.007,0.138,0.007c2.083,0,3.789-1.596,3.968-3.631C-95.858,264.651-96.489,265.008-97.203,265.008z"/>
	<path fill="#2E008B" d="M-128.249,262.797c0,0.972-0.526,1.813-1.303,2.277c0.616,1.373,1.964,2.34,3.548,2.411
		c0.598-1.732,2.217-2.984,4.139-3.043c0.087-0.333,0.138-0.679,0.138-1.04c0-0.208-0.02-0.409-0.049-0.608
		c-0.82-0.313-1.405-1.102-1.405-2.031c0-0.156,0.017-0.303,0.047-0.446c-0.72-0.627-1.658-1.011-2.687-1.011
		c-1.314,0-2.482,0.624-3.23,1.59C-128.558,261.378-128.249,262.049-128.249,262.797z"/>
	<path fill="#2E008B" d="M-121.776,262.794c-0.147-0.984-0.642-1.853-1.358-2.478c-0.03,0.144-0.047,0.294-0.047,0.446
		C-123.182,261.692-122.596,262.48-121.776,262.794z"/>
	<path fill="#EC008C" d="M-167.083,234.004c1.583,0,2.867-1.296,2.867-2.871c0-1.59-1.283-2.874-2.867-2.874
		c-1.585,0-2.869,1.284-2.869,2.874C-169.952,232.708-168.668,234.004-167.083,234.004z"/>
	<path fill="#EC008C" d="M-136.27,273.148c-1.532,0.352-2.678,1.717-2.678,3.354c0,1.909,1.543,3.442,3.446,3.442
		c1.904,0,3.448-1.533,3.448-3.442c0-0.773-0.265-1.48-0.697-2.058c-0.373,0.271-0.829,0.438-1.325,0.438
		C-135.146,274.883-136.031,274.14-136.27,273.148z"/>
	<path fill="#C8C9C7" d="M-111.373,257.157c-0.075,0.265-0.199,0.498-0.346,0.714c1.784,0.348,3.13,1.916,3.13,3.804
		c0,0.01,0,0.015-0.001,0.022c0.279,0.058,0.568,0.087,0.863,0.087c0.039,0,0.075-0.004,0.113-0.005
		c0.278-0.869,1.08-1.502,2.039-1.502c0.332,0,0.641,0.082,0.922,0.215c0.204-0.208,0.385-0.438,0.543-0.682
		c-0.045-0.175-0.078-0.356-0.078-0.545c0-0.658,0.298-1.239,0.76-1.637c0.002-0.05,0.008-0.099,0.008-0.149
		c0-2.379-1.931-4.309-4.308-4.309c-0.272,0-0.538,0.027-0.795,0.075c-0.242,0.923-1.074,1.605-2.079,1.605
		c-0.169,0-0.332-0.024-0.489-0.062c-0.161,0.201-0.305,0.414-0.428,0.642C-111.275,255.955-111.202,256.557-111.373,257.157z"/>
	<path fill="#EC008C" d="M-112.019,257.825c0.101,0.011,0.201,0.025,0.3,0.046c0.146-0.215,0.271-0.449,0.346-0.714
		c0.171-0.6,0.098-1.204-0.146-1.724c-0.33,0.608-0.517,1.307-0.517,2.047C-112.035,257.596-112.027,257.711-112.019,257.825z"/>
	<path fill="#C8C9C7" d="M-112.019,257.825c0.101,0.011,0.201,0.025,0.3,0.046c0.146-0.215,0.271-0.449,0.346-0.714
		c0.171-0.6,0.098-1.204-0.146-1.724c-0.33,0.608-0.517,1.307-0.517,2.047C-112.035,257.596-112.027,257.711-112.019,257.825z"/>
	<path fill="#EC008C" d="M-108.59,261.697c0-0.008,0.001-0.013,0.001-0.022c0-1.888-1.346-3.456-3.13-3.804
		c-0.077,0.11-0.162,0.214-0.255,0.312C-111.684,259.942-110.329,261.345-108.59,261.697z"/>
	<path fill="#C8C9C7" d="M-108.59,261.697c0-0.008,0.001-0.013,0.001-0.022c0-1.888-1.346-3.456-3.13-3.804
		c-0.077,0.11-0.162,0.214-0.255,0.312C-111.684,259.942-110.329,261.345-108.59,261.697z"/>
	<path fill="#EC008C" d="M-111.718,257.871c-0.099-0.021-0.198-0.036-0.3-0.046c0.01,0.122,0.026,0.241,0.045,0.358
		C-111.88,258.087-111.795,257.981-111.718,257.871z"/>
	<path fill="#C8C9C7" d="M-111.718,257.871c-0.099-0.021-0.198-0.036-0.3-0.046c0.01,0.122,0.026,0.241,0.045,0.358
		C-111.88,258.087-111.795,257.981-111.718,257.871z"/>
	<path fill="#EC008C" d="M-105.575,264.592c1.191,0,2.157-0.97,2.157-2.153c0-0.862-0.507-1.599-1.235-1.945
		c-0.757,0.771-1.803,1.257-2.961,1.287c-0.066,0.209-0.112,0.428-0.112,0.658C-107.726,263.622-106.764,264.592-105.575,264.592z"
		/>
	<path fill="#C8C9C7" d="M-104.653,260.493c-0.281-0.133-0.591-0.214-0.922-0.214c-0.958,0-1.761,0.633-2.039,1.501
		C-106.456,261.75-105.41,261.264-104.653,260.493z"/>
	<path fill="#EC008C" d="M-104.653,260.493c-0.281-0.133-0.591-0.214-0.922-0.214c-0.958,0-1.761,0.633-2.039,1.501
		C-106.456,261.75-105.41,261.264-104.653,260.493z"/>
	<path fill="#EC008C" d="M-96.848,260.73c0.855,0.73,1.399,1.814,1.399,3.029c0,0.119-0.007,0.236-0.018,0.354
		c0.259-0.355,0.417-0.789,0.417-1.264C-95.05,261.784-95.831,260.902-96.848,260.73z"/>
	<path fill="#C8C9C7" d="M-96.848,260.73c-0.116-0.018-0.234-0.036-0.355-0.036c-1.189,0-2.155,0.969-2.155,2.155
		c0,1.189,0.965,2.156,2.155,2.156c0.714,0,1.345-0.355,1.736-0.895c0.01-0.117,0.017-0.234,0.017-0.354
		C-95.448,262.545-95.992,261.462-96.848,260.73z"/>
	<path fill="#EC008C" d="M-96.848,260.73c-0.116-0.018-0.234-0.036-0.355-0.036c-1.189,0-2.155,0.969-2.155,2.155
		c0,1.189,0.965,2.156,2.155,2.156c0.714,0,1.345-0.355,1.736-0.895c0.01-0.117,0.017-0.234,0.017-0.354
		C-95.448,262.545-95.992,261.462-96.848,260.73z"/>
	<path fill="#EC008C" d="M-165.496,259.314c-0.085-0.009-0.168-0.026-0.256-0.026c-1.485,0-2.692,1.203-2.692,2.693
		c0,1.491,1.207,2.689,2.692,2.689c1.49,0,2.692-1.2,2.692-2.689c0-0.124-0.021-0.241-0.036-0.357
		C-164.296,261.41-165.235,260.489-165.496,259.314z"/>
	<path fill="#00B6ED" d="M-159.535,264.99c-0.162,0.304-0.261,0.645-0.261,1.013c0,1.183,0.963,2.149,2.151,2.149
		c0.759,0,1.424-0.396,1.807-0.987C-157.428,267.164-158.81,266.286-159.535,264.99z"/>
	<path fill="#2E008B" d="M-157.645,263.841c-0.821,0-1.527,0.469-1.89,1.149c0.725,1.296,2.106,2.175,3.696,2.175
		c0.218-0.335,0.347-0.733,0.347-1.162C-155.492,264.808-156.457,263.841-157.645,263.841z"/>
	<path fill="#00B6ED" d="M-157.645,263.841c-0.821,0-1.527,0.469-1.89,1.149c0.725,1.296,2.106,2.175,3.696,2.175
		c0.218-0.335,0.347-0.733,0.347-1.162C-155.492,264.808-156.457,263.841-157.645,263.841z"/>
	<path fill="#2E008B" d="M-139.762,257.898c-0.046-1.286-1.096-2.315-2.389-2.315c-0.36,0-0.698,0.082-1.004,0.225
		c-0.286,0.627-0.738,1.163-1.301,1.549c-0.013,0.047-0.034,0.091-0.043,0.139c0.384,0.406,0.624,0.951,0.624,1.555
		c0,0.177-0.025,0.348-0.064,0.513c0.439,0.497,1.074,0.816,1.789,0.816c0.426,0,0.822-0.121,1.168-0.317
		c-0.007-0.074-0.022-0.146-0.022-0.222C-141.004,258.98-140.494,258.244-139.762,257.898z"/>
	<path fill="#2E008B" d="M-139.753,257.981c0-0.029-0.007-0.055-0.009-0.083c-0.732,0.346-1.243,1.082-1.243,1.943
		c0,0.076,0.015,0.149,0.022,0.223C-140.252,259.651-139.753,258.878-139.753,257.981z"/>
	<path fill="#EC008C" d="M-150.335,253.934c-0.354-0.257-0.787-0.411-1.259-0.411c-1.193,0-2.157,0.958-2.157,2.149
		c0,1.195,0.964,2.155,2.157,2.155c0.901,0,1.669-0.553,1.989-1.339c-0.467-0.627-0.746-1.4-0.746-2.24
		C-150.352,254.141-150.345,254.039-150.335,253.934z"/>
	<path fill="#2E008B" d="M-174.709,265.879c-1.187,0-2.153,0.961-2.153,2.157c0,1.187,0.966,2.147,2.153,2.147
		c1.192,0,2.157-0.961,2.157-2.147C-172.552,266.84-173.517,265.879-174.709,265.879z"/>
	<path fill="#EC008C" d="M-171.321,254.747c-1.187,0-2.151,0.966-2.151,2.152c0,1.189,0.964,2.157,2.151,2.157
		c1.191,0,2.158-0.968,2.158-2.157C-169.163,255.713-170.13,254.747-171.321,254.747z"/>
	<path fill="#EC008C" d="M-108.521,253.249c0.046-0.176,0.079-0.355,0.079-0.546c0-1.188-0.962-2.156-2.158-2.156
		c-1.188,0-2.15,0.968-2.15,2.156c0,1.021,0.71,1.866,1.66,2.087C-110.458,254.002-109.555,253.442-108.521,253.249z"/>
	<path fill="#C8C9C7" d="M-108.521,253.249c-1.034,0.193-1.937,0.753-2.569,1.542c0.157,0.039,0.32,0.062,0.49,0.062
		C-109.596,254.851-108.763,254.171-108.521,253.249z"/>
	<path fill="#EC008C" d="M-108.521,253.249c-1.034,0.193-1.937,0.753-2.569,1.542c0.157,0.039,0.32,0.062,0.49,0.062
		C-109.596,254.851-108.763,254.171-108.521,253.249z"/>
	<path fill="#2E008B" d="M-116.197,263.472c0-1.191-0.966-2.156-2.154-2.156c-0.202,0-0.393,0.037-0.578,0.088
		c-0.217,0.699-0.77,1.243-1.475,1.445c-0.06,0.198-0.103,0.405-0.103,0.623c0,0.479,0.162,0.918,0.427,1.276
		c0.508,0.2,0.97,0.487,1.369,0.845c0.118,0.02,0.236,0.037,0.359,0.037C-117.162,265.631-116.197,264.658-116.197,263.472z"/>
	<path fill="#2E008B" d="M-118.929,261.404c-0.709,0.198-1.264,0.743-1.475,1.445C-119.699,262.647-119.146,262.103-118.929,261.404
		z"/>
	<path fill="#EC008C" d="M-151.356,273.96c-1.189,0-2.153,0.968-2.153,2.153c0,1.185,0.964,2.16,2.153,2.16
		c1.194,0,2.158-0.976,2.158-2.16C-149.199,274.927-150.162,273.96-151.356,273.96z"/>
	<path fill="#2E008B" d="M-116.335,273.371c-0.315,0.345-0.513,0.8-0.513,1.303c0,1.069,0.87,1.937,1.94,1.937
		c1.071,0,1.943-0.867,1.943-1.937c0-0.342-0.097-0.658-0.253-0.937c-0.384,0.168-0.805,0.264-1.251,0.264
		C-115.17,274.001-115.811,273.76-116.335,273.371z"/>
	<path fill="#EC008C" d="M-121.234,273.456c0.208,0.845,0.964,1.472,1.875,1.472c1.071,0,1.937-0.867,1.937-1.936
		c0-0.562-0.242-1.065-0.622-1.417C-118.773,272.602-119.917,273.312-121.234,273.456z"/>
	<path fill="#EC008C" d="M-102.597,261.344c0.634-0.827,1.583-1.397,2.671-1.532c0.045-0.175,0.077-0.355,0.077-0.543
		c0-1.203-0.97-2.172-2.171-2.172c-0.539,0-1.026,0.207-1.406,0.532c-0.028,0.803-0.273,1.549-0.683,2.18
		C-103.914,260.557-103.336,261.137-102.597,261.344z"/>
	<path fill="#C8C9C7" d="M-102.597,261.344c0.185,0.052,0.376,0.088,0.577,0.088c1.011,0,1.851-0.689,2.094-1.62
		C-101.015,259.946-101.963,260.516-102.597,261.344z"/>
	<path fill="#EC008C" d="M-102.597,261.344c0.185,0.052,0.376,0.088,0.577,0.088c1.011,0,1.851-0.689,2.094-1.62
		C-101.015,259.946-101.963,260.516-102.597,261.344z"/>
	<path fill="#C8C9C7" d="M-104.187,259.268c0,0.188,0.032,0.368,0.078,0.544c0.41-0.634,0.655-1.378,0.683-2.182
		C-103.888,258.028-104.187,258.608-104.187,259.268z"/>
	<path fill="#EC008C" d="M-104.187,259.268c0,0.188,0.032,0.368,0.078,0.544c0.41-0.634,0.655-1.378,0.683-2.182
		C-103.888,258.028-104.187,258.608-104.187,259.268z"/>
	<path fill="#EC008C" d="M-153.104,251.085c0,0.829,0.678,1.503,1.51,1.503c0.833,0,1.505-0.674,1.505-1.503
		c0-0.838-0.671-1.51-1.505-1.51C-152.427,249.575-153.104,250.247-153.104,251.085z"/>
	<path fill="#C8C9C7" d="M-111.873,275.691c-0.647,0.027-1.166,0.555-1.166,1.209c0,0.672,0.545,1.211,1.217,1.211
		c0.671,0,1.215-0.539,1.215-1.211c0-0.172-0.037-0.336-0.101-0.483C-111.159,276.28-111.56,276.03-111.873,275.691z"/>
	<path fill="#EC008C" d="M-111.821,275.684c-0.018,0-0.034,0.007-0.052,0.007c0.313,0.339,0.712,0.589,1.166,0.726
		C-110.893,275.988-111.321,275.684-111.821,275.684z"/>
	<path fill="#C8C9C7" d="M-111.821,275.684c-0.018,0-0.034,0.007-0.052,0.007c0.313,0.339,0.712,0.589,1.166,0.726
		C-110.893,275.988-111.321,275.684-111.821,275.684z"/>
	<path fill="#2E008B" d="M-118.004,259.035c0,0.095-0.014,0.184-0.034,0.272c0.183,0.171,0.401,0.307,0.658,0.383
		c0.867,0.238,1.768-0.26,2.011-1.119c0.018-0.062,0.023-0.124,0.033-0.184c-0.517-0.426-0.835-1.05-0.888-1.721
		c-0.084-0.041-0.17-0.079-0.264-0.104c-0.864-0.243-1.764,0.252-2.012,1.115c-0.033,0.116-0.051,0.23-0.058,0.347
		C-118.224,258.235-118.004,258.61-118.004,259.035z"/>
	<path fill="#2E008B" d="M-115.335,258.387c0.118-0.709-0.245-1.408-0.888-1.721C-116.171,257.338-115.852,257.962-115.335,258.387z
		"/>
	<path fill="#2E008B" d="M-118.038,259.309c0.021-0.09,0.034-0.18,0.034-0.273c0-0.426-0.22-0.799-0.553-1.014
		C-118.587,258.512-118.389,258.981-118.038,259.309z"/>
	<path fill="#2E008B" d="M-147.691,260.687c-0.955,0.376-1.632,1.299-1.632,2.384c0,1.415,1.148,2.569,2.569,2.569
		c1.42,0,2.57-1.152,2.57-2.569c0-0.809-0.383-1.521-0.971-1.994c-0.299,0.146-0.629,0.235-0.983,0.235
		C-146.743,261.312-147.287,261.071-147.691,260.687z"/>
	<path fill="#EC008C" d="M-165.867,268.386c-0.875,0-1.576,0.707-1.576,1.578c0,0.874,0.702,1.577,1.576,1.577
		c0.87,0,1.577-0.703,1.577-1.577C-164.29,269.094-164.997,268.386-165.867,268.386z"/>
	<path fill="#EC008C" d="M-151.243,219.778c0-0.677-0.542-1.219-1.214-1.219c-0.676,0-1.219,0.542-1.219,1.219
		c0,0.665,0.542,1.215,1.219,1.215C-151.785,220.993-151.243,220.443-151.243,219.778z"/>
	<circle fill="#EC008C" cx="-127.958" cy="280.287" r="1.557"/>
	<path fill="#EC008C" d="M-103.182,265.101c-0.775,0.027-1.481,0.295-2.06,0.73c0.172,0.358,0.276,0.758,0.276,1.188
		c0,1.121-0.673,2.087-1.639,2.517c0.368,1.621,1.811,2.833,3.548,2.833c2.011,0,3.641-1.629,3.641-3.64
		c0-0.348-0.065-0.677-0.155-0.995C-101.241,267.68-102.646,266.6-103.182,265.101z"/>
	<path fill="#C8C9C7" d="M-103.057,265.089c-0.042,0-0.083,0.012-0.125,0.013c0.537,1.499,1.942,2.579,3.611,2.637
		C-100.006,266.213-101.394,265.089-103.057,265.089z"/>
	<path fill="#EC008C" d="M-103.057,265.089c-0.042,0-0.083,0.012-0.125,0.013c0.537,1.499,1.942,2.579,3.611,2.637
		C-100.006,266.213-101.394,265.089-103.057,265.089z"/>
	<path fill="#2E008B" d="M-111.87,265.503c-0.194,0.03-0.393,0.051-0.597,0.051c-1.103,0-2.096-0.464-2.802-1.204
		c-0.928,0.413-1.578,1.341-1.578,2.428c0,0.592,0.2,1.131,0.529,1.572c0.52-0.383,1.156-0.614,1.849-0.614
		c0.85,0,1.618,0.341,2.181,0.891c0.466-0.477,0.755-1.126,0.755-1.846C-111.533,266.312-111.661,265.881-111.87,265.503z"/>
	<path fill="#2E008B" d="M-114.19,264.115c-0.385,0-0.749,0.086-1.08,0.234c0.707,0.74,1.701,1.204,2.803,1.204
		c0.204,0,0.401-0.019,0.597-0.05C-112.322,264.679-113.185,264.115-114.19,264.115z"/>
	<path fill="#2E008B" d="M-131.949,264.386c0.445,0.234,0.804,0.606,1.01,1.064c0.013,0,0.023,0.004,0.036,0.004
		c0.495,0,0.953-0.146,1.35-0.383c-0.229-0.511-0.36-1.076-0.36-1.671c0-0.947,0.324-1.814,0.86-2.508
		c-0.478-0.468-1.13-0.756-1.85-0.756c-0.367,0-0.716,0.073-1.034,0.211c0.45,0.55,0.73,1.241,0.73,2.006
		C-131.206,263.134-131.492,263.833-131.949,264.386z"/>
	<path fill="#2E008B" d="M-131.949,264.386c-0.162,0.196-0.343,0.374-0.548,0.524c0.437,0.329,0.972,0.533,1.559,0.541
		C-131.146,264.993-131.504,264.621-131.949,264.386z"/>
	<path fill="#2E008B" d="M-129.552,265.074c0.776-0.464,1.303-1.306,1.303-2.277c0-0.748-0.309-1.419-0.803-1.901
		c-0.537,0.692-0.86,1.562-0.86,2.507C-129.913,263.999-129.781,264.563-129.552,265.074z"/>
	<path fill="#2E008B" d="M-133.188,264.135c-0.232-0.394-0.374-0.849-0.374-1.338c0-1.104,0.67-2.048,1.626-2.448
		c-0.584-0.72-1.464-1.186-2.46-1.186c-0.768,0-1.462,0.279-2.012,0.727c0.394,0.467,0.639,1.06,0.639,1.716
		c0,1.014-0.564,1.887-1.388,2.346c0.444,0.768,1.188,1.336,2.083,1.526C-134.75,264.734-134.036,264.207-133.188,264.135z"/>
	<path fill="#2E008B" d="M-132.497,264.911c-0.279-0.21-0.513-0.473-0.691-0.777c-0.847,0.07-1.562,0.6-1.886,1.344
		c0.219,0.047,0.444,0.075,0.678,0.075C-133.682,265.553-133.029,265.309-132.497,264.911z"/>
	<path fill="#2E008B" d="M-135.769,261.605c0-0.656-0.246-1.249-0.64-1.716c-0.112,0.093-0.221,0.185-0.319,0.289
		c-0.082,0.521-0.349,0.976-0.732,1.302c-0.081,0.278-0.137,0.57-0.137,0.874c0,0.583,0.167,1.123,0.439,1.597
		C-136.333,263.49-135.769,262.619-135.769,261.605z"/>
	<path fill="#2E008B" d="M-136.727,260.178c-0.341,0.365-0.591,0.811-0.732,1.302C-137.077,261.154-136.809,260.7-136.727,260.178z"
		/>
	<path fill="#2E008B" d="M-133.562,262.797c0,0.489,0.142,0.944,0.374,1.338c0.063-0.005,0.123-0.019,0.188-0.019
		c0.381,0,0.736,0.104,1.051,0.271c0.457-0.553,0.744-1.253,0.744-2.031c0-0.763-0.281-1.457-0.73-2.007
		C-132.892,260.749-133.562,261.692-133.562,262.797z"/>
	<path fill="#2E008B" d="M-131.949,264.386c-0.315-0.166-0.669-0.271-1.051-0.271c-0.065,0-0.125,0.014-0.188,0.019
		c0.178,0.304,0.412,0.567,0.691,0.778C-132.293,264.76-132.112,264.583-131.949,264.386z"/>
	<path fill="#2E008B" d="M-159.458,256.072c2.079,0,3.768-1.688,3.768-3.775c0-2.078-1.689-3.762-3.768-3.762
		c-2.083,0-3.773,1.684-3.773,3.762C-163.231,254.387-161.541,256.072-159.458,256.072z"/>
	<circle fill="#2E008B" cx="-172.039" cy="247.944" r="2.62"/>
	<path fill="#2E008B" d="M-146.139,256.787c0.612,0,1.166,0.243,1.573,0.639c0.037-0.022,0.073-0.044,0.11-0.069
		c0.186-0.691,0.665-1.256,1.301-1.549c0.218-0.476,0.342-1.004,0.342-1.56c0-2.089-1.688-3.771-3.768-3.771
		c-1.976,0-3.596,1.519-3.755,3.456c0.539,0.389,0.891,1.019,0.891,1.738c0,0.29-0.059,0.564-0.161,0.815
		c0.413,0.554,0.973,0.993,1.625,1.256C-147.572,257.166-146.902,256.787-146.139,256.787z"/>
	<path fill="#2E008B" d="M-144.456,257.356c0.563-0.385,1.014-0.922,1.301-1.548C-143.791,256.103-144.27,256.668-144.456,257.356z"
		/>
	<path fill="#2E008B" d="M-150.335,253.934c-0.009,0.104-0.016,0.208-0.016,0.314c0,0.84,0.28,1.613,0.746,2.24
		c0.103-0.251,0.161-0.525,0.161-0.816C-149.444,254.954-149.797,254.325-150.335,253.934z"/>
	<path fill="#C8C9C7" d="M-164.543,237.898c-0.038-1.643-1.396-2.943-3.033-2.909c-1.64,0.043-2.938,1.399-2.904,3.037
		c0.04,1.641,1.396,2.94,3.038,2.903C-165.808,240.892-164.511,239.534-164.543,237.898z"/>
	<path fill="#00B6ED" d="M-133.578,270.418c-0.16-0.036-0.326-0.059-0.498-0.059c-1.255,0-2.263,1.014-2.263,2.26
		c0,0.183,0.028,0.357,0.069,0.528c0.247-0.057,0.502-0.094,0.768-0.094c1.128,0,2.122,0.552,2.751,1.39
		c0.541-0.396,0.896-1.023,0.925-1.736C-132.793,272.366-133.496,271.482-133.578,270.418z"/>
	<path fill="#EC008C" d="M-133.578,270.418c0.082,1.065,0.784,1.948,1.752,2.294c0.001-0.032,0.009-0.062,0.009-0.093
		C-131.817,271.545-132.568,270.645-133.578,270.418z"/>
	<path fill="#00B6ED" d="M-133.578,270.418c0.082,1.065,0.784,1.948,1.752,2.294c0.001-0.032,0.009-0.062,0.009-0.093
		C-131.817,271.545-132.568,270.645-133.578,270.418z"/>
	<path fill="#EC008C" d="M-135.502,273.056c-0.265,0-0.521,0.036-0.768,0.093c0.239,0.991,1.123,1.734,2.194,1.734
		c0.497,0,0.952-0.166,1.325-0.438C-133.38,273.605-134.374,273.056-135.502,273.056z"/>
	<path fill="#00B6ED" d="M-135.502,273.056c-0.265,0-0.521,0.036-0.768,0.093c0.239,0.991,1.123,1.734,2.194,1.734
		c0.497,0,0.952-0.166,1.325-0.438C-133.38,273.605-134.374,273.056-135.502,273.056z"/>
	<path fill="#2E008B" d="M-144.499,257.497c-0.022-0.023-0.042-0.047-0.066-0.071c-0.583,0.37-1.273,0.589-2.015,0.589
		c-0.496,0-0.967-0.1-1.4-0.271c-0.263,0.369-0.419,0.817-0.419,1.308c0,0.645,0.273,1.225,0.708,1.636
		c0.291-0.114,0.605-0.184,0.937-0.184c0.608,0,1.16,0.22,1.6,0.572c0.604-0.294,1.059-0.843,1.215-1.514
		c-0.375-0.424-0.609-0.974-0.609-1.581C-144.549,257.816-144.532,257.655-144.499,257.497z"/>
	<path fill="#2E008B" d="M-144.499,257.497c-0.032,0.155-0.049,0.319-0.049,0.484c0,0.61,0.234,1.159,0.609,1.582
		c0.039-0.165,0.064-0.335,0.064-0.513C-143.876,258.447-144.115,257.903-144.499,257.497z"/>
	<path fill="#2E008B" d="M-147.691,260.687c0.405,0.384,0.95,0.625,1.553,0.625c0.354,0,0.685-0.089,0.983-0.235
		c-0.44-0.352-0.991-0.573-1.6-0.573C-147.087,260.504-147.401,260.573-147.691,260.687z"/>
	<path fill="#2E008B" d="M-144.565,257.427c-0.408-0.396-0.961-0.641-1.573-0.641c-0.763,0-1.433,0.381-1.842,0.957
		c0.433,0.174,0.904,0.271,1.4,0.271C-145.839,258.015-145.149,257.799-144.565,257.427z"/>
	<path fill="#2E008B" d="M-144.215,274.883c-1.25,0-2.258,1.018-2.258,2.262c0,1.248,1.009,2.263,2.258,2.263
		c1.251,0,2.262-1.015,2.262-2.263C-141.954,275.901-142.964,274.883-144.215,274.883z"/>
	<path fill="#EC008C" d="M-120.437,275.102c-1.467,0-2.659,1.189-2.659,2.664c0,1.457,1.192,2.647,2.659,2.647
		c1.471,0,2.66-1.19,2.66-2.647C-117.777,276.292-118.966,275.102-120.437,275.102z"/>
	<path fill="#2E008B" d="M-117.205,268.958c0-1.337-0.584-2.537-1.506-3.364c-0.562-0.096-1.044-0.406-1.369-0.845
		c-0.511-0.2-1.065-0.312-1.646-0.312c-0.047,0-0.093,0.005-0.139,0.006c-0.462,1.756-2.056,3.052-3.957,3.052
		c-0.062,0-0.122-0.007-0.183-0.009c-0.16,0.462-0.251,0.956-0.251,1.473c0,0.309,0.031,0.61,0.09,0.9
		c1.07,0.213,1.877,1.153,1.877,2.286c0,0.088-0.016,0.171-0.025,0.257c0.273,0.185,0.507,0.419,0.716,0.675
		c0.57,0.259,1.202,0.408,1.869,0.408c0.167,0,0.331-0.011,0.493-0.028c-0.037-0.149-0.062-0.303-0.062-0.464
		c0-1.072,0.865-1.94,1.937-1.94c0.51,0,0.97,0.202,1.316,0.523c0.174-0.243,0.326-0.508,0.448-0.784
		c0.012-0.498,0.147-0.963,0.367-1.377C-117.214,269.26-117.205,269.111-117.205,268.958z"/>
	<path fill="#2E008B" d="M-124.312,272.401c-0.01,0.082-0.014,0.165-0.032,0.245c0.234,0.164,0.483,0.308,0.748,0.43
		C-123.806,272.82-124.039,272.586-124.312,272.401z"/>
	<path fill="#2E008B" d="M-124.312,272.401c0.01-0.086,0.025-0.169,0.025-0.257c0-1.131-0.808-2.071-1.877-2.286
		c0.168,0.833,0.568,1.577,1.125,2.174C-124.782,272.13-124.536,272.249-124.312,272.401z"/>
	<path fill="#2E008B" d="M-124.344,272.646c0.018-0.08,0.022-0.163,0.031-0.245c-0.223-0.152-0.469-0.271-0.727-0.366
		C-124.829,272.261-124.597,272.467-124.344,272.646z"/>
	<path fill="#2E008B" d="M-126.004,267.485c0.061,0.002,0.121,0.009,0.182,0.009c1.901,0,3.495-1.296,3.957-3.052
		C-123.787,264.501-125.406,265.753-126.004,267.485z"/>
	<path fill="#2E008B" d="M-118.711,265.594c-0.399-0.357-0.861-0.645-1.369-0.845C-119.756,265.188-119.272,265.499-118.711,265.594
		z"/>
	<path fill="#2E008B" d="M-121.295,272.992c0,0.16,0.025,0.314,0.062,0.464c1.316-0.144,2.46-0.854,3.19-1.881
		c-0.346-0.321-0.806-0.523-1.316-0.523C-120.431,271.052-121.295,271.92-121.295,272.992z"/>
	<path fill="#EC008C" d="M-162.456,255.657c-1.662-0.06-3.06,1.242-3.12,2.907c-0.008,0.26,0.027,0.509,0.08,0.752
		c1.247,0.119,2.235,1.074,2.401,2.31c0.142,0.025,0.284,0.053,0.432,0.057c1.665,0.062,3.063-1.238,3.119-2.911
		C-159.485,257.105-160.791,255.713-162.456,255.657z"/>
	<path fill="#EC008C" d="M-165.496,259.314c0.26,1.175,1.199,2.094,2.401,2.31C-163.261,260.389-164.249,259.434-165.496,259.314z"
		/>
	<path fill="#00B6ED" d="M-105.242,265.832c-0.443-0.927-1.383-1.571-2.485-1.571c-1.524,0-2.762,1.229-2.762,2.76
		c0,0.813,0.362,1.542,0.926,2.047c0.441,0.062,0.828,0.279,1.106,0.604c0.233,0.065,0.475,0.11,0.729,0.11
		c0.4,0,0.779-0.089,1.122-0.242c-0.059-0.26-0.097-0.526-0.097-0.808C-106.702,267.544-106.124,266.497-105.242,265.832z"/>
	<path fill="#EC008C" d="M-104.966,267.02c0-0.43-0.104-0.829-0.276-1.188c-0.881,0.666-1.46,1.712-1.46,2.901
		c0,0.278,0.038,0.547,0.097,0.807C-105.639,269.108-104.966,268.144-104.966,267.02z"/>
	<path fill="#00B6ED" d="M-104.966,267.02c0-0.43-0.104-0.829-0.276-1.188c-0.881,0.666-1.46,1.712-1.46,2.901
		c0,0.278,0.038,0.547,0.097,0.807C-105.639,269.108-104.966,268.144-104.966,267.02z"/>
	<path fill="#2E008B" d="M-107.33,273.916c0,0.217-0.034,0.425-0.084,0.626c0.154,0.041,0.311,0.07,0.477,0.07
		c1.036,0,1.878-0.841,1.878-1.877c0-1.037-0.842-1.875-1.878-1.875c-0.426,0-0.813,0.146-1.128,0.385
		c-0.052,0.225-0.145,0.436-0.273,0.618C-107.729,272.344-107.33,273.08-107.33,273.916z"/>
	<path fill="#2E008B" d="M-108.338,271.863c-0.112,0.161-0.253,0.301-0.412,0.417c-0.037,0.146-0.062,0.297-0.062,0.454
		c0,0.868,0.596,1.596,1.399,1.806c0.05-0.201,0.083-0.41,0.083-0.626C-107.33,273.08-107.729,272.344-108.338,271.863z"/>
	<path fill="#2E008B" d="M-109.809,269.043c-0.728,0-1.354,0.436-1.636,1.061c0.062,0.245,0.105,0.498,0.105,0.764
		c0,0.251-0.037,0.494-0.093,0.727c0.019,0.042,0.042,0.079,0.065,0.12c0.407-0.265,0.89-0.421,1.412-0.421
		c0.534,0,1.028,0.161,1.443,0.435c0.119-0.186,0.272-0.35,0.448-0.481c0.03-0.13,0.05-0.268,0.05-0.408
		c0-0.448-0.17-0.853-0.441-1.167c-0.417-0.115-0.793-0.324-1.106-0.604C-109.644,269.056-109.724,269.043-109.809,269.043z"/>
	<path fill="#2E008B" d="M-109.809,272.632c0.397,0,0.761-0.134,1.059-0.352c0.05-0.199,0.129-0.386,0.237-0.555
		c-0.415-0.271-0.909-0.436-1.443-0.436c-0.521,0-1.004,0.156-1.412,0.421C-111.06,272.26-110.48,272.632-109.809,272.632z"/>
	<path fill="#2E008B" d="M-109.562,269.067c0.313,0.279,0.688,0.488,1.106,0.604C-108.734,269.346-109.121,269.129-109.562,269.067z
		"/>
	<path fill="#2E008B" d="M-108.514,271.727c0.062,0.041,0.117,0.09,0.175,0.136c0.128-0.186,0.221-0.394,0.273-0.618
		C-108.241,271.378-108.394,271.539-108.514,271.727z"/>
	<path fill="#2E008B" d="M-108.338,271.863c-0.058-0.046-0.113-0.096-0.174-0.136c-0.108,0.167-0.188,0.354-0.237,0.554
		C-108.591,272.164-108.451,272.024-108.338,271.863z"/>
	<path fill="#EC008C" d="M-178.946,241.754c-0.799,0.146-1.326,0.911-1.181,1.707c0.151,0.796,0.914,1.322,1.708,1.172
		c0.797-0.142,1.326-0.904,1.176-1.704C-177.388,242.131-178.155,241.605-178.946,241.754z"/>
	<path fill="#00B6ED" d="M-172.004,233.46c0.653-0.115,1.084-0.74,0.959-1.392c-0.12-0.647-0.742-1.08-1.389-0.963
		c-0.648,0.124-1.078,0.75-0.961,1.396C-173.273,233.151-172.65,233.581-172.004,233.46z"/>
	<path fill="#EC008C" d="M-109.515,218.779c0-0.128,0.025-0.248,0.038-0.371c-0.194-0.057-0.395-0.098-0.607-0.098
		c-0.068,0-0.134,0.015-0.202,0.021c-0.37,0.337-0.805,0.602-1.286,0.777c0.434,0.394,0.711,0.955,0.711,1.585
		c0,0.107-0.017,0.21-0.031,0.311c0.264-0.117,0.555-0.184,0.862-0.184c0.701,0,1.319,0.343,1.709,0.863
		c0.04-0.058,0.071-0.12,0.104-0.18C-109.003,220.854-109.515,219.885-109.515,218.779z"/>
	<path fill="#EC008C" d="M-111.676,219.023c0.035,0.027,0.071,0.056,0.104,0.085c0.481-0.175,0.916-0.439,1.286-0.778
		C-110.836,218.384-111.324,218.636-111.676,219.023z"/>
	<path fill="#EC008C" d="M-110.084,222.612c-0.509,0-0.97-0.185-1.338-0.48c-0.201,0.223-0.445,0.405-0.723,0.527
		c-0.015,0.102-0.031,0.201-0.031,0.307c0,1.189,0.962,2.148,2.146,2.148c1.184,0,2.145-0.96,2.145-2.148
		c0-0.483-0.166-0.923-0.436-1.283C-108.708,222.244-109.352,222.612-110.084,222.612z"/>
	<path fill="#EC008C" d="M-110.029,220.822c-0.308,0-0.598,0.067-0.862,0.183c-0.062,0.432-0.251,0.819-0.531,1.128
		c0.368,0.296,0.829,0.481,1.338,0.481c0.732,0,1.377-0.37,1.765-0.93C-108.71,221.164-109.328,220.822-110.029,220.822z"/>
	<path fill="#2E008B" d="M-103.883,215.921c-0.33-0.241-0.704-0.418-1.107-0.534c-0.223,0.952-1.072,1.661-2.09,1.661
		c-0.594,0-1.13-0.241-1.521-0.627c-0.483,0.539-0.797,1.225-0.877,1.988c0.891,0.263,1.544,1.075,1.544,2.05
		c0,0.381-0.108,0.735-0.282,1.046c0.613,0.506,1.389,0.821,2.245,0.821c1.965,0,3.55-1.582,3.55-3.546
		c0-0.421-0.085-0.818-0.22-1.193C-103.255,217.226-103.712,216.631-103.883,215.921z"/>
	<path fill="#2E008B" d="M-103.883,215.921c0.171,0.71,0.628,1.306,1.242,1.665C-102.882,216.912-103.315,216.335-103.883,215.921z"
		/>
	<path fill="#2E008B" d="M-109.478,218.408c-0.013,0.123-0.038,0.243-0.038,0.371c0,1.104,0.512,2.075,1.3,2.726
		c0.174-0.312,0.282-0.665,0.282-1.046C-107.934,219.484-108.587,218.67-109.478,218.408z"/>
	<path fill="#2E008B" d="M-112.235,220.459c0-0.477,0.16-0.914,0.423-1.27c-0.345,0.1-0.708,0.157-1.085,0.157
		c-0.195,0-0.385-0.02-0.573-0.048c0.055,0.19,0.092,0.388,0.092,0.594c0,0.919-0.586,1.7-1.407,2.004
		c0.386,0.571,1.04,0.946,1.78,0.946c0.307,0,0.597-0.066,0.861-0.184c0.048-0.333,0.167-0.644,0.35-0.908
		C-112.068,221.389-112.235,220.945-112.235,220.459z"/>
	<path fill="#2E008B" d="M-113.005,218.549c-0.261,0-0.508,0.055-0.74,0.14c0.125,0.185,0.212,0.392,0.274,0.61
		c0.188,0.028,0.378,0.048,0.573,0.048c0.377,0,0.741-0.058,1.086-0.157c0.042-0.057,0.089-0.113,0.137-0.166
		C-112.042,218.731-112.5,218.549-113.005,218.549z"/>
	<path fill="#2E008B" d="M-112.235,220.459c0,0.486,0.167,0.93,0.44,1.291c0.225-0.325,0.538-0.584,0.904-0.745
		c0.015-0.101,0.031-0.203,0.031-0.311c0-0.63-0.277-1.191-0.711-1.585c-0.08,0.028-0.159,0.057-0.241,0.08
		C-112.075,219.545-112.235,219.982-112.235,220.459z"/>
	<path fill="#2E008B" d="M-111.812,219.189c0.082-0.023,0.161-0.052,0.24-0.081c-0.033-0.029-0.069-0.058-0.104-0.085
		C-111.723,219.076-111.77,219.133-111.812,219.189z"/>
	<path fill="#2E008B" d="M-111.422,222.132c-0.14-0.111-0.265-0.239-0.373-0.382c-0.183,0.266-0.302,0.576-0.35,0.909
		C-111.867,222.538-111.624,222.355-111.422,222.132z"/>
	<path fill="#2E008B" d="M-111.795,221.75c0.108,0.143,0.233,0.271,0.373,0.382c0.28-0.308,0.468-0.696,0.531-1.127
		C-111.258,221.166-111.57,221.425-111.795,221.75z"/>
	<path fill="#00B6ED" d="M-114.374,219.053c-0.65-0.268-1.208-0.71-1.625-1.266c-0.963,0.212-1.686,1.072-1.686,2.106
		c0,1.18,0.964,2.145,2.15,2.145c0.265,0,0.515-0.055,0.749-0.142c-0.232-0.344-0.368-0.757-0.368-1.201
		C-115.153,220.033-114.845,219.446-114.374,219.053z"/>
	<path fill="#EC008C" d="M-114.374,219.053c0.187-0.156,0.396-0.279,0.627-0.365c-0.387-0.576-1.043-0.953-1.79-0.953
		c-0.159,0-0.313,0.02-0.463,0.053C-115.582,218.344-115.023,218.786-114.374,219.053z"/>
	<path fill="#00B6ED" d="M-114.374,219.053c0.187-0.156,0.396-0.279,0.627-0.365c-0.387-0.576-1.043-0.953-1.79-0.953
		c-0.159,0-0.313,0.02-0.463,0.053C-115.582,218.344-115.023,218.786-114.374,219.053z"/>
	<path fill="#2E008B" d="M-113.378,219.894c0-0.208-0.038-0.405-0.093-0.595c-0.313-0.046-0.617-0.128-0.901-0.246
		c-0.472,0.395-0.78,0.979-0.78,1.643c0,0.444,0.136,0.857,0.368,1.201C-113.965,221.591-113.378,220.81-113.378,219.894z"/>
	<path fill="#00B6ED" d="M-113.378,219.894c0-0.208-0.038-0.405-0.093-0.595c-0.313-0.046-0.617-0.128-0.901-0.246
		c-0.472,0.395-0.78,0.979-0.78,1.643c0,0.444,0.136,0.857,0.368,1.201C-113.965,221.591-113.378,220.81-113.378,219.894z"/>
	<path fill="#2E008B" d="M-114.374,219.053c0.285,0.118,0.588,0.2,0.902,0.246c-0.062-0.218-0.15-0.427-0.274-0.611
		C-113.977,218.774-114.187,218.897-114.374,219.053z"/>
	<path fill="#00B6ED" d="M-114.374,219.053c0.285,0.118,0.588,0.2,0.902,0.246c-0.062-0.218-0.15-0.427-0.274-0.611
		C-113.977,218.774-114.187,218.897-114.374,219.053z"/>
	<path fill="#C8C9C7" d="M-107.021,212.741c-0.254,0.075-0.516,0.124-0.791,0.132c-0.674,0.245-1.189,0.814-1.359,1.519
		c0.099,0.341,0.155,0.703,0.155,1.078c0,0.109-0.007,0.217-0.017,0.325c0.108,0.232,0.251,0.445,0.432,0.624
		c0.649-0.723,1.582-1.186,2.63-1.186c0.342,0,0.667,0.062,0.98,0.153c0.038-0.158,0.062-0.323,0.062-0.494
		C-104.928,213.731-105.86,212.776-107.021,212.741z"/>
	<path fill="#EC008C" d="M-109.171,214.391c-0.039,0.163-0.064,0.328-0.064,0.501c0,0.322,0.076,0.626,0.203,0.902
		c0.009-0.108,0.017-0.216,0.017-0.325C-109.016,215.096-109.072,214.734-109.171,214.391z"/>
	<path fill="#C8C9C7" d="M-109.171,214.391c-0.039,0.163-0.064,0.328-0.064,0.501c0,0.322,0.076,0.626,0.203,0.902
		c0.009-0.108,0.017-0.216,0.017-0.325C-109.016,215.096-109.072,214.734-109.171,214.391z"/>
	<path fill="#2E008B" d="M-107.081,212.737c-0.258,0-0.502,0.054-0.731,0.138c0.275-0.008,0.538-0.058,0.791-0.132
		C-107.042,212.741-107.06,212.737-107.081,212.737z"/>
	<path fill="#C8C9C7" d="M-107.081,212.737c-0.258,0-0.502,0.054-0.731,0.138c0.275-0.008,0.538-0.058,0.791-0.132
		C-107.042,212.741-107.06,212.737-107.081,212.737z"/>
	<path fill="#2E008B" d="M-108.601,216.419c0.39,0.388,0.927,0.628,1.521,0.628c1.019,0,1.867-0.709,2.09-1.661
		c-0.313-0.09-0.638-0.153-0.98-0.153C-107.019,215.235-107.952,215.696-108.601,216.419z"/>
	<path fill="#C8C9C7" d="M-108.601,216.419c0.39,0.388,0.927,0.628,1.521,0.628c1.019,0,1.867-0.709,2.09-1.661
		c-0.313-0.09-0.638-0.153-0.98-0.153C-107.019,215.235-107.952,215.696-108.601,216.419z"/>
	<path fill="#C8C9C7" d="M-111.499,271.808c0.022-0.07,0.048-0.142,0.066-0.213c-0.108-0.232-0.172-0.486-0.172-0.758
		c0-0.263,0.059-0.511,0.161-0.733c-0.143-0.572-0.436-1.08-0.843-1.479c-0.483,0.494-1.155,0.803-1.903,0.803
		c-0.875,0-1.644-0.427-2.128-1.077c-0.379,0.28-0.687,0.642-0.91,1.064c-0.048,0.486-0.176,0.948-0.367,1.378
		c-0.001,0.026-0.007,0.05-0.007,0.077c0,1.026,0.502,1.931,1.268,2.504c0.356-0.388,0.861-0.637,1.427-0.637
		c0.729,0,1.357,0.407,1.689,1.002c0.27-0.119,0.512-0.281,0.736-0.467C-112.331,272.674-111.979,272.163-111.499,271.808z"/>
	<path fill="#EC008C" d="M-111.499,271.808c-0.479,0.354-0.832,0.867-0.983,1.462C-112.025,272.889-111.682,272.386-111.499,271.808
		z"/>
	<path fill="#C8C9C7" d="M-111.499,271.808c-0.479,0.354-0.832,0.867-0.983,1.462C-112.025,272.889-111.682,272.386-111.499,271.808
		z"/>
	<path fill="#2E008B" d="M-114.908,272.734c-0.566,0-1.071,0.247-1.426,0.638c0.523,0.389,1.164,0.629,1.865,0.629
		c0.446,0,0.867-0.096,1.251-0.264C-113.55,273.141-114.179,272.734-114.908,272.734z"/>
	<path fill="#C8C9C7" d="M-114.908,272.734c-0.566,0-1.071,0.247-1.426,0.638c0.523,0.389,1.164,0.629,1.865,0.629
		c0.446,0,0.867-0.096,1.251-0.264C-113.55,273.141-114.179,272.734-114.908,272.734z"/>
	<path fill="#2E008B" d="M-116.319,268.349c0.484,0.649,1.254,1.076,2.128,1.076c0.748,0,1.42-0.31,1.903-0.804
		c-0.563-0.549-1.331-0.89-2.181-0.89C-115.163,267.734-115.799,267.967-116.319,268.349z"/>
	<path fill="#C8C9C7" d="M-116.319,268.349c0.484,0.649,1.254,1.076,2.128,1.076c0.748,0,1.42-0.31,1.903-0.804
		c-0.563-0.549-1.331-0.89-2.181-0.89C-115.163,267.734-115.799,267.967-116.319,268.349z"/>
	<path fill="#2E008B" d="M-117.595,270.789c0.19-0.429,0.318-0.892,0.367-1.377C-117.448,269.825-117.583,270.291-117.595,270.789z"
		/>
	<path fill="#C8C9C7" d="M-117.595,270.789c0.19-0.429,0.318-0.892,0.367-1.377C-117.448,269.825-117.583,270.291-117.595,270.789z"
		/>
	<path fill="#2E008B" d="M-111.433,271.593c0.056-0.234,0.093-0.475,0.093-0.726c0-0.266-0.042-0.519-0.105-0.765
		c-0.102,0.225-0.161,0.473-0.161,0.735C-111.605,271.107-111.541,271.362-111.433,271.593z"/>
	<path fill="#C8C9C7" d="M-111.433,271.593c0.056-0.234,0.093-0.475,0.093-0.726c0-0.266-0.042-0.519-0.105-0.765
		c-0.102,0.225-0.161,0.473-0.161,0.735C-111.605,271.107-111.541,271.362-111.433,271.593z"/>
</g>
</svg>
